<?xml version="1.0" standalone="no"?>
<!DOCTYPE svg PUBLIC "-//W3C//DTD SVG 1.1//EN" "http://www.w3.org/Graphics/SVG/1.1/DTD/svg11.dtd" >
<svg xmlns="http://www.w3.org/2000/svg">
<metadata>
Created by FontPrep 20130207 at Fri Dec 11 18:19:27 2015
 By brian p harrington
Copyright (c) 2009 by Hannes von Doehren. All rights reserved.
</metadata>
<defs>
<font id="936f6afb2e497552c3bbf70f0e7bab71" horiz-adv-x='1024' >
  <font-face 
    font-family="BrandonGrotesque-LightItalic"
    font-weight="330"
    font-style="italic"
    font-stretch="normal"
    units-per-em="2048"
    panose-1="2 11 3 3 2 2 3 13 2 2"
    ascent="1434"
    descent="-614"
    x-height="819"
    cap-height="1434"
    bbox="-399 -709 1898 2101.8"
    underline-thickness="102"
    underline-position="-102"
    slope="-8"
    unicode-range="U+0020-FB02"
  />
<missing-glyph horiz-adv-x="1226" 
d="M502 319q0 -41 30 -69t69 -29q40 0 70 29q29 30 29 70t-29 69q-30 29 -70 29q-39 0 -69 -29t-30 -70zM537 643q0 -25 28 -25h74q31 0 31 27v53q0 57 107 124q40 26 74 75t34 109q0 98 -73 162t-193 65q-120 0 -213 -80q-22 -18 -41 -44t-3 -38l46 -45q24 -18 70 33
q45 51 120 51q74 0 108 -31t34 -75t-32 -80q-32 -37 -70 -62q-38 -24 -70 -66t-31 -94v-59zM102 61v1311q0 61 62 62h899q61 0 61 -62v-1311q0 -61 -61 -61h-899q-62 0 -62 61z" />
    <glyph glyph-name="fi" unicode="fi" horiz-adv-x="980" 
d="M104 739q-27 0 -22 31l4 23q4 27 29 26h118l39 273q25 172 125 267t242 95t240 -111q12 -12 -2 -30l-27 -33q-14 -16 -33 -2q-104 92 -196 92t-167 -72t-94 -206l-38 -273h516q27 0 22 -26l-108 -766q-4 -27 -31 -27h-37q-10 0 -17 8t-5 19l100 712h-453l-186 -1327
q-4 -27 -29 -26h-35q-26 -1 -22 26l186 1327h-119z" />
    <glyph glyph-name="fl" unicode="fl" horiz-adv-x="987" 
d="M102 739q-27 0 -22 27l4 27q4 27 29 26h120l39 283q23 172 123 262t228 90q61 0 130 -30t107 -81l19 66q10 25 36 25h15q27 0 22 -27l-194 -1380q-4 -27 -31 -27h-37q-10 0 -16 8t-4 19l170 1212q-84 127 -217 127q-94 0 -169 -67t-94 -197l-38 -283h258q27 0 22 -24
l-4 -31q-4 -25 -29 -25h-260l-186 -1327q-4 -27 -29 -26h-37q-24 -1 -20 26l186 1327h-121z" />
    <glyph glyph-name="f_f" unicode="ff" horiz-adv-x="1095" 
d="M629 1352q-231 0 -277 -303l-33 -230h412l41 281q12 94 43 162q-19 30 -73 60t-113 30zM109 739q-23 0 -23 27l4 27q4 27 31 26h112l33 232q27 193 130 287q102 94 242 96q140 0 228 -95q88 115 232 115q63 0 116 -28t78 -60q12 -18 -2 -33l-24 -24q-16 -18 -35 0
q-63 63 -144 63t-146 -68t-83 -204l-39 -281h262q27 0 23 -24l-4 -31q-4 -25 -29 -25h-264l-184 -1327q-4 -27 -33 -26h-33q-27 0 -22 26l186 1327h-412l-186 -1327q-4 -27 -33 -26h-33q-26 -1 -22 26l186 1327h-112z" />
    <glyph glyph-name="f_f_i" unicode="ffi" horiz-adv-x="1478" 
d="M637 1352q-115 0 -190 -75t-95 -226l-33 -232h412l37 273q16 104 51 170q-23 30 -75 60t-107 30zM109 739q-27 0 -23 27l4 27q4 27 29 26h112l33 232q29 190 132 286q102 97 240 97t234 -97q98 117 253 117t253 -111q12 -12 -2 -30l-26 -33q-14 -16 -33 -2
q-105 92 -201 92t-168 -75t-90 -205l-39 -271h518q27 0 23 -26l-109 -766q-4 -27 -30 -27h-37q-10 0 -18 8q-7 8 -5 19l101 712h-453l-186 -1327q-4 -27 -33 -26h-33q-27 0 -23 26l187 1327h-412l-186 -1327q-4 -27 -31 -26h-33q-26 -1 -22 26l186 1327h-112z" />
    <glyph glyph-name="f_f_l" unicode="ffl" horiz-adv-x="1484" 
d="M631 1352q-236 0 -277 -305l-32 -228h409l39 283q16 96 47 155q-23 33 -75 64t-111 31zM111 739q-25 0 -21 31l2 23q4 27 29 26h110l33 232q29 193 133 287q103 94 239 96q136 0 232 -97q98 117 256 117q61 0 128 -30t106 -81l18 66q10 25 37 25h14q27 0 23 -27
l-195 -1380q-4 -27 -30 -27h-37q-10 0 -17 8q-6 8 -4 19l170 1212q-84 127 -217 127q-90 0 -167 -67t-95 -197l-39 -283h258q27 0 23 -24l-4 -31q-4 -25 -29 -25h-260l-186 -1327q-4 -27 -29 -26h-37q-10 0 -16 8t-4 18l186 1327h-410l-188 -1327q-2 -27 -33 -26h-33
q-26 -1 -22 26l186 1327h-110z" />
    <glyph glyph-name="f_f_h" unicode="ffh" horiz-adv-x="2033" 
d="M631 1352q-236 0 -277 -305l-32 -228h409l39 283q16 96 47 155q-23 33 -75 64t-111 31zM111 739q-25 0 -21 31l2 23q4 27 29 26h110l33 232q29 193 133 287q103 94 239 96q136 0 232 -97q98 117 256 117q61 0 128 -30t106 -81l18 66q10 25 37 25h14q27 0 23 -27l-98 -694
q32 37 110 82t172 45q140 0 204 -96t38 -279l-61 -438q-4 -27 -31 -27h-37q-27 0 -23 27l62 438q20 141 -24 214t-144 73q-68 0 -155 -45t-126 -99l-82 -581q-4 -27 -30 -27h-39q-23 0 -19 27l170 1212q-84 127 -217 127q-90 0 -167 -67t-95 -197l-39 -283h258q27 0 23 -24
l-4 -31q-4 -25 -29 -25h-260l-186 -1327q-4 -27 -29 -26h-37q-10 0 -16 8t-4 18l186 1327h-410l-188 -1327q-2 -27 -33 -26h-33q-26 -1 -22 26l186 1327h-110z" />
    <glyph glyph-name="f_k" unicode="fk" horiz-adv-x="1396" 
d="M102 739q-27 0 -22 27l4 27q4 27 29 26h120l39 283q23 172 123 262t228 90q61 0 130 -30t107 -81l19 66q10 25 36 25h15q27 0 22 -27l-129 -918l416 318q14 12 33 12h67q22 0 17 -18q-2 -8 -10 -15l-447 -335l371 -416q10 -11 3 -23t-20 -12h-47q-25 0 -39 16l-354 408
l-55 -397q-4 -27 -31 -27h-39q-23 0 -18 27l170 1212q-84 127 -217 127q-94 0 -169 -67t-94 -197l-38 -283h258q27 0 22 -24l-4 -31q-4 -25 -29 -25h-260l-186 -1327q-4 -27 -29 -26h-37q-24 -1 -20 26l186 1327h-121z" />
    <glyph glyph-name="f_j" unicode="fj" horiz-adv-x="1001" 
d="M104 739q-27 0 -22 31l4 23q4 27 29 26h118l39 273q25 172 125 267t242 95t240 -111q12 -12 -2 -30l-27 -33q-14 -16 -33 -2q-104 92 -196 92t-167 -72t-94 -206l-38 -273h536q27 0 23 -26l-154 -1074q-51 -354 -295 -354q-80 0 -139 39q-27 16 -12 35l18 29q16 20 41 8
q49 -31 94 -31q166 0 205 274l143 1020h-473l-186 -1327q-4 -27 -29 -26h-35q-26 -1 -22 26l186 1327h-119z" />
    <glyph glyph-name="f_f_j" unicode="ffj" horiz-adv-x="1497" 
d="M637 1352q-115 0 -190 -75t-95 -226l-33 -232h412l37 273q16 104 51 170q-23 30 -75 60t-107 30zM109 739q-27 0 -23 27l4 27q4 27 29 26h112l33 232q29 190 132 286q102 97 240 97t234 -97q98 117 253 117t253 -111q12 -12 -2 -30l-26 -33q-14 -16 -33 -2
q-105 92 -201 92t-167 -74t-91 -206l-39 -271h537q27 0 22 -26l-153 -1074q-51 -354 -295 -354q-80 0 -140 39q-27 16 -12 35l19 29q16 20 41 8q49 -31 94 -31q166 0 205 274l143 1020h-471l-186 -1327q-4 -27 -33 -26h-33q-27 0 -23 26l187 1327h-412l-186 -1327
q-4 -27 -31 -26h-33q-26 -1 -22 26l186 1327h-112z" />
    <glyph glyph-name="f_b" unicode="fb" horiz-adv-x="1517" 
d="M1311 444q0 144 -66 226t-172 82q-57 0 -112 -22t-84 -42l-27 -22l-66 -459q2 -5 8 -19t25 -36q70 -88 190 -90q119 -1 212 119q92 119 92 263zM102 739q-27 0 -22 27l4 27q4 27 29 26h120l39 283q23 172 123 262t228 90q61 0 130 -30t107 -81l19 66q10 25 36 25h15
q27 0 22 -27l-92 -649q98 82 230 82t221 -106q90 -106 90 -257q0 -205 -119 -351t-287 -146q-92 0 -153 42t-80 78l-17 -73q-8 -27 -32 -27h-21q-27 0 -22 27l170 1212q-84 127 -217 127q-94 0 -169 -67t-94 -197l-38 -283h258q27 0 22 -24l-4 -31q-4 -25 -29 -25h-260
l-186 -1327q-4 -27 -29 -26h-37q-24 -1 -20 26l186 1327h-121z" />
    <glyph glyph-name="f_f_k" unicode="ffk" horiz-adv-x="1894" 
d="M631 1352q-236 0 -277 -305l-32 -228h409l39 283q16 96 47 155q-23 33 -75 64t-111 31zM111 739q-25 0 -21 31l2 23q4 27 29 26h110l33 232q29 193 133 287q103 94 239 96q136 0 232 -97q98 117 256 117q61 0 128 -30t106 -81l18 66q10 25 37 25h14q27 0 23 -27
l-129 -918l416 318q16 12 32 12h68q20 0 16 -18q-2 -8 -10 -15l-446 -335l370 -416q10 -11 3 -23t-19 -12h-47q-25 0 -39 16l-354 408l-56 -397q-4 -27 -30 -27h-39q-23 0 -19 27l170 1212q-84 127 -217 127q-90 0 -167 -67t-95 -197l-39 -283h258q27 0 23 -24l-4 -31
q-4 -25 -29 -25h-260l-186 -1327q-4 -27 -29 -26h-37q-10 0 -16 8t-4 18l186 1327h-410l-188 -1327q-2 -27 -33 -26h-33q-26 -1 -22 26l186 1327h-110z" />
    <glyph glyph-name="f_h" unicode="fh" horiz-adv-x="1536" 
d="M102 739q-27 0 -22 27l4 27q4 27 29 26h120l39 283q23 172 123 262t228 90q61 0 130 -30t107 -81l19 66q10 25 36 25h15q27 0 22 -27l-98 -694q31 37 110 82t173 45q133 0 199 -98t42 -277l-61 -438q-4 -27 -31 -27h-37q-27 0 -22 27l61 438q20 139 -23 213
q-44 74 -143 74q-70 0 -156 -45t-126 -99l-82 -581q-4 -27 -31 -27h-39q-23 0 -18 27l170 1212q-84 127 -217 127q-94 0 -169 -67t-94 -197l-38 -283h258q27 0 22 -24l-4 -31q-4 -25 -29 -25h-260l-186 -1327q-4 -27 -29 -26h-37q-24 -1 -20 26l186 1327h-121z" />
    <glyph glyph-name="f_f_b" unicode="ffb" horiz-adv-x="2015" 
d="M1808 444q0 144 -65 226q-66 82 -172 82q-57 0 -113 -22t-82 -42l-28 -22l-66 -459q2 -5 8 -19t36 -51t79 -56t92 -20q127 0 219 120q92 119 92 263zM631 1352q-236 0 -277 -305l-32 -228h409l39 283q16 96 47 155q-23 33 -75 64t-111 31zM111 739q-25 0 -21 31l2 23
q4 27 29 26h110l33 232q29 193 133 287q103 94 239 96q136 0 232 -97q98 117 256 117q61 0 128 -30t106 -81l18 66q10 25 37 25h14q27 0 23 -27l-92 -649q98 82 231 82t221 -106t88 -257q0 -207 -116 -352t-289 -145q-91 0 -153 42t-80 78l-17 -73q-8 -27 -33 -27h-20
q-27 0 -23 27l170 1212q-84 127 -217 127q-90 0 -167 -67t-95 -197l-39 -283h258q27 0 23 -24l-4 -31q-4 -25 -29 -25h-260l-186 -1327q-4 -27 -29 -26h-37q-10 0 -16 8t-4 18l186 1327h-410l-188 -1327q-2 -27 -33 -26h-33q-26 -1 -22 26l186 1327h-110z" />
    <glyph glyph-name=".notdef" horiz-adv-x="1226" 
d="M502 319q0 -41 30 -69t69 -29q40 0 70 29q29 30 29 70t-29 69q-30 29 -70 29q-39 0 -69 -29t-30 -70zM537 643q0 -25 28 -25h74q31 0 31 27v53q0 57 107 124q40 26 74 75t34 109q0 98 -73 162t-193 65q-120 0 -213 -80q-22 -18 -41 -44t-3 -38l46 -45q24 -18 70 33
q45 51 120 51q74 0 108 -31t34 -75t-32 -80q-32 -37 -70 -62q-38 -24 -70 -66t-31 -94v-59zM102 61v1311q0 61 62 62h899q61 0 61 -62v-1311q0 -61 -61 -61h-899q-62 0 -62 61z" />
    <glyph glyph-name=".null" horiz-adv-x="0" 
 />
    <glyph glyph-name="nonmarkingreturn" horiz-adv-x="681" 
 />
    <glyph glyph-name="space" unicode=" " horiz-adv-x="452" 
 />
    <glyph glyph-name="exclam" unicode="!" horiz-adv-x="608" 
d="M156 55q0 35 27 62q28 27 62 27t52 -21q18 -20 18 -55q-1 -35 -27 -62q-26 -26 -60 -26t-53 20t-19 55zM297 551q-10 0 -17 7t-6 17l97 832q2 27 32 27h54q27 0 22 -27l-137 -832q-8 -25 -29 -24h-16z" />
    <glyph glyph-name="quotedbl" unicode="&#x22;" horiz-adv-x="581" 
d="M193 1016q-16 0 -15 22l51 369q4 27 31 27h45q25 0 19 -33l-86 -363q-8 -23 -23 -22h-22zM469 1016q-16 0 -14 22l53 369q4 27 29 27h45q29 0 18 -33l-86 -363q-4 -23 -22 -22h-23z" />
    <glyph glyph-name="numbersign" unicode="#" horiz-adv-x="1036" 
d="M328 485h297l106 373h-295zM96 422q-23 0 -18 27l2 14q4 23 26 22h158l109 373h-160q-30 0 -23 33t31 33h170l139 487q6 23 29 23h12q27 0 19 -31l-137 -479h297l139 487q6 23 29 23h10q27 0 18 -31l-135 -479h150q25 0 20 -27l-2 -12q-4 -27 -27 -27h-157l-109 -373h158
q27 0 22 -26l-2 -15q-4 -23 -26 -22h-170l-115 -399q-8 -23 -29 -23h-12q-29 0 -18 31l112 391h-299l-112 -399q-8 -23 -29 -23h-12q-29 0 -19 31l113 391h-152z" />
    <glyph glyph-name="dollar" unicode="$" horiz-adv-x="1011" 
d="M475 68q129 8 223 96t95 213q0 176 -234 278zM283 1064q0 -106 59 -173q59 -68 176 -115l82 588q-154 -8 -236 -101t-81 -199zM662 1554q27 0 22 -26l-12 -78q74 -4 142 -30t97 -48l31 -24q14 -14 4 -31l-35 -49q-10 -18 -32 0q-88 82 -220 94q-14 -115 -86 -610
q160 -66 240 -151t80 -216q0 -168 -129 -282t-301 -123l-31 -222q-2 -24 -32 -24t-27 24l33 222q-215 17 -336 167q-23 27 -2 46l28 26q23 20 43 -6q104 -133 279 -145l86 614q-317 121 -318 375q0 139 112 261t314 134l11 76q2 27 30 26h9z" />
    <glyph glyph-name="percent" unicode="%" horiz-adv-x="1290" 
d="M899 465q-75 0 -137 -70t-62 -154t42 -135t116 -51t136 69t62 154t-41 136q-42 51 -116 51zM623 238q0 116 89 212q88 96 194 95q106 0 167 -72q61 -73 61 -189t-90 -211t-194 -95t-166 71q-61 73 -61 189zM252 1152q0 -85 40 -136t115 -51q74 0 137 69q62 70 62 155
t-42 136t-116 51t-135 -69q-61 -70 -61 -155zM1114 1434q12 0 16 -8t-4 -21l-886 -1385q-14 -20 -35 -20h-35q-12 0 -16 8t4 21l891 1390q8 14 28 15h37zM402 889q-104 0 -168 70q-62 71 -62 188t90 212t194 95t168 -71q62 -71 62 -187t-90 -212q-90 -95 -194 -95z" />
    <glyph glyph-name="ampersand" unicode="&#x26;" horiz-adv-x="1255" 
d="M225 328q0 -122 67 -194q67 -73 169 -73q147 0 307 134q37 31 55 51l19 22l-326 443q-131 -77 -211 -169t-80 -214zM670 1374q-100 0 -168 -72t-82 -167q-20 -133 80 -265l45 -57q230 129 292 249q27 54 27 125t-47 129t-147 58zM135 301q0 177 105 291q105 113 229 180
l-37 47q-121 156 -96 318q20 123 114 220t233 97q138 0 207 -78q68 -78 68 -171t-32 -159q-71 -150 -334 -296l305 -408q74 82 122 212t50 247q0 18 16 18h45q20 0 21 -22q0 -272 -199 -523l158 -206q33 -33 6 -50l-33 -24q-23 -18 -41 4l-149 203q-224 -224 -444 -221
q-145 0 -230 93q-84 93 -84 228z" />
    <glyph glyph-name="quotesingle" unicode="'" horiz-adv-x="305" 
d="M193 1016q-16 0 -15 22l53 369q4 27 29 27h45q25 0 19 -33l-86 -363q-8 -23 -23 -22h-22z" />
    <glyph glyph-name="parenleft" unicode="(" horiz-adv-x="671" 
d="M135 412q0 282 52 488q53 206 139 321q166 221 383 233q23 0 22 -18l-2 -31q0 -25 -18 -25q-227 -33 -357 -272q-129 -240 -129 -694t279 -498q18 -4 12 -25l-8 -34q-2 -16 -25 -17q-152 10 -250 150t-98 422z" />
    <glyph glyph-name="parenright" unicode=")" horiz-adv-x="669" 
d="M469 880q0 456 -276 500q-23 0 -15 27l6 29q4 18 29 18q147 -8 245 -150t99 -425q0 -765 -369 -978q-96 -56 -200 -61q-25 0 -25 17l2 37q1 20 21 24q229 34 356 270t127 692z" />
    <glyph glyph-name="asterisk" unicode="*" horiz-adv-x="643" 
d="M350 840q-27 0 -22 26l30 211l-170 -112q-27 -16 -34 8q-17 40 4 51l180 113l-150 112q-20 16 -2 35l15 16q16 20 32 9l142 -113l28 211q4 27 29 27h17q27 0 22 -27l-33 -211l172 115q25 20 40 -23q9 -25 -11 -37l-180 -114l149 -115q8 -4 8 -14t-4 -19l-12 -18
q-16 -25 -37 -8l-141 114l-27 -211q-4 -27 -30 -26h-15z" />
    <glyph glyph-name="plus" unicode="+" horiz-adv-x="944" 
d="M131 668q-27 0 -22 26l6 33q4 27 28 27h314l49 352q4 25 29 24h32q27 0 23 -24l-49 -352h311q27 0 22 -27l-6 -33q-4 -27 -28 -26h-312l-49 -351q-4 -27 -28 -26h-35q-10 0 -17 8q-6 8 -4 18l49 351h-313z" />
    <glyph glyph-name="comma" unicode="," horiz-adv-x="458" 
d="M152 -20q-70 0 -70 76q0 36 24 61q25 25 64 25q38 0 64 -37q26 -36 26 -103q0 -129 -61 -219t-119 -119q-27 -14 -35 0l-12 21q-10 18 12 32q102 68 131 195q10 49 4 78q-16 -10 -28 -10z" />
    <glyph glyph-name="hyphen" unicode="-" horiz-adv-x="925" 
d="M240 473q-25 0 -21 27l2 22q4 27 29 27h409q27 0 23 -27l-2 -22q-4 -27 -31 -27h-409z" />
    <glyph glyph-name="period" unicode="." horiz-adv-x="450" 
d="M82 55q0 35 28 62t62 27t51 -21q19 -20 19 -55t-27 -62q-27 -26 -61 -26t-53 20t-19 55z" />
    <glyph glyph-name="slash" unicode="/" horiz-adv-x="634" 
d="M668 1434q33 0 18 -29l-596 -1387q-6 -18 -27 -18h-30q-31 0 -19 29l594 1388q6 16 27 17h33z" />
    <glyph glyph-name="zero" unicode="0" horiz-adv-x="1228" 
d="M545 63q215 -1 339 221t124 588q0 215 -74 337t-213 122q-215 0 -340 -222t-125 -587q0 -215 74 -337t215 -122zM532 -20q-176 0 -271 144t-95 394q0 406 154 652t413 247q175 0 271 -144t96 -394q0 -407 -154 -653t-414 -246z" />
    <glyph glyph-name="one" unicode="1" horiz-adv-x="614" 
d="M498 1395q20 0 16 -25l-188 -1343q-4 -27 -31 -27h-41q-27 0 -23 27l179 1212h-2l-230 -188q-16 -12 -28 2l-27 34q-10 12 8 31l326 277h41z" />
    <glyph glyph-name="two" unicode="2" horiz-adv-x="989" 
d="M838 1058q0 112 -65 190t-205 77q-140 0 -283 -166q-20 -25 -39 -8l-31 25q-18 14 2 36q100 133 244 182q61 22 123 21q170 0 261 -98q91 -99 91 -245t-73 -259t-226 -264l-473 -465h600q27 0 22 -27l-4 -30q-4 -27 -28 -27h-719q-23 0 -23 25l4 36l559 545
q133 128 198 234t65 218z" />
    <glyph glyph-name="three" unicode="3" horiz-adv-x="1032" 
d="M412 61q152 1 257 97t105 232t-86 208q-86 70 -192 70h-174q-27 0 -23 22l6 41q2 25 31 25h164q127 0 231 91q105 91 105 217t-65 194t-167 69q-156 0 -309 -153q-16 -16 -33 0l-26 28q-18 14 1 34t51 51q32 30 129 79t195 49q142 0 232 -87t90 -224q0 -136 -75 -240
t-181 -151v-4q78 -29 135 -111t57 -184q0 -182 -133 -308t-338 -126q-235 -1 -346 192q-8 18 6 29l37 24q18 14 33 -10q92 -154 283 -154z" />
    <glyph glyph-name="four" unicode="4" horiz-adv-x="1097" 
d="M131 401h602l121 834zM37 319q-33 0 -29 25l4 41l897 1032h33q18 0 16 -24l-137 -994h142q27 0 22 -24l-4 -27q-4 -27 -29 -26h-143l-41 -295q-4 -27 -29 -27h-41q-25 0 -20 29l39 290h-680z" />
    <glyph glyph-name="five" unicode="5" horiz-adv-x="1042" 
d="M424 61q176 -1 294 135t118 314q0 129 -74 205t-219 76h-301q-18 0 -28 13q-9 13 -5 30l74 534q4 27 30 27h576q10 -1 16 -9t4 -18l-4 -33q-4 -27 -28 -26h-517l-61 -432h256q185 -1 281 -95t96 -270q0 -217 -148 -375t-358 -157q-237 -1 -348 192q-8 18 6 29l39 24
q18 14 33 -10q92 -154 268 -154z" />
    <glyph glyph-name="six" unicode="6" horiz-adv-x="1054" 
d="M203 455q-1 -166 71 -280t214 -114q142 1 260 133t116 308q0 135 -77 224t-193 89q-153 0 -299 -130q-43 -39 -72 -75q-20 -59 -20 -155zM115 432q0 194 59 355t142 265t225 213q142 110 311 177q20 6 29 -23l8 -22q10 -27 -36 -43q-101 -35 -290 -172q-98 -72 -183 -186
t-126 -242h2q39 47 137 97t230 50t233 -107q100 -108 100 -278q0 -217 -147 -377q-147 -159 -329 -159t-274 130q-91 128 -91 322z" />
    <glyph glyph-name="seven" unicode="7" horiz-adv-x="864" 
d="M164 1309q-29 0 -25 30l4 31q2 25 31 25h746q25 0 24 -29v-12l-723 -1329q-14 -25 -33 -25h-55q-26 0 -10 33l702 1276h-661z" />
    <glyph glyph-name="eight" unicode="8" horiz-adv-x="1097" 
d="M190 325q0 -130 79 -199t221 -69t247 89q106 89 107 247q0 104 -77 181t-206 90q-163 -14 -267 -112t-104 -227zM907 1064q0 120 -68 196q-69 74 -201 74t-225 -98q-93 -97 -93 -215q0 -119 66 -183q68 -64 189 -74q154 12 243 96t89 204zM102 308q0 153 96 259t224 144
q0 2 2 4q-82 29 -137 107t-56 177q0 170 120 291q119 121 295 121t264 -91t89 -229q0 -139 -85 -239t-199 -137v-4q95 -29 159 -109t64 -192q0 -197 -133 -314t-344 -116q-167 0 -263 88t-96 240z" />
    <glyph glyph-name="nine" unicode="9" horiz-adv-x="1052" 
d="M227 903q0 -135 77 -224t190 -89t225 69q96 63 149 136q20 59 21 155q0 166 -72 280t-214 114t-259 -133q-117 -132 -117 -308zM468 504q-132 0 -232 108t-101 277q-1 217 147 377t330 160t274 -131q92 -130 91 -323q0 -192 -59 -354q-58 -162 -142 -265t-224 -212
t-312 -178q-20 -6 -27 14l-10 31q-11 27 35 43q101 36 290 172q98 72 184 186q85 114 126 242h-2q-40 -47 -138 -97t-230 -50z" />
    <glyph glyph-name="colon" unicode=":" horiz-adv-x="534" 
d="M117 55q0 35 27 62q28 27 62 27t52 -21q18 -20 18 -55t-26 -62q-26 -26 -61 -26q-34 0 -53 20t-19 55zM213 751q0 33 29 61q28 28 62 28t52 -20t18 -56q0 -34 -26 -62t-60 -28t-55 21q-20 22 -20 56z" />
    <glyph glyph-name="semicolon" unicode=";" horiz-adv-x="538" 
d="M184 -20q-69 0 -69 76q0 36 24 61q25 25 64 25t65 -37q26 -36 25 -103q1 -129 -61 -219t-119 -119q-27 -14 -35 0l-12 21q-10 18 12 32q102 68 131 195q10 49 4 78q-16 -10 -29 -10zM302 840q34 0 52 -20t18 -56q0 -34 -26 -62t-60 -28t-54 21q-19 21 -19 55t28 62
q27 28 61 28z" />
    <glyph glyph-name="less" unicode="&#x3c;" horiz-adv-x="821" 
d="M39 467v4q0 16 24 33l717 459q12 8 22 3t9 -24l-4 -53q0 -16 -23 -31l-614 -391l506 -383q18 -12 12 -35l-6 -33q-2 -18 -14 -23t-25 3l-588 444q-16 14 -16 27z" />
    <glyph glyph-name="equal" unicode="=" horiz-adv-x="1081" 
d="M215 324q-25 0 -20 26l4 35q4 27 28 27h576q27 0 22 -27l-4 -35q-4 -27 -30 -26h-576zM276 750q-27 0 -22 26l4 35q4 27 31 27h575q10 0 16 -8t5 -19l-4 -35q-4 -27 -29 -26h-576z" />
    <glyph glyph-name="greater" unicode="&#x3e;" horiz-adv-x="821" 
d="M754 471q0 -16 -25 -31l-713 -444q-12 -8 -23 -3t-9 23l6 54q4 20 20 30l613 377l-504 393q-16 10 -13 33l7 39q2 18 15 24t26 -3l583 -459q16 -14 17 -31v-2z" />
    <glyph glyph-name="question" unicode="?" horiz-adv-x="901" 
d="M264 56q0 34 27 61t61 27t54 -21q20 -20 20 -54t-29 -62q-29 -27 -61 -27t-52 21t-20 55zM389 559q-27 0 -24 29l16 119q12 102 131 188q8 6 46 34t50 38q69 57 82 76q43 61 50 92t8 59q0 70 -48 123t-125 53q-79 0 -143 -32t-90 -58t-41 -49q-14 -22 -37 -6l-28 20
q-18 13 -8 29q39 64 128 122t217 58q129 0 199 -72t70 -174q0 -138 -105 -237q-37 -37 -93 -78t-83 -64q-84 -66 -92 -124l-16 -117q-4 -29 -29 -29h-35z" />
    <glyph glyph-name="at" unicode="@" horiz-adv-x="1861" 
d="M608 350q0 -127 58 -206t153 -78q70 0 130 42t85 78t39 68l55 387q-2 4 -7 15q-28 61 -110 88q-34 11 -73 12q-134 0 -232 -113t-98 -293zM78 344q0 292 124 552t353 409t534 149t481 -202t177 -519q0 -244 -102 -485q-51 -119 -149 -194t-226 -74q-162 0 -180 161
q-37 -57 -116 -109t-173 -52q-127 0 -206 100t-79 258q0 221 129 361q129 141 285 141t223 -88l12 43q10 25 31 24h21q27 0 22 -26l-74 -514q-29 -223 119 -224q113 -1 202 97t134 250t45 323q0 289 -156 471t-444 182q-397 0 -651 -297t-254 -753q0 -242 108 -429t293 -284
q20 -10 8 -33l-18 -33q-12 -20 -31 -12q-202 102 -322 308q-120 207 -120 499z" />
    <glyph glyph-name="A" unicode="A" horiz-adv-x="1230" 
d="M295 475h623l-191 825h-6zM18 0h-59q-25 0 -10 29l768 1421q8 14 26 14h7q20 0 24 -14l363 -1425q8 -25 -23 -25h-53q-23 0 -27 18l-94 377h-692l-197 -377q-10 -18 -33 -18z" />
    <glyph glyph-name="B" unicode="B" horiz-adv-x="1187" 
d="M588 86q143 0 242 99q100 99 100 231t-77 198q-77 68 -204 68h-325l-84 -596h348zM657 770q141 0 236 96q94 96 94 224t-65 190q-66 63 -179 63h-325l-80 -573h319zM360 1434h396q154 0 244 -87t90 -227t-72 -243q-72 -102 -178 -150q86 -29 140 -101t54 -186
q0 -192 -132 -316t-331 -124h-411q-27 0 -23 27l195 1380q4 27 28 27z" />
    <glyph glyph-name="C" unicode="C" horiz-adv-x="1349" 
d="M133 616q1 350 231 594t545 244q262 0 424 -190q16 -18 -2 -37l-35 -31q-18 -14 -34 2q-135 164 -363 164q-262 0 -462 -219t-199 -516q0 -231 135 -389t344 -158t399 172q20 16 33 4l39 -43q16 -16 -4 -35q-217 -198 -470 -198t-417 184t-164 452z" />
    <glyph glyph-name="D" unicode="D" horiz-adv-x="1400" 
d="M547 88q268 0 464 209t195 510q0 231 -135 385t-348 154h-305l-176 -1258h305zM358 1434h396q233 0 394 -182t161 -441q-1 -331 -227 -571t-529 -240h-395q-10 0 -17 8q-6 9 -4 19l195 1380q4 27 26 27z" />
    <glyph glyph-name="E" unicode="E" horiz-adv-x="1136" 
d="M360 1434h738q27 0 22 -27l-4 -35q-4 -27 -31 -26h-663l-80 -566h573q27 0 23 -26l-4 -35q-4 -27 -31 -27h-573l-86 -606h665q27 0 23 -27l-6 -32q-4 -27 -29 -27h-737q-27 0 -23 27l195 1380q4 27 28 27z" />
    <glyph glyph-name="F" unicode="F" horiz-adv-x="1097" 
d="M360 1434h738q27 0 22 -27l-4 -35q-4 -27 -31 -26h-663l-88 -623h581q27 0 23 -27l-4 -34q-4 -27 -31 -27h-581l-89 -608q-6 -27 -30 -27h-43q-27 0 -23 27l195 1380q4 27 28 27z" />
    <glyph glyph-name="G" unicode="G" horiz-adv-x="1402" 
d="M133 627q1 343 233 585t547 242q258 0 420 -190q16 -20 -4 -37l-37 -33q-18 -18 -35 0q-133 168 -360 168q-262 0 -461 -217t-198 -514q0 -233 134 -393t345 -160q102 0 199 33t145 65l47 33l49 362h-293q-16 1 -20 7t-2 20l6 41q4 25 29 25h366q9 0 17 -8t6 -17
l-62 -440q-4 -37 -46 -73t-172 -91t-279 -55q-242 0 -408 186t-166 461z" />
    <glyph glyph-name="H" unicode="H" horiz-adv-x="1433" 
d="M360 1434h46q27 0 22 -27l-90 -629h815l88 629q4 27 29 27h45q27 0 22 -27l-194 -1380q-4 -27 -29 -27h-45q-27 0 -22 27l94 665h-813l-95 -665q-4 -27 -30 -27h-43q-27 0 -23 27l195 1380q4 27 28 27z" />
    <glyph glyph-name="I" unicode="I" horiz-adv-x="524" 
d="M360 1434h46q27 0 22 -27l-192 -1380q-6 -27 -33 -27h-43q-27 0 -23 27l193 1380q4 27 30 27z" />
    <glyph glyph-name="J" unicode="J" horiz-adv-x="765" 
d="M664 1434h43q27 0 22 -27l-137 -975q-32 -215 -142 -334t-282 -119t-260 154q-10 18 6 35l29 22q23 18 34 0q86 -124 203 -124t204 94t112 270l137 977q4 27 31 27z" />
    <glyph glyph-name="K" unicode="K" horiz-adv-x="1126" 
d="M365 1434h38q31 0 27 -31l-90 -633l707 649q18 14 40 15h62q16 0 18 -12t-10 -23l-729 -670l559 -694q10 -7 2 -21t-28 -14h-50q-23 0 -41 20l-540 680l-94 -673q-2 -27 -35 -27h-41q-27 0 -23 27l195 1376q4 31 33 31z" />
    <glyph glyph-name="L" unicode="L" horiz-adv-x="913" 
d="M360 1434h48q10 0 16 -8t4 -19l-186 -1321h579q27 0 23 -27l-6 -36q-4 -23 -29 -23h-649q-27 0 -23 27l195 1380q4 27 28 27z" />
    <glyph glyph-name="M" unicode="M" horiz-adv-x="1607" 
d="M512 1454h18q12 0 15 -14l192 -1233h4l564 1233q6 14 18 14h18q16 0 17 -14l67 -1413q0 -27 -26 -27h-49q-20 0 -21 23l-41 1171h-4l-541 -1198q-8 -16 -24 -16h-8q-18 0 -21 16l-190 1198h-4l-375 -1171q-8 -23 -27 -23h-49q-26 0 -18 27l465 1413q4 14 20 14z" />
    <glyph glyph-name="N" unicode="N" horiz-adv-x="1460" 
d="M367 1454h30l703 -1272h4l168 1225q4 27 31 27h40q27 0 23 -27l-197 -1401q-2 -27 -34 -26h-33l-699 1275h-2l-172 -1228q-4 -27 -51 -27h-18q-27 0 -23 27l197 1400q6 27 33 27z" />
    <glyph glyph-name="O" unicode="O" horiz-adv-x="1570" 
d="M227 627q1 -233 139 -395t349 -162q264 0 467 216t202 515q0 235 -138 399t-349 164q-266 0 -468 -218t-202 -519zM133 614q0 346 228 593t548 247q242 0 406 -186t164 -455q-1 -346 -229 -590t-548 -243q-242 0 -406 184t-163 450z" />
    <glyph glyph-name="P" unicode="P" horiz-adv-x="1132" 
d="M639 604q147 0 262 125t115 295q0 133 -78 223t-199 90h-321l-103 -733h324zM360 1434h400q148 0 252 -118t104 -282q0 -212 -145 -368t-340 -156h-330l-68 -483q-4 -27 -36 -27h-37q-27 0 -23 27l195 1380q4 27 28 27z" />
    <glyph glyph-name="Q" unicode="Q" horiz-adv-x="1572" 
d="M229 627q-1 -233 137 -395t349 -162q264 0 467 216t202 515q0 235 -138 399t-349 164q-266 0 -467 -218t-201 -519zM133 614q0 346 228 593t548 247q242 0 406 -186t164 -454q-1 -268 -143 -482q-142 -213 -373 -305l163 -392q4 -8 -1 -19t-17 -11h-68q-16 0 -24 20
l-150 375q-74 -20 -164 -20q-242 0 -406 184t-163 450z" />
    <glyph glyph-name="R" unicode="R" horiz-adv-x="1236" 
d="M705 639q143 0 255 118t111 283q0 127 -76 213t-192 86h-383l-98 -700h383zM360 1434h461q145 0 249 -111t104 -277t-104 -302q-104 -134 -259 -177l190 -530q6 -13 1 -25t-21 -12h-59q-18 0 -25 18l-188 537q-25 -2 -76 -2h-326l-74 -526q-4 -27 -36 -27h-37
q-27 0 -23 27l195 1380q4 27 28 27z" />
    <glyph glyph-name="S" unicode="S" horiz-adv-x="1038" 
d="M655 1454q80 0 156 -27t111 -51l34 -26q20 -20 2 -43l-18 -25q-20 -27 -51 -6q-6 6 -24 17q-19 11 -32 19q-82 54 -190 54q-166 0 -258 -95t-92 -201t64 -171q65 -63 221 -138t243 -158q86 -83 86 -218q0 -178 -136 -292q-137 -114 -335 -114t-352 168q-20 20 0 43l25 25
q23 31 43 4q136 -153 290 -153t260 89t106 207t-72 182q-74 65 -192 125t-166 91t-93 74q-90 86 -89 231q2 145 118 267t341 122z" />
    <glyph glyph-name="T" unicode="T" horiz-adv-x="864" 
d="M141 1346q-25 0 -20 30l4 31q4 27 29 27h790q27 0 23 -27l-4 -35q-4 -27 -31 -26h-348l-185 -1319q-4 -27 -34 -27h-39q-27 0 -23 27l186 1319h-348z" />
    <glyph glyph-name="U" unicode="U" horiz-adv-x="1363" 
d="M346 1434h45q27 0 23 -27l-123 -875q-31 -202 56 -330t265 -128t301 128t152 328l125 877q4 27 31 27h43q10 0 16 -8t4 -19l-123 -885q-35 -240 -189 -392t-368 -150q-215 0 -330 153q-114 153 -81 389l124 885q4 27 29 27z" />
    <glyph glyph-name="V" unicode="V" horiz-adv-x="1222" 
d="M158 1434h55q14 0 18 -15l312 -1247h4l672 1247q10 14 24 15h57q31 0 15 -29l-762 -1407q-10 -18 -27 -18h-8q-18 0 -22 18l-359 1409q-6 27 21 27z" />
    <glyph glyph-name="W" unicode="W" horiz-adv-x="1673" 
d="M225 1434h49q16 0 21 -23l135 -1169h4l492 1194q8 18 22 18h13q18 0 20 -18l164 -1192h4l461 1167q8 23 26 23h54q29 0 20 -27l-565 -1413q-6 -14 -19 -14h-14q-16 0 -18 14l-168 1218h-4l-500 -1218q-6 -14 -19 -14h-14q-18 0 -18 14l-172 1413q-2 27 26 27z" />
    <glyph glyph-name="X" unicode="X" horiz-adv-x="1073" 
d="M12 0q-35 0 -12 31l500 704l-285 668q-10 29 23 31h49q16 0 22 -13l254 -610h2l420 610q8 12 29 13h63q13 0 19 -10t-4 -21l-476 -670l306 -702q6 -11 0 -21t-21 -10h-53q-20 0 -25 12l-274 639h-2l-443 -639q-10 -12 -26 -12h-66z" />
    <glyph glyph-name="Y" unicode="Y" horiz-adv-x="1048" 
d="M133 1434h57q16 0 23 -13l328 -628l508 628q12 12 28 13h68q16 0 20 -10t-6 -21l-577 -705l-95 -671q-4 -27 -30 -27h-41q-25 0 -23 27l92 669l-370 711q-12 27 18 27z" />
    <glyph glyph-name="Z" unicode="Z" horiz-adv-x="1005" 
d="M14 0q-29 0 -24 25l4 36l909 1276v6h-645q-25 0 -20 27l4 45q2 18 26 19h758q27 0 23 -25l-5 -35l-911 -1278v-6h666q27 0 22 -27l-4 -36q-4 -27 -31 -27h-772z" />
    <glyph glyph-name="bracketleft" unicode="[" horiz-adv-x="628" 
d="M393 -530q27 0 23 -27l-4 -31q-4 -27 -31 -26h-356q-27 0 -23 26l281 1995q4 27 30 27h357q27 0 22 -27l-4 -31q-4 -27 -31 -26h-295l-264 -1880h295z" />
    <glyph glyph-name="backslash" unicode="\" horiz-adv-x="620" 
d="M229 1434q18 0 23 -17l205 -1397q4 -20 -19 -20h-35q-18 0 -22 18l-207 1395q-2 20 19 21h36z" />
    <glyph glyph-name="bracketright" unicode="]" horiz-adv-x="628" 
d="M-74 -530h293l264 1880h-293q-27 0 -22 26l4 31q4 27 31 27h354q27 0 23 -27l-281 -1995q-4 -27 -31 -26h-354q-27 0 -23 26l5 31q3 27 30 27z" />
    <glyph glyph-name="asciicircum" unicode="^" horiz-adv-x="966" 
d="M121 819q-31 0 -6 33l469 596q10 14 22 14h2q10 0 19 -14l309 -596q8 -12 3 -22t-19 -11h-43q-23 0 -31 17l-250 491h-2l-387 -491q-12 -16 -33 -17h-53z" />
    <glyph glyph-name="underscore" unicode="_" horiz-adv-x="735" 
d="M-2 -20h575q27 0 23 -27l-4 -21q-4 -25 -29 -24h-575q-27 0 -23 24l2 21q4 27 31 27z" />
    <glyph glyph-name="grave" unicode="`" horiz-adv-x="557" 
d="M489 1147l-290 162q-16 10 -2 30l24 39q14 23 35 6l270 -184q16 -10 9 -29l-13 -18q-13 -14 -33 -6z" />
    <glyph glyph-name="a" unicode="a" 
d="M487 754q-139 0 -232 -116t-93 -282q0 -123 58 -208t155 -85q68 0 131 37t91 68t34 43l61 430q-18 43 -81 78q-62 35 -124 35zM666 0h-23q-29 0 -25 29l5 69q-31 -37 -103 -78t-164 -40q-124 0 -204 105t-80 259q0 205 124 350t293 146q61 0 130 -28t94 -71l16 56
q6 23 29 22h22q10 0 16 -8t5 -18l-107 -766q-4 -27 -28 -27z" />
    <glyph glyph-name="b" unicode="b" horiz-adv-x="925" 
d="M408 63q127 0 219 119q92 118 92 262t-66 226t-172 82q-57 0 -112 -22t-82 -42l-29 -22l-65 -459q19 -57 83 -101q64 -43 132 -43zM299 1434h39q27 0 22 -27l-92 -649q98 82 232 82t221 -104q88 -104 88 -259q0 -205 -120 -351t-286 -146q-92 0 -153 42t-80 78l-16 -73
q-8 -27 -33 -27h-21q-26 0 -22 27l194 1380q4 27 27 27z" />
    <glyph glyph-name="c" unicode="c" horiz-adv-x="866" 
d="M72 350q0 211 134 350q134 140 307 140t261 -127q10 -16 -10 -37l-16 -14q-23 -18 -41 4q-72 88 -201 88q-130 0 -236 -115t-106 -279q0 -127 70 -212t185 -85q114 0 228 125q20 20 39 5l25 -23q18 -14 2 -33q-45 -55 -126 -106t-201 -51t-217 107t-97 263z" />
    <glyph glyph-name="d" unicode="d" horiz-adv-x="925" 
d="M377 63q68 0 131 37t91 68t34 43l65 451q-28 35 -86 64q-57 28 -114 28q-138 0 -236 -117t-98 -287q0 -123 58 -205t155 -82zM74 344q0 209 123 352t305 144q59 0 111 -20t75 -42l23 -20l92 649q6 27 26 27h39q10 0 16 -8t5 -19l-193 -1380q-4 -27 -28 -27h-23
q-29 0 -24 29l4 69q-31 -37 -103 -78t-164 -40q-124 0 -204 105t-80 259z" />
    <glyph glyph-name="e" unicode="e" horiz-adv-x="847" 
d="M668 625q0 55 -50 92t-129 37q-115 0 -203 -83t-114 -210q196 -17 346 21t150 143zM72 342q0 205 122 351t306 147q108 0 182 -58t74 -149t-62 -147t-148 -76q-176 -40 -323 -31l-61 4q-12 -135 54 -227t180 -92q116 0 225 79q23 14 32 -4l19 -30q10 -18 -14 -40
t-105 -56q-82 -34 -174 -33q-139 0 -223 103t-84 259z" />
    <glyph glyph-name="f" unicode="f" horiz-adv-x="598" 
d="M111 739q-27 0 -23 27l4 27q4 27 29 26h110l41 291q25 170 111 257t217 87q62 0 116 -28t79 -60q12 -18 -2 -33l-25 -24q-18 -18 -35 0q-63 63 -133 63q-201 0 -240 -272l-38 -281h262q27 0 22 -24l-4 -31q-4 -25 -29 -25h-262l-188 -1327q-4 -27 -31 -26h-37
q-26 -1 -22 26l188 1327h-110z" />
    <glyph glyph-name="g" unicode="g" 
d="M162 374q0 -146 66 -228q66 -83 178 -83q55 0 124 31t95 66l67 479q-4 11 -27 36q-72 76 -178 79q-139 0 -232 -117t-93 -263zM72 344q0 205 124 350t293 146q61 0 130 -28t94 -71l16 56q6 23 29 22h22q10 0 16 -8t5 -18l-127 -936q-29 -205 -126 -297t-243 -92t-262 135
q-18 20 2 41l18 18q20 20 43 -2q111 -111 211 -111q223 0 271 322l24 186q-25 -25 -86 -51t-141 -26q-141 0 -227 104t-86 260z" />
    <glyph glyph-name="h" unicode="h" horiz-adv-x="944" 
d="M303 1434h35q27 0 22 -27l-98 -694q31 37 110 82t173 45q135 0 201 -98t40 -277l-61 -438q-4 -27 -31 -27h-37q-27 0 -22 27l61 438q20 141 -23 215q-44 74 -143 74q-70 0 -140 -37t-100 -65q-28 -28 -42 -44l-82 -581q-4 -27 -31 -27h-39q-22 0 -18 27l194 1380
q4 27 31 27z" />
    <glyph glyph-name="i" unicode="i" horiz-adv-x="395" 
d="M252 819q27 0 22 -26l-108 -766q-4 -27 -29 -27h-43q-22 0 -18 27l108 766q4 27 31 26h37zM306 1360q28 0 44 -18t16 -48q0 -29 -22 -51q-24 -22 -52 -22t-44 17t-16 46q0 28 23 52t51 24z" />
    <glyph glyph-name="j" unicode="j" horiz-adv-x="393" 
d="M250 819q27 0 22 -26l-149 -1074q-51 -354 -318 -354q-121 0 -198 88q-12 14 0 29l24 31q14 23 33 0q68 -63 150 -64q184 0 221 270l151 1074q4 27 29 26h35zM306 1360q28 0 44 -18t16 -48q0 -29 -22 -51q-24 -22 -52 -22t-44 17t-16 46q0 28 23 52t51 24z" />
    <glyph glyph-name="k" unicode="k" horiz-adv-x="804" 
d="M299 1434h39q27 0 22 -27l-129 -918l416 318q16 12 33 12h68q20 0 16 -18q-2 -8 -10 -15l-447 -335l371 -416q10 -11 3 -23t-19 -12h-48q-25 0 -39 16l-354 408l-55 -397q-4 -27 -31 -27h-39q-22 0 -18 27l194 1380q4 27 27 27z" />
    <glyph glyph-name="l" unicode="l" horiz-adv-x="397" 
d="M297 1434h43q10 0 17 -8t5 -19l-194 -1380q-4 -27 -31 -27h-41q-22 0 -18 27l194 1380q4 27 25 27z" />
    <glyph glyph-name="m" unicode="m" horiz-adv-x="1437" 
d="M240 819q18 0 18 -20l-2 -82q30 39 102 81t168 42q160 0 213 -144q31 41 118 92t185 52q140 0 200 -100t36 -275l-61 -438q-4 -27 -31 -27h-41q-23 0 -19 27l62 438q20 141 -22 215t-138 74q-131 0 -264 -142q8 -61 -4 -147l-62 -438q-4 -27 -30 -27h-39q-25 0 -21 27
l62 438q20 139 -22 214t-124 75t-163 -43t-111 -101l-82 -583q-6 -27 -31 -27h-41q-22 0 -18 27l106 766q4 27 31 26h25z" />
    <glyph glyph-name="n" unicode="n" horiz-adv-x="942" 
d="M236 819q23 0 22 -20l-4 -82q31 37 112 80t177 43q145 0 205 -100t36 -275l-61 -438q-4 -27 -31 -27h-37q-27 0 -22 27l61 438q20 141 -23 215q-44 74 -147 74q-66 0 -151 -44t-127 -100l-82 -583q-4 -27 -31 -27h-39q-22 0 -18 27l108 766q4 27 31 26h21z" />
    <glyph glyph-name="o" unicode="o" horiz-adv-x="937" 
d="M496 754q-134 0 -234 -117t-100 -261t66 -228q66 -85 169 -85q133 0 233 118q99 119 99 261t-65 227q-66 85 -168 85zM72 350q0 201 128 345t308 145q133 0 223 -109t90 -262q0 -201 -129 -345t-305 -144q-133 0 -224 108t-91 262z" />
    <glyph glyph-name="p" unicode="p" horiz-adv-x="925" 
d="M375 63q143 0 242 118t100 288q-1 123 -61 204t-167 81q-61 0 -137 -36t-100 -77l-66 -477q2 -8 22 -30t66 -46q47 -24 101 -25zM12 -614q-27 0 -22 26l194 1381q4 27 31 26h23q23 0 22 -20l-2 -56q42 42 116 69q74 28 134 28q131 0 216 -106t85 -259q0 -207 -129 -351
t-307 -144q-79 0 -133 28t-72 55l-90 -651q-4 -27 -31 -26h-35z" />
    <glyph glyph-name="q" unicode="q" 
d="M162 374q0 -146 66 -228q66 -83 178 -83q55 0 124 31t95 66l67 479q-4 11 -27 36q-72 76 -178 79q-139 0 -232 -117t-93 -263zM72 344q0 205 122 350t295 146q61 0 130 -28t94 -71l16 56q6 23 29 22h22q10 0 16 -8t5 -18l-193 -1381q-4 -27 -28 -26h-37q-27 0 -23 26
l92 645q-25 -25 -86 -51t-141 -26q-135 0 -224 105t-89 259z" />
    <glyph glyph-name="r" unicode="r" horiz-adv-x="624" 
d="M240 819q20 0 20 -22l-4 -78q24 37 90 79t140 42t114 -20q39 -20 27 -42l-21 -41q-12 -23 -35 -10q-45 27 -98 27t-125 -44t-100 -100l-82 -583q-4 -27 -29 -27h-43q-22 0 -18 27l108 766q4 27 29 26h27z" />
    <glyph glyph-name="s" unicode="s" horiz-adv-x="708" 
d="M483 219q0 37 -26 69q-27 32 -57 49t-110 56t-129 89q-50 50 -50 133t69 154q70 71 193 71t209 -66q20 -14 4 -37l-19 -26q-16 -23 -37 -6q-72 51 -156 51t-130 -45q-45 -45 -45 -97t38 -85q38 -35 106 -67q107 -51 169 -95q61 -44 61 -146q0 -101 -84 -171t-213 -70
t-227 92q-14 14 -4 28l27 33q14 23 29 7q71 -78 205 -80q64 0 121 45q56 46 56 114z" />
    <glyph glyph-name="t" unicode="t" horiz-adv-x="632" 
d="M117 739q-25 0 -19 27l4 33q2 20 27 20h88l31 223q4 27 31 27l34 2q27 0 23 -27l-31 -225h248q27 0 22 -26l-4 -27q-4 -27 -28 -27h-250l-74 -522q-12 -72 0 -111q12 -38 77 -38t159 57q18 12 30 -8l15 -27q10 -20 -11 -35q-111 -75 -216 -75t-132 59q-26 59 -10 172
l76 528h-90z" />
    <glyph glyph-name="u" unicode="u" 
d="M352 -20q-145 0 -205 97q-59 97 -34 275l61 441q4 27 29 26h39q27 0 22 -26l-63 -441q-19 -141 25 -215t145 -74q68 0 149 46t111 100l82 584q4 27 28 26h39q10 0 16 -8t5 -18l-107 -766q-4 -27 -30 -27h-25q-20 0 -21 25l5 73q-25 -34 -100 -76t-171 -42z" />
    <glyph glyph-name="v" unicode="v" horiz-adv-x="770" 
d="M82 819h43q16 0 22 -18l162 -658h2l357 658q10 18 28 18h47q31 0 13 -31l-430 -790q-10 -18 -27 -18h-10q-17 0 -21 18l-205 790q-8 31 19 31z" />
    <glyph glyph-name="w" unicode="w" horiz-adv-x="1138" 
d="M125 819h41q20 0 22 -18l82 -617h4l301 637q8 18 25 19h8q16 0 19 -19l129 -637h2l252 617q8 18 28 18h47q27 0 13 -33l-334 -788q-10 -18 -25 -18h-8q-14 0 -16 18l-131 659h-2l-316 -659q-8 -18 -24 -18h-9q-12 0 -16 18l-113 788q-8 33 21 33z" />
    <glyph glyph-name="x" unicode="x" horiz-adv-x="792" 
d="M10 0q-12 0 -16 9t6 20l326 395l-203 367q-8 10 -2 19t18 9h51q14 0 25 -18l166 -309h2l252 309q16 18 33 18h57q12 0 16 -9t-6 -19l-309 -373l215 -389q8 -9 2 -19t-18 -10h-56q-12 0 -22 18l-176 336h-2l-269 -336q-14 -18 -32 -18h-58z" />
    <glyph glyph-name="y" unicode="y" horiz-adv-x="835" 
d="M80 819h43q16 0 22 -18l205 -695h4l381 695q10 18 29 18h45q14 0 18 -10t-4 -23l-770 -1384q-10 -16 -28 -16h-43q-31 0 -15 28l330 594l-238 778q-8 33 21 33z" />
    <glyph glyph-name="z" unicode="z" horiz-adv-x="702" 
d="M16 0q-25 0 -20 23l4 22l522 690v2h-368q-25 0 -21 27l4 29q6 27 27 26h475q16 0 21 -12t-5 -27l-520 -694v-4h369q27 0 22 -27l-4 -28q-4 -27 -28 -27h-478z" />
    <glyph glyph-name="braceleft" unicode="{" horiz-adv-x="696" 
d="M708 1454q44 0 50 -5q8 -5 6 -15l-6 -35q-4 -16 -21 -19q-334 -27 -389 -424l-45 -325q-8 -63 -55 -136t-94 -89v-3q106 -84 88 -206l-47 -334q-55 -397 270 -424q18 -4 16 -25l-4 -26q-4 -23 -31 -23q-158 0 -262 106q-52 55 -74 155t-4 235l48 336q6 18 2 36
q-4 19 -3 31t-9 26t-11 22q-6 21 -33 37q-26 15 -29 17l-26 13q-18 8 -14 24l4 23q1 14 35 24t84 56t61 125l45 327q50 370 332 470q72 26 116 26z" />
    <glyph glyph-name="bar" unicode="|" horiz-adv-x="389" 
d="M340 1554q25 0 18 -26l-297 -2118q-4 -25 -28 -24h-10q-27 -1 -23 24l297 2118q6 27 31 26h12z" />
    <glyph glyph-name="braceright" unicode="}" horiz-adv-x="704" 
d="M219 1454q168 0 271 -119t65 -377l-49 -327q-10 -80 26 -126t80 -59q16 -6 17 -20l-2 -27q0 -10 -24 -20q-100 -42 -133 -103q-19 -35 -26 -79l-49 -336q-39 -258 -177 -377t-306 -119q-29 0 -25 23l4 30q2 20 25 25q156 11 259 119t132 301l47 340q18 139 144 211v2
q-43 22 -67 89q-23 68 -15 132l51 319q57 395 -270 422q-14 2 -15 19l6 37q2 20 31 20z" />
    <glyph glyph-name="asciitilde" unicode="~" horiz-adv-x="1089" 
d="M715 537q102 0 196 155q12 20 35 6l31 -18q12 -10 4 -26q-66 -127 -180 -180q-45 -22 -92 -21q-92 0 -197 127q-14 16 -19 22t-31 28t-72 23q-46 0 -95 -38t-70 -66q-20 -29 -33 -55t-38 -5l-23 21q-12 12 -4 26q71 129 180 180q45 22 92 21q95 0 177 -100t139 -100z" />
    <glyph glyph-name="uni00A0" unicode="&#xa0;" horiz-adv-x="497" 
d="M457 1143l-289 157q-27 14 -12 37l24 41q12 23 33 6l279 -178q18 -12 8 -28l-17 -27q-10 -16 -26 -8z" />
    <glyph glyph-name="exclamdown" unicode="&#xa1;" horiz-adv-x="460" 
d="M193 268q10 0 17 -7t5 -17l-96 -832q-2 -27 -33 -26h-53q-27 0 -23 26l137 832q8 25 29 24h17zM262 840q34 0 52 -20q20 -20 20 -56t-28 -62t-61 -26q-34 0 -52 20q-19 20 -19 56t27 62t61 26z" />
    <glyph glyph-name="cent" unicode="&#xa2;" horiz-adv-x="835" 
d="M487 754q-137 0 -241 -115t-105 -279q0 -90 36 -162t95 -104l246 656q-16 4 -31 4zM49 348q0 209 132 350t319 142q31 0 55 -6l31 81q8 20 28 19l15 -4q25 -6 14 -33l-31 -78q88 -31 142 -108q10 -16 -11 -37l-22 -21q-18 -16 -39 6q-59 59 -104 76l-248 -663
q27 -6 82 -6t109 33t78 58q25 25 30 27q20 20 39 4l18 -16q20 -16 4 -35q-41 -53 -127 -105t-184 -52q-43 0 -84 12l-70 -187q-8 -20 -30 -16l-15 2q-25 4 -12 31l70 188q-86 41 -138 132q-51 91 -51 206z" />
    <glyph glyph-name="sterling" unicode="&#xa3;" horiz-adv-x="987" 
d="M700 682q27 0 23 -29l-2 -14q-2 -20 -29 -21h-346q2 -66 -12 -165q-31 -199 -117 -369h535q27 0 22 -29l-4 -30q-4 -25 -27 -25h-622q-25 0 -19 47q127 242 146 406q8 70 8 165h-80q-25 0 -20 29l2 15q4 20 28 20h64l-17 256q0 244 125 380t318 136q108 0 192 -51
t107 -98q10 -25 -12 -45l-19 -19q-23 -23 -37 -3t-39 47t-84 55t-125 28q-137 0 -236 -116t-99 -310l16 -260h360z" />
    <glyph glyph-name="currency" unicode="&#xa4;" horiz-adv-x="946" 
d="M518 854q-68 0 -128 -57t-72 -139t30 -139q43 -56 111 -57t127 56t72 139t-29 140q-43 57 -111 57zM445 383q-81 0 -136 53l-104 -104q-21 -20 -39 0l-19 20q-14 18 5 37l112 109q-40 72 -26 162t71 159l-82 107q-14 18 9 37l22 22q23 20 35 4l80 -108q75 55 153 54
t136 -56l112 108q4 6 16 5t19 -11l14 -18q16 -23 -4 -39l-110 -105q39 -72 27 -161t-70 -158l77 -105q12 -18 -8 -39l-24 -22q-20 -18 -33 -2l-80 104q-72 -53 -153 -53z" />
    <glyph glyph-name="yen" unicode="&#xa5;" horiz-adv-x="1159" 
d="M213 285q-25 0 -20 24l2 17q4 23 26 22h271l26 180h-270q-25 0 -21 25l2 16q4 23 27 23h270l15 104l-367 707q-8 12 -2 21t23 10h57q18 0 24 -13l318 -633l504 633q8 12 26 13h78q16 0 20 -10t-8 -21l-577 -705l-14 -106h270q25 0 20 -27l-2 -14q-4 -23 -28 -23h-269
l-26 -180h270q25 0 21 -26l-2 -13q-4 -25 -27 -24h-270l-37 -258q-4 -27 -29 -27h-47q-25 0 -21 27l37 258h-270z" />
    <glyph glyph-name="brokenbar" unicode="&#xa6;" horiz-adv-x="745" 
d="M326 145q25 0 20 -26l-100 -709q-4 -25 -29 -24h-10q-27 0 -23 24l101 709q4 27 28 26h13zM406 795q-27 0 -23 26l98 707q6 27 31 26h12q25 0 19 -26l-99 -707q-4 -27 -30 -26h-8z" />
    <glyph glyph-name="section" unicode="&#xa7;" horiz-adv-x="1013" 
d="M205 559q0 -96 61 -156q62 -59 176 -105t199 -105l31 28q31 27 50 49q58 69 58 161q0 91 -72 153q-73 60 -204 114t-176 88q-2 -2 -33 -28q-38 -32 -64 -87q-26 -56 -26 -112zM379 -385q125 0 226 80q101 79 101 193t-74 184q-75 70 -221 128t-225 139q-78 81 -78 201
t70 200q37 45 65 70q27 24 27 28t-13 21t-35 55q-40 71 -40 153q0 143 115 265t334 122q77 0 153 -27t113 -51l35 -26q27 -14 2 -41l-25 -31q-18 -23 -41 -8l-40 28q-105 70 -210 70q-168 0 -254 -92t-88 -207q0 -178 252 -274q178 -68 268 -147t89 -206q0 -92 -51 -161
t-86 -100q-36 -32 -38 -35t22 -31q23 -27 31 -45q44 -92 44 -164q0 -162 -131 -270t-311 -107q-91 0 -179 38q-88 39 -124 69t-56 55q-18 25 0 43l31 33q23 23 37 3q49 -68 137 -111q88 -44 168 -44z" />
    <glyph glyph-name="dieresis" unicode="&#xa8;" horiz-adv-x="763" 
d="M288 1221q-30 0 -46 17t-16 46q0 28 23 52q24 24 54 24q57 0 57 -62q0 -33 -21 -55t-51 -22zM580 1284q0 28 22 52t52 24q28 0 45 -18t17 -47q0 -30 -22 -52q-24 -22 -53 -22t-45 17t-16 46z" />
    <glyph glyph-name="copyright" unicode="&#xa9;" horiz-adv-x="1566" 
d="M465 662q0 182 121 311t288 129q127 0 203 -78q18 -18 -2 -39l-22 -22q-14 -18 -35 -2q-57 59 -167 59t-202 -104t-92 -229q1 -126 63 -201q62 -74 154 -74t174 63q27 16 37 -4l16 -25q10 -20 -8 -34q-96 -88 -224 -88t-216 100t-88 238zM211 629q0 -238 142 -404
t358 -166q270 -1 477 221t207 525q-1 239 -143 403t-357 164q-268 0 -476 -220t-208 -523zM131 618q1 340 233 588t543 248q238 0 404 -188t166 -453q1 -340 -233 -587t-544 -246q-240 0 -404 186t-165 452z" />
    <glyph glyph-name="ordfeminine" unicode="&#xaa;" horiz-adv-x="618" 
d="M209 1014q0 -125 99 -125q48 -1 100 27t77 61l23 170q-51 23 -125 23t-124 -48q-50 -47 -50 -108zM305 825q-162 0 -162 181q0 89 70 154t169 65t136 -23q18 96 3 141t-89 45t-143 -34q-11 -6 -21 -9t-16 9t-6 29t18 26q76 45 170 45t128 -37t32 -99t-10 -142l-45 -316
q-4 -20 -23 -20h-22q-16 0 -17 16v47q-92 -78 -172 -78z" />
    <glyph glyph-name="guillemotleft" unicode="&#xab;" horiz-adv-x="772" 
d="M348 776h33q12 0 14 -11t-8 -26l-211 -313l121 -322q6 -14 1 -25t-15 -11h-35q-19 0 -29 18l-149 322q-8 18 6 34l237 316q14 18 35 18zM643 776h33q12 0 14 -11t-8 -26l-211 -313l121 -322q6 -14 1 -25t-15 -11h-35q-19 0 -29 18l-149 322q-8 18 6 34l237 316
q14 18 35 18z" />
    <glyph glyph-name="logicalnot" unicode="&#xac;" horiz-adv-x="993" 
d="M125 670q-25 0 -21 26l5 33q4 27 28 27h709q23 0 18 -27l-57 -412q-4 -25 -29 -24h-28q-25 0 -21 24l49 353h-653z" />
    <glyph glyph-name="uni00AD" unicode="&#xad;" horiz-adv-x="643" 
d="M180 473q-25 0 -20 27l2 22q4 27 28 27h410q27 0 23 -27l-2 -22q-4 -27 -31 -27h-410z" />
    <glyph glyph-name="registered" unicode="&#xae;" horiz-adv-x="1566" 
d="M858 707q70 0 122 51t52 135q0 131 -155 131h-185l-45 -317h211zM645 1098h268q83 0 143 -51t60 -157t-62 -172t-143 -81l88 -262q4 -11 -1 -21t-19 -10h-43q-18 0 -25 21l-82 266h-192l-37 -262q-4 -27 -29 -27h-32q-25 0 -21 27l98 702q4 27 29 27zM211 629
q0 -238 142 -404t358 -166q270 -1 477 221t207 525q-1 239 -143 403t-357 164q-268 0 -476 -220t-208 -523zM131 618q1 340 233 588t543 248q238 0 404 -188t166 -453q1 -340 -233 -587t-544 -246q-240 0 -404 186t-165 452z" />
    <glyph glyph-name="macron" unicode="&#xaf;" horiz-adv-x="763" 
d="M102 1219q-27 0 -22 24l4 27q4 27 29 26h495q27 0 23 -26l-4 -27q-4 -25 -29 -24h-496z" />
    <glyph glyph-name="degree" unicode="&#xb0;" horiz-adv-x="665" 
d="M393 963q73 -1 139 71t66 156t-45 138t-118 54t-139 -70t-67 -156q0 -85 45 -139t119 -54zM386 891q-106 0 -166 71q-60 70 -60 188t88 212t194 94t167 -71q63 -71 63 -187t-90 -212q-90 -95 -196 -95z" />
    <glyph glyph-name="plusminus" unicode="&#xb1;" horiz-adv-x="1169" 
d="M180 152q-10 0 -16 8t-4 18l4 31q4 27 29 27h710q20 0 17 -27l-5 -31q-4 -27 -24 -26h-711zM565 498q-25 0 -20 26l37 258h-312q-10 0 -17 8t-5 19l6 31q4 27 27 26h311l49 344q4 25 29 25h39q25 0 20 -25l-49 -344h311q23 0 19 -26l-6 -31q-4 -27 -23 -27h-311l-37 -258
q-4 -27 -29 -26h-39z" />
    <glyph glyph-name="twosuperior" unicode="&#xb2;" horiz-adv-x="604" 
d="M197 1032q-14 0 -15 17l2 18l289 266q74 70 82 127t-19 94q-28 37 -88 37t-131 -69q-12 -12 -20 0l-25 24q-11 11 15 36t75 51t99 26q86 0 132 -54t35 -140t-106 -171l-219 -198h256q14 0 12 -17l-4 -30q0 -16 -16 -17h-354z" />
    <glyph glyph-name="threesuperior" unicode="&#xb3;" horiz-adv-x="598" 
d="M358 1012q-106 0 -174 84q-10 10 4 22l23 23q14 14 22 0q1 -3 9 -11q49 -56 121 -55q71 0 113 33t49 83t-23 84q-31 34 -103 34h-84q-16 0 -12 20l4 25q0 16 17 16h84q125 0 143 113q6 51 -23 81q-28 30 -88 30t-133 -62q-10 -14 -18 -2l-21 22q-8 12 1 22t25 24
q16 13 65 37q50 24 114 24t114 -46q50 -45 42 -107t-43 -103t-76 -60q12 -4 30 -14t43 -50q26 -40 17 -91q-10 -78 -72 -127q-64 -49 -170 -49z" />
    <glyph glyph-name="acute" unicode="&#xb4;" horiz-adv-x="557" 
d="M217 1145q-25 -10 -31 6l-8 23q-6 16 17 28l321 184q25 12 33 -6l18 -43q6 -20 -12 -30z" />
    <glyph glyph-name="mu" unicode="&#xb5;" horiz-adv-x="956" 
d="M14 -614q-27 0 -22 26l194 1381q4 27 29 26h39q27 0 22 -26l-63 -441q-20 -141 25 -214t145 -72q68 0 148 44t112 99l82 584q4 27 29 26h39q10 0 16 -8t4 -18l-106 -766q-4 -27 -31 -27h-25q-20 0 -20 25l4 73q-25 -34 -99 -76t-171 -42q-132 -1 -195 79l-92 -647
q-4 -27 -33 -26h-31z" />
    <glyph glyph-name="paragraph" unicode="&#xb6;" horiz-adv-x="1271" 
d="M418 580q-160 0 -244 127t-59 301t147 300q123 126 277 126h788q25 0 21 -27l-5 -25q-4 -27 -28 -26h-187l-272 -1944q-4 -27 -29 -26h-30q-20 0 -19 26l273 1944h-314l-272 -1944q-4 -27 -27 -26h-30q-23 -1 -21 26l164 1168h-133z" />
    <glyph glyph-name="periodcentered" unicode="&#xb7;" horiz-adv-x="473" 
d="M236 453q-34 -1 -54 21t-20 56t28 60q29 26 63 26t52 -20q19 -20 19 -55t-27 -61t-61 -27z" />
    <glyph glyph-name="cedilla" unicode="&#xb8;" horiz-adv-x="456" 
d="M418 -294q0 -82 -60 -148t-153 -66q-51 0 -88 22t-47 48t6 37l20 16q14 6 18 4t13 -16q29 -37 86 -37t91 41t34 98q0 100 -150 123q-25 6 -20 27l20 145h74l-16 -111q70 -8 121 -54t51 -129z" />
    <glyph glyph-name="onesuperior" unicode="&#xb9;" horiz-adv-x="372" 
d="M264 1032q-16 0 -12 17l70 489l-97 -53q-12 -6 -16 4l-8 27q-4 12 8 22l156 100h22q18 0 16 -16l-79 -573q-4 -16 -17 -17h-43z" />
    <glyph glyph-name="ordmasculine" unicode="&#xba;" horiz-adv-x="632" 
d="M357 874q153 0 189 257t-118 258q-74 0 -123 -69t-65 -192q-36 -254 117 -254zM438 1454q106 0 154 -86t28 -238q-22 -152 -95 -238t-178 -85q-105 0 -153 86q-48 87 -26 237t92 237q72 87 178 87z" />
    <glyph glyph-name="guillemotright" unicode="&#xbb;" horiz-adv-x="770" 
d="M49 68q-27 0 -4 36l211 322l-123 313q-6 13 -1 25t18 12h32q18 0 29 -18l149 -316q8 -14 -4 -34l-239 -322q-14 -18 -35 -18h-33zM344 68q-27 0 -4 36l211 322l-123 313q-6 13 -1 25t17 12h33q18 0 29 -18l149 -316q8 -14 -4 -34l-239 -322q-14 -18 -35 -18h-33z" />
    <glyph glyph-name="onequarter" unicode="&#xbc;" horiz-adv-x="1261" 
d="M723 211h203l37 258zM1038 606q6 0 12 -5t5 -13l-54 -379h72q18 0 14 -16l-4 -33q-4 -16 -18 -17h-72l-18 -125q-4 -18 -21 -18h-39q-6 0 -12 5t-4 13l16 123h-301q-16 1 -12 19l2 18l408 428h26zM268 827q-16 0 -12 17l70 489l-97 -53q-12 -6 -16 4l-8 27q-4 12 8 22
l156 101h22q18 0 17 -17l-80 -573q-4 -16 -17 -17h-43zM1036 1434q12 0 16 -8t-3 -21l-887 -1385q-14 -20 -35 -20h-35q-12 0 -16 8t4 21l891 1390q8 14 28 15h37z" />
    <glyph glyph-name="onehalf" unicode="&#xbd;" horiz-adv-x="1275" 
d="M933 559q-60 0 -130 -70q-12 -12 -21 0l-24 25q-10 10 15 36q25 25 75 51t98 26q86 -1 132 -55t35 -140t-105 -170l-220 -199h256q14 0 13 -16l-4 -31q0 -16 -17 -16h-354q-14 0 -14 16l2 19l288 266q74 70 82 127t-19 94q-28 37 -88 37zM268 827q-16 0 -12 17l70 489
l-97 -53q-12 -6 -16 4l-8 27q-4 12 8 22l156 101h22q18 0 17 -17l-80 -573q-4 -16 -17 -17h-43zM1036 1434q12 0 16 -8t-3 -21l-887 -1385q-14 -20 -35 -20h-35q-12 0 -16 8t4 21l891 1390q8 14 28 15h37z" />
    <glyph glyph-name="threequarters" unicode="&#xbe;" horiz-adv-x="1404" 
d="M866 211h203l37 258zM1182 606q6 0 12 -5t4 -13l-53 -379h72q18 0 14 -16l-4 -33q-4 -16 -19 -17h-71l-19 -125q-4 -18 -20 -18h-39q-6 0 -12 5t-5 13l17 123h-301q-17 1 -13 19l3 18l407 428h27zM1180 1434q12 0 16 -8t-4 -21l-887 -1385q-14 -20 -35 -20h-34
q-12 0 -17 8q-4 9 4 21l891 1390q8 14 29 15h37zM318 807q-106 0 -175 84q-10 10 4 22l23 23q14 14 21 4q33 -44 69 -57q35 -13 84 -13t91 33t49 83t-23 84q-31 34 -103 34h-84q-16 0 -12 20l4 25q0 16 17 16h84q125 0 143 113q6 51 -23 81t-88 30t-133 -62q-10 -14 -18 -2
l-21 23q-8 12 1 22q8 10 24 24t66 37t114 23t114 -46t42 -108t-43 -102q-35 -41 -76 -59q39 -13 69 -59t21 -97q-11 -78 -73 -127t-168 -49z" />
    <glyph glyph-name="questiondown" unicode="&#xbf;" horiz-adv-x="485" 
d="M190 260h35q27 0 25 -29l-17 -118q-12 -102 -131 -189q-8 -6 -46 -34t-50 -38q-112 -88 -131 -166q-8 -32 -8 -61q0 -70 47 -123t125 -53q79 0 143 32q64 33 90 59t41 48q14 22 37 6l29 -20q18 -14 2 -39l-12 -18q-8 -12 -40 -41q-120 -109 -288 -110q-127 -1 -198 71
t-70 174q0 160 162 291q88 64 118 88q84 66 92 125l17 116q4 29 28 29zM263 676q-34 0 -54 20q-21 20 -21 54t29 62t62 28t52 -22t19 -56t-26 -60q-27 -26 -61 -26z" />
    <glyph glyph-name="Agrave" unicode="&#xc0;" horiz-adv-x="1230" 
d="M911 1604l-290 161q-16 10 -3 31l25 39q12 20 35 6l270 -184q16 -10 8 -29l-12 -18q-13 -14 -33 -6zM295 475h623l-191 825h-6zM18 0h-59q-25 0 -10 29l768 1421q8 14 26 14h7q20 0 24 -14l363 -1425q8 -25 -23 -25h-53q-23 0 -27 18l-94 377h-692l-197 -377
q-10 -18 -33 -18z" />
    <glyph glyph-name="Aacute" unicode="&#xc1;" horiz-adv-x="1230" 
d="M633 1599q-25 -10 -31 7l-8 22q-6 16 16 29l322 184q25 12 33 -6l18 -43q6 -20 -12 -31zM295 475h623l-191 825h-6zM18 0h-59q-25 0 -10 29l768 1421q8 14 26 14h7q20 0 24 -14l363 -1425q8 -25 -23 -25h-53q-23 0 -27 18l-94 377h-692l-197 -377q-10 -18 -33 -18z" />
    <glyph glyph-name="Acircumflex" unicode="&#xc2;" horiz-adv-x="1230" 
d="M794 1839q10 0 21 -10l197 -201q16 -16 4 -29l-15 -16q-16 -16 -30 -4l-183 166l-231 -172q-18 -12 -31 4l-14 22q-8 14 8 29l252 201q12 10 22 10zM295 475h623l-191 825h-6zM18 0h-59q-25 0 -10 29l768 1421q8 14 26 14h7q20 0 24 -14l363 -1425q8 -25 -23 -25h-53
q-23 0 -27 18l-94 377h-692l-197 -377q-10 -18 -33 -18z" />
    <glyph glyph-name="Atilde" unicode="&#xc3;" horiz-adv-x="1230" 
d="M690 1851q49 -1 77 -29t39 -64q28 -93 77 -93q68 0 114 121q10 25 31 14l25 -8q14 -10 8 -27q-66 -176 -191 -176q-42 0 -70 30q-28 31 -40 65q-33 94 -76 94q-70 0 -121 -129q-8 -23 -28 -13l-23 11q-18 6 -8 28q0 14 45 88q15 25 54 56q38 32 87 32zM295 475h623
l-191 825h-6zM18 0h-59q-25 0 -10 29l768 1421q8 14 26 14h7q20 0 24 -14l363 -1425q8 -25 -23 -25h-53q-23 0 -27 18l-94 377h-692l-197 -377q-10 -18 -33 -18z" />
    <glyph glyph-name="Adieresis" unicode="&#xc4;" horiz-adv-x="1230" 
d="M582 1640q-29 0 -45 18q-17 18 -17 46t24 52t52 24t45 -18q16 -18 16 -47q0 -31 -23 -53t-52 -22zM967 1640q-29 0 -45 18t-16 46t23 52q25 24 53 24t44 -18t16 -47q0 -31 -23 -53t-52 -22zM295 475h623l-191 825h-6zM18 0h-59q-25 0 -10 29l768 1421q8 14 26 14h7
q20 0 24 -14l363 -1425q8 -25 -23 -25h-53q-23 0 -27 18l-94 377h-692l-197 -377q-10 -18 -33 -18z" />
    <glyph glyph-name="Aring" unicode="&#xc5;" horiz-adv-x="1230" 
d="M779 1610q56 0 100 51q43 51 43 113t-31 100q-31 39 -87 39t-100 -50q-44 -51 -44 -113t31 -101q32 -39 88 -39zM991 1780q1 -92 -65 -164t-152 -72t-134 53t-48 145t66 166q67 72 153 72t133 -54t47 -146zM295 475h623l-191 825h-6zM18 0h-59q-25 0 -10 29l768 1421
q8 14 26 14h7q20 0 24 -14l363 -1425q8 -25 -23 -25h-53q-23 0 -27 18l-94 377h-692l-197 -377q-10 -18 -33 -18z" />
    <glyph glyph-name="AE" unicode="&#xc6;" horiz-adv-x="1710" 
d="M340 475h436l109 782zM-12 0h-60q-29 0 -2 35l967 1364q27 35 57 35h721q27 0 23 -27l-4 -33q-4 -27 -31 -26h-672l-80 -568h578q37 0 31 -30l-5 -27q-4 -31 -32 -31h-584l-84 -606h672q29 0 22 -31l-6 -28q-4 -27 -29 -27h-735q-27 0 -22 27l51 368h-481l-260 -377
q-17 -18 -35 -18z" />
    <glyph glyph-name="Ccedilla" unicode="&#xc7;" horiz-adv-x="1353" 
d="M846 -294q0 -82 -60 -148t-153 -66q-51 0 -88 22t-47 48t6 37l20 16q14 6 18 4t13 -16q27 -37 85 -37t92 41t34 98q0 100 -150 123q-24 7 -20 27l18 133q-211 37 -345 213t-134 415q1 350 231 594t545 244q262 0 424 -190q16 -18 -2 -37l-35 -31q-18 -14 -34 2
q-135 164 -363 164q-262 0 -462 -219t-199 -516q0 -231 135 -389t344 -158t399 172q20 16 33 4l39 -43q14 -16 -4 -35q-217 -199 -475 -198l-25 2l-12 -93q70 -8 121 -54t51 -129z" />
    <glyph glyph-name="Egrave" unicode="&#xc8;" horiz-adv-x="1136" 
d="M883 1604l-291 161q-16 10 -2 31l24 39q12 20 35 6l271 -184q16 -10 8 -29l-13 -18q-12 -14 -32 -6zM360 1434h738q27 0 22 -27l-4 -35q-4 -27 -31 -26h-663l-80 -566h573q27 0 23 -26l-4 -35q-4 -27 -31 -27h-573l-86 -606h665q27 0 23 -27l-6 -32q-4 -27 -29 -27h-737
q-27 0 -23 27l195 1380q4 27 28 27z" />
    <glyph glyph-name="Eacute" unicode="&#xc9;" horiz-adv-x="1136" 
d="M604 1599q-25 -10 -31 7l-8 22q-6 16 17 29l321 184q25 12 33 -6l18 -43q6 -20 -12 -31zM360 1434h738q27 0 22 -27l-4 -35q-4 -27 -31 -26h-663l-80 -566h573q27 0 23 -26l-4 -35q-4 -27 -31 -27h-573l-86 -606h665q27 0 23 -27l-6 -32q-4 -27 -29 -27h-737
q-27 0 -23 27l195 1380q4 27 28 27z" />
    <glyph glyph-name="Ecircumflex" unicode="&#xca;" horiz-adv-x="1136" 
d="M758 1839q10 0 20 -10l197 -201q16 -16 4 -29l-14 -16q-16 -16 -31 -4l-182 166l-232 -172q-18 -12 -31 4l-14 22q-8 14 8 29l252 201q13 10 23 10zM360 1434h738q27 0 22 -27l-4 -35q-4 -27 -31 -26h-663l-80 -566h573q27 0 23 -26l-4 -35q-4 -27 -31 -27h-573l-86 -606
h665q27 0 23 -27l-6 -32q-4 -27 -29 -27h-737q-27 0 -23 27l195 1380q4 27 28 27z" />
    <glyph glyph-name="Edieresis" unicode="&#xcb;" horiz-adv-x="1136" 
d="M553 1640q-29 0 -45 18t-16 46t24 52t52 24t44 -18t16 -47q0 -31 -22 -53q-24 -22 -53 -22zM938 1640q-29 0 -45 18t-16 46q-1 28 23 52t52 24t45 -18t17 -47q0 -31 -24 -53t-52 -22zM360 1434h738q27 0 22 -27l-4 -35q-4 -27 -31 -26h-663l-80 -566h573q27 0 23 -26
l-4 -35q-4 -27 -31 -27h-573l-86 -606h665q27 0 23 -27l-6 -32q-4 -27 -29 -27h-737q-27 0 -23 27l195 1380q4 27 28 27z" />
    <glyph glyph-name="Igrave" unicode="&#xcc;" horiz-adv-x="524" 
d="M547 1604l-291 161q-16 10 -2 31l25 39q12 20 34 6l271 -184q16 -10 8 -29l-12 -18q-13 -14 -33 -6zM360 1434h46q27 0 22 -27l-192 -1380q-6 -27 -33 -27h-43q-27 0 -23 27l193 1380q4 27 30 27z" />
    <glyph glyph-name="Iacute" unicode="&#xcd;" horiz-adv-x="524" 
d="M264 1599q-25 -10 -31 7l-8 22q-6 16 17 29l321 184q25 12 33 -6l18 -43q6 -20 -12 -31zM360 1434h46q27 0 22 -27l-192 -1380q-6 -27 -33 -27h-43q-27 0 -23 27l193 1380q4 27 30 27z" />
    <glyph glyph-name="Icircumflex" unicode="&#xce;" horiz-adv-x="524" 
d="M428 1839q10 0 21 -10l196 -201q16 -16 4 -29l-14 -16q-16 -16 -31 -4l-182 166l-232 -172q-18 -12 -30 4l-15 22q-8 14 9 29l252 201q12 10 22 10zM360 1434h46q27 0 22 -27l-192 -1380q-6 -27 -33 -27h-43q-27 0 -23 27l193 1380q4 27 30 27z" />
    <glyph glyph-name="Idieresis" unicode="&#xcf;" horiz-adv-x="524" 
d="M219 1640q-29 0 -45 18t-16 46t24 52t52 24q29 0 45 -18t16 -47q1 -31 -23 -53t-53 -22zM604 1640q-29 0 -45 18t-16 46q-1 28 23 52t53 24t45 -18t16 -47q0 -31 -24 -53t-52 -22zM360 1434h46q27 0 22 -27l-192 -1380q-6 -27 -33 -27h-43q-27 0 -23 27l193 1380
q4 27 30 27z" />
    <glyph glyph-name="Eth" unicode="&#xd0;" horiz-adv-x="1421" 
d="M567 88q266 0 461 209t195 510q0 229 -134 384t-346 155h-321l-84 -603h448q27 0 23 -22l-2 -16q-4 -25 -29 -25h-448l-84 -592h321zM170 680q-25 0 -20 27l2 14q4 23 28 22h62l94 664q4 27 26 27h410q240 0 398 -182t159 -441q0 -331 -230 -571t-528 -240h-409
q-25 0 -21 27l92 653h-63z" />
    <glyph glyph-name="Ntilde" unicode="&#xd1;" horiz-adv-x="1460" 
d="M805 1851q49 -1 77 -29t39 -64q28 -93 76 -93q68 0 115 121q10 25 31 14l24 -8q14 -10 9 -27q-66 -176 -191 -176q-41 0 -70 30q-29 31 -41 65q-33 94 -75 94q-70 0 -121 -129q-9 -23 -29 -13l-22 11q-18 6 -9 28q0 12 46 88q15 25 54 56q38 32 87 32zM367 1454h30
l703 -1272h4l168 1225q4 27 31 27h40q27 0 23 -27l-197 -1401q-2 -27 -34 -26h-33l-699 1275h-2l-172 -1228q-4 -27 -51 -27h-18q-27 0 -23 27l197 1400q6 27 33 27z" />
    <glyph glyph-name="Ograve" unicode="&#xd2;" horiz-adv-x="1570" 
d="M1094 1604l-291 161q-16 10 -2 31l24 39q12 20 35 6l270 -184q16 -10 9 -29l-13 -18q-12 -14 -32 -6zM227 627q1 -233 139 -395t349 -162q264 0 467 216t202 515q0 235 -138 399t-349 164q-266 0 -468 -218t-202 -519zM133 614q0 346 228 593t548 247q242 0 406 -186
t164 -455q-1 -346 -229 -590t-548 -243q-242 0 -406 184t-163 450z" />
    <glyph glyph-name="Oacute" unicode="&#xd3;" horiz-adv-x="1570" 
d="M811 1599q-25 -10 -31 7l-8 22q-6 16 16 29l322 184q25 12 33 -6l18 -43q6 -20 -12 -31zM227 627q1 -233 139 -395t349 -162q264 0 467 216t202 515q0 235 -138 399t-349 164q-266 0 -468 -218t-202 -519zM133 614q0 346 228 593t548 247q242 0 406 -186t164 -455
q-1 -346 -229 -590t-548 -243q-242 0 -406 184t-163 450z" />
    <glyph glyph-name="Ocircumflex" unicode="&#xd4;" horiz-adv-x="1570" 
d="M974 1839q10 0 21 -10l197 -201q16 -16 4 -29l-14 -16q-16 -16 -31 -4l-182 166l-232 -172q-18 -12 -30 4l-15 22q-8 14 8 29l252 201q12 10 22 10zM227 627q1 -233 139 -395t349 -162q264 0 467 216t202 515q0 235 -138 399t-349 164q-266 0 -468 -218t-202 -519z
M133 614q0 346 228 593t548 247q242 0 406 -186t164 -455q-1 -346 -229 -590t-548 -243q-242 0 -406 184t-163 450z" />
    <glyph glyph-name="Otilde" unicode="&#xd5;" horiz-adv-x="1570" 
d="M873 1851q49 -1 77 -29t38 -64q28 -93 77 -93q68 0 115 121q10 25 30 14l25 -8q14 -10 8 -27q-66 -176 -190 -176q-41 0 -70 30q-29 31 -41 65q-33 94 -76 94q-72 0 -121 -129q-8 -23 -28 -13l-23 11q-18 6 -8 28q0 2 22 48t43 66q21 19 47 41t75 21zM227 627
q1 -233 139 -395t349 -162q264 0 467 216t202 515q0 235 -138 399t-349 164q-266 0 -468 -218t-202 -519zM133 614q0 346 228 593t548 247q242 0 406 -186t164 -455q-1 -346 -229 -590t-548 -243q-242 0 -406 184t-163 450z" />
    <glyph glyph-name="Odieresis" unicode="&#xd6;" horiz-adv-x="1570" 
d="M764 1640q-29 0 -45 18q-17 18 -17 46t24 52t52 24t45 -18t17 -47q0 -31 -24 -53t-52 -22zM1149 1640q-29 0 -45 18t-16 46t23 52q25 24 53 24t44 -18t16 -47q0 -31 -22 -53q-24 -22 -53 -22zM227 627q1 -233 139 -395t349 -162q264 0 467 216t202 515q0 235 -138 399
t-349 164q-266 0 -468 -218t-202 -519zM133 614q0 346 228 593t548 247q242 0 406 -186t164 -455q-1 -346 -229 -590t-548 -243q-242 0 -406 184t-163 450z" />
    <glyph glyph-name="multiply" unicode="&#xd7;" horiz-adv-x="942" 
d="M195 401l-27 27q-16 16 6 37l256 250l-182 246q-16 23 4 38l22 19q20 20 37 0l185 -246l256 252q18 16 36 -2l25 -27q16 -16 -4 -37l-258 -251l184 -246q16 -20 -6 -37l-24 -18q-20 -16 -33 -3l-187 248l-258 -250q-18 -14 -32 0z" />
    <glyph glyph-name="Oslash" unicode="&#xd8;" horiz-adv-x="1568" 
d="M715 70q266 0 470 217t204 516q0 203 -93 342l-948 -903q137 -172 367 -172zM895 1364q-264 0 -468 -219t-204 -520q0 -203 88 -338l951 903q-141 174 -367 174zM909 1454q262 0 424 -201l140 131q20 20 34 0l6 -8q14 -18 -6 -37l-137 -131q109 -168 109 -397
q-1 -340 -235 -586t-544 -245q-268 0 -426 196l-135 -127q-17 -21 -39 8q-12 20 4 37l134 127q-104 158 -105 393q-1 344 233 592t543 248z" />
    <glyph glyph-name="Ugrave" unicode="&#xd9;" horiz-adv-x="1363" 
d="M958 1604l-290 161q-16 10 -2 31l24 39q12 20 35 6l270 -184q16 -10 9 -29l-13 -18q-13 -14 -33 -6zM346 1434h45q27 0 23 -27l-123 -875q-31 -202 56 -330t265 -128t301 128t152 328l125 877q4 27 31 27h43q10 0 16 -8t4 -19l-123 -885q-35 -240 -189 -392t-368 -150
q-215 0 -330 153q-114 153 -81 389l124 885q4 27 29 27z" />
    <glyph glyph-name="Uacute" unicode="&#xda;" horiz-adv-x="1363" 
d="M676 1599q-25 -10 -31 7l-8 22q-6 16 16 29l322 184q25 12 33 -6l18 -43q6 -20 -12 -31zM346 1434h45q27 0 23 -27l-123 -875q-31 -202 56 -330t265 -128t301 128t152 328l125 877q4 27 31 27h43q10 0 16 -8t4 -19l-123 -885q-35 -240 -189 -392t-368 -150
q-215 0 -330 153q-114 153 -81 389l124 885q4 27 29 27z" />
    <glyph glyph-name="Ucircumflex" unicode="&#xdb;" horiz-adv-x="1363" 
d="M842 1839q10 0 20 -10l197 -201q16 -16 4 -29l-14 -16q-16 -16 -31 -4l-182 166l-232 -172q-18 -12 -31 4l-14 22q-8 14 8 29l252 201q13 10 23 10zM346 1434h45q27 0 23 -27l-123 -875q-31 -202 56 -330t265 -128t301 128t152 328l125 877q4 27 31 27h43q10 0 16 -8
t4 -19l-123 -885q-35 -240 -189 -392t-368 -150q-215 0 -330 153q-114 153 -81 389l124 885q4 27 29 27z" />
    <glyph glyph-name="Udieresis" unicode="&#xdc;" horiz-adv-x="1363" 
d="M633 1640q-29 0 -45 18t-16 46t23 52q25 24 53 24t44 -18t16 -47q0 -31 -22 -53q-24 -22 -53 -22zM1018 1640q-29 0 -45 18q-17 18 -17 46t24 52t52 24t45 -18t17 -47q0 -31 -24 -53t-52 -22zM346 1434h45q27 0 23 -27l-123 -875q-31 -202 56 -330t265 -128t301 128
t152 328l125 877q4 27 31 27h43q10 0 16 -8t4 -19l-123 -885q-35 -240 -189 -392t-368 -150q-215 0 -330 153q-114 153 -81 389l124 885q4 27 29 27z" />
    <glyph glyph-name="Yacute" unicode="&#xdd;" horiz-adv-x="1048" 
d="M516 1599q-25 -10 -31 7l-8 22q-6 16 17 29l321 184q25 12 33 -6l18 -43q6 -20 -12 -31zM133 1434h57q16 0 23 -13l328 -628l508 628q12 12 28 13h68q16 0 20 -10t-6 -21l-577 -705l-95 -671q-4 -27 -30 -27h-41q-25 0 -23 27l92 669l-370 711q-12 27 18 27z" />
    <glyph glyph-name="Thorn" unicode="&#xde;" horiz-adv-x="1134" 
d="M602 350q147 0 264 126t117 296q0 131 -80 221t-198 90h-322l-104 -733h323zM360 1434h46q27 0 22 -27l-33 -227h330q145 0 251 -118t105 -280q0 -216 -145 -370t-340 -154h-330l-33 -231q-4 -27 -36 -27h-37q-27 0 -23 27l195 1380q4 27 28 27z" />
    <glyph glyph-name="germandbls" unicode="&#xdf;" horiz-adv-x="1046" 
d="M603 59q87 0 159 66t72 180q0 61 -34 123t-73 103q-108 116 -107 181t116 203q116 140 116 276q0 79 -56 130t-139 51q-301 0 -374 -532l-203 -1428q-4 -27 -33 -26h-39q-23 0 -18 26l203 1428q43 302 165 458t314 156q114 0 194 -71t80 -185t-57 -212t-113 -166
q-56 -70 -57 -98q0 -28 33 -69q34 -41 72 -83t71 -110t33 -141q0 -167 -102 -253t-251 -86q-106 0 -172 34q-26 12 -14 43l14 31q14 29 33 16q80 -45 167 -45z" />
    <glyph glyph-name="agrave" unicode="&#xe0;" 
d="M487 754q-139 0 -232 -116t-93 -282q0 -123 58 -208t155 -85q68 0 131 37t91 68t34 43l61 430q-18 43 -81 78q-62 35 -124 35zM666 0h-23q-29 0 -25 29l5 69q-31 -37 -103 -78t-164 -40q-124 0 -204 105t-80 259q0 205 124 350t293 146q61 0 130 -28t94 -71l16 56
q6 23 29 22h22q10 0 16 -8t5 -18l-107 -766q-4 -27 -28 -27zM686 1147l-291 162q-16 10 -2 30l25 39q14 23 35 6l270 -184q16 -10 8 -29l-12 -18q-13 -14 -33 -6z" />
    <glyph glyph-name="aacute" unicode="&#xe1;" 
d="M487 754q-139 0 -232 -116t-93 -282q0 -123 58 -208t155 -85q68 0 131 37t91 68t34 43l61 430q-18 43 -81 78q-62 35 -124 35zM666 0h-23q-29 0 -25 29l5 69q-31 -37 -103 -78t-164 -40q-124 0 -204 105t-80 259q0 205 124 350t293 146q61 0 130 -28t94 -71l16 56
q6 23 29 22h22q10 0 16 -8t5 -18l-107 -766q-4 -27 -28 -27zM403 1145q-25 -10 -30 6l-8 23q-6 16 16 28l321 184q25 12 33 -6l19 -43q6 -20 -13 -30z" />
    <glyph glyph-name="acircumflex" unicode="&#xe2;" 
d="M487 754q-139 0 -232 -116t-93 -282q0 -123 58 -208t155 -85q68 0 131 37t91 68t34 43l61 430q-18 43 -81 78q-62 35 -124 35zM666 0h-23q-29 0 -25 29l5 69q-31 -37 -103 -78t-164 -40q-124 0 -204 105t-80 259q0 205 124 350t293 146q61 0 130 -28t94 -71l16 56
q6 23 29 22h22q10 0 16 -8t5 -18l-107 -766q-4 -27 -28 -27zM301 1130l-14 23q-8 14 8 29l252 200q23 20 43 0l196 -200q16 -16 5 -29l-15 -16q-16 -16 -31 -4l-182 165l-231 -172q-19 -12 -31 4z" />
    <glyph glyph-name="atilde" unicode="&#xe3;" 
d="M487 754q-139 0 -232 -116t-93 -282q0 -123 58 -208t155 -85q68 0 131 37t91 68t34 43l61 430q-18 43 -81 78q-62 35 -124 35zM666 0h-23q-29 0 -25 29l5 69q-31 -37 -103 -78t-164 -40q-124 0 -204 105t-80 259q0 205 124 350t293 146q61 0 130 -28t94 -71l16 56
q6 23 29 22h22q10 0 16 -8t5 -18l-107 -766q-4 -27 -28 -27zM468 1401q48 0 76 -29q28 -28 39 -64q29 -94 76 -94q68 0 115 121q10 25 31 15l24 -9q14 -10 9 -26q-66 -176 -191 -176q-41 -1 -69 29t-41 65q-32 94 -76 94q-72 0 -121 -129q-9 -22 -29 -12l-22 10q-18 6 -8 29
q0 14 45 88q15 25 55 57q39 31 87 31z" />
    <glyph glyph-name="adieresis" unicode="&#xe4;" 
d="M487 754q-139 0 -232 -116t-93 -282q0 -123 58 -208t155 -85q68 0 131 37t91 68t34 43l61 430q-18 43 -81 78q-62 35 -124 35zM666 0h-23q-29 0 -25 29l5 69q-31 -37 -103 -78t-164 -40q-124 0 -204 105t-80 259q0 205 124 350t293 146q61 0 130 -28t94 -71l16 56
q6 23 29 22h22q10 0 16 -8t5 -18l-107 -766q-4 -27 -28 -27zM378 1221q-30 0 -46 17t-16 46q0 28 23 52q24 24 54 24q57 0 58 -62q1 -33 -21 -55t-52 -22zM670 1284q0 28 22 52t52 24q28 0 46 -18t17 -47q1 -30 -23 -52t-53 -22t-45 17t-16 46z" />
    <glyph glyph-name="aring" unicode="&#xe5;" 
d="M487 754q-139 0 -232 -116t-93 -282q0 -123 58 -208t155 -85q68 0 131 37t91 68t34 43l61 430q-18 43 -81 78q-62 35 -124 35zM666 0h-23q-29 0 -25 29l5 69q-31 -37 -103 -78t-164 -40q-124 0 -204 105t-80 259q0 205 124 350t293 146q61 0 130 -28t94 -71l16 56
q6 23 29 22h22q10 0 16 -8t5 -18l-107 -766q-4 -27 -28 -27zM539 1083q55 -1 99 51t44 113t-31 101t-87 38q-56 0 -100 -50t-44 -112t32 -102t87 -39zM534 1018q-86 0 -134 53t-48 145t67 165t153 73t133 -54t47 -146t-66 -164t-152 -72z" />
    <glyph glyph-name="ae" unicode="&#xe6;" horiz-adv-x="1302" 
d="M373 453q-102 -1 -170 -55t-81 -146q-14 -92 28 -142t117 -51q75 0 145 37t104 80l35 246q-76 31 -178 31zM1133 625q-1 55 -51 92t-128 37q-197 0 -301 -138l-22 -141q201 -31 351 5t151 145zM240 -20q-96 0 -158 76q-61 77 -44 199t109 197q93 74 221 74t193 -26
q27 137 7 198t-119 62q-76 0 -138 -18t-81 -28q-19 -9 -21 -9q-25 -6 -25 16l-4 33q0 18 21 26q113 60 265 60t179 -123q53 55 137 89t182 34t178 -60q79 -60 79 -151q1 -93 -61 -149t-151 -71q-190 -32 -327 -14l-61 8l-19 -190q61 -150 221 -150q111 0 226 76q20 12 30 -2
l19 -28q8 -14 -20 -42t-110 -58t-163 -29q-150 0 -238 139q-51 -55 -141 -97t-186 -42z" />
    <glyph glyph-name="ccedilla" unicode="&#xe7;" horiz-adv-x="870" 
d="M508 754q-130 0 -236 -115t-106 -279q0 -127 71 -212t185 -85t227 125q23 20 39 5l25 -23q18 -14 2 -33q-41 -51 -127 -103t-185 -54l-12 -91q70 -8 121 -54t51 -129q0 -82 -59 -148t-154 -66q-51 0 -88 22t-47 48t6 37l21 16q14 6 17 4t13 -16q27 -37 85 -37t93 41
q34 41 33 98q0 100 -149 123q-25 6 -21 27l19 133q-111 27 -185 127t-73 235q0 211 134 350q134 140 307 140t261 -127q10 -16 -10 -37l-16 -14q-23 -18 -41 4q-72 88 -201 88z" />
    <glyph glyph-name="egrave" unicode="&#xe8;" horiz-adv-x="847" 
d="M690 1147l-291 162q-16 10 -2 30l25 39q14 23 35 6l270 -184q16 -10 8 -29l-12 -18q-13 -14 -33 -6zM668 625q0 55 -50 92t-129 37q-115 0 -203 -83t-114 -210q196 -17 346 21t150 143zM72 342q0 205 122 351t306 147q108 0 182 -58t74 -149t-62 -147t-148 -76
q-176 -40 -323 -31l-61 4q-12 -135 54 -227t180 -92q116 0 225 79q23 14 32 -4l19 -30q10 -18 -14 -40t-105 -56q-82 -34 -174 -33q-139 0 -223 103t-84 259z" />
    <glyph glyph-name="eacute" unicode="&#xe9;" horiz-adv-x="847" 
d="M408 1145q-25 -10 -31 6l-8 23q-6 16 16 28l322 184q25 12 32 -6l19 -43q6 -20 -13 -30zM668 625q0 55 -50 92t-129 37q-115 0 -203 -83t-114 -210q196 -17 346 21t150 143zM72 342q0 205 122 351t306 147q108 0 182 -58t74 -149t-62 -147t-148 -76q-176 -40 -323 -31
l-61 4q-12 -135 54 -227t180 -92q116 0 225 79q23 14 32 -4l19 -30q10 -18 -14 -40t-105 -56q-82 -34 -174 -33q-139 0 -223 103t-84 259z" />
    <glyph glyph-name="ecircumflex" unicode="&#xea;" horiz-adv-x="847" 
d="M303 1130l-14 23q-8 14 8 29l252 200q23 20 43 0l196 -200q16 -16 5 -29l-15 -16q-16 -16 -30 -4l-183 165l-231 -172q-19 -12 -31 4zM668 625q0 55 -50 92t-129 37q-115 0 -203 -83t-114 -210q196 -17 346 21t150 143zM72 342q0 205 122 351t306 147q108 0 182 -58
t74 -149t-62 -147t-148 -76q-176 -40 -323 -31l-61 4q-12 -135 54 -227t180 -92q116 0 225 79q23 14 32 -4l19 -30q10 -18 -14 -40t-105 -56q-82 -34 -174 -33q-139 0 -223 103t-84 259z" />
    <glyph glyph-name="edieresis" unicode="&#xeb;" horiz-adv-x="847" 
d="M384 1221q-62 0 -62 63q0 28 24 52t53 24q57 0 58 -62q1 -33 -21 -55t-52 -22zM676 1284q0 28 22 52t52 24q29 0 46 -18t17 -47q1 -30 -23 -52t-53 -22t-45 17t-16 46zM668 625q0 55 -50 92t-129 37q-115 0 -203 -83t-114 -210q196 -17 346 21t150 143zM72 342
q0 205 122 351t306 147q108 0 182 -58t74 -149t-62 -147t-148 -76q-176 -40 -323 -31l-61 4q-12 -135 54 -227t180 -92q116 0 225 79q23 14 32 -4l19 -30q10 -18 -14 -40t-105 -56q-82 -34 -174 -33q-139 0 -223 103t-84 259z" />
    <glyph glyph-name="igrave" unicode="&#xec;" horiz-adv-x="395" 
d="M252 819q27 0 22 -26l-110 -766q-4 -27 -33 -27h-33q-26 0 -22 27l108 766q4 27 29 26h39zM424 1147l-291 162q-16 10 -2 30l25 39q14 23 34 6l271 -184q16 -10 8 -29l-12 -18q-13 -14 -33 -6z" />
    <glyph glyph-name="iacute" unicode="&#xed;" horiz-adv-x="395" 
d="M252 819q27 0 22 -26l-110 -766q-4 -27 -33 -27h-33q-26 0 -22 27l108 766q4 27 29 26h39zM141 1145q-25 -10 -30 6l-9 23q-6 16 17 28l321 184q25 12 33 -6l19 -43q6 -20 -13 -30z" />
    <glyph glyph-name="icircumflex" unicode="&#xee;" horiz-adv-x="395" 
d="M37 1130l-14 23q-8 14 8 29l252 200q23 20 43 0l196 -200q16 -16 4 -29l-14 -16q-16 -16 -31 -4l-182 165l-231 -172q-19 -12 -31 4zM252 819q27 0 22 -26l-110 -766q-4 -27 -33 -27h-33q-26 0 -22 27l108 766q4 27 29 26h39z" />
    <glyph glyph-name="idieresis" unicode="&#xef;" horiz-adv-x="395" 
d="M252 819q27 0 22 -26l-110 -766q-4 -27 -33 -27h-33q-26 0 -22 27l108 766q4 27 29 26h39zM116 1221q-30 0 -46 17t-16 46q0 28 23 52q24 24 54 24q57 0 57 -62q0 -33 -21 -55t-51 -22zM408 1284q0 28 22 52t52 24q28 0 45 -18t17 -47q0 -30 -22 -52q-24 -22 -53 -22
t-45 17t-16 46z" />
    <glyph glyph-name="eth" unicode="&#xf0;" horiz-adv-x="1050" 
d="M164 393q0 -137 77 -232t193 -95q166 0 274 140t136 343q4 45 4 61l-13 26q-7 13 -37 49q-30 35 -62 61t-87 48t-114 21q-145 0 -258 -122t-113 -300zM74 387q0 223 142 367t325 145q119 0 203 -58t104 -108q-2 254 -193 455l-225 -137q-25 -12 -33 10l-4 10
q-12 23 13 35l202 123q-109 94 -196 135q-20 8 -6 33l18 35q10 18 29 10q127 -53 243 -166l138 82q25 12 34 -10q12 -34 -10 -45l-115 -70q203 -225 203 -537t-140 -514q-140 -203 -384 -202q-150 0 -249 118t-99 289z" />
    <glyph glyph-name="ntilde" unicode="&#xf1;" horiz-adv-x="942" 
d="M498 1401q34 0 62 -29q28 -28 39 -64q29 -94 77 -94q68 0 115 121q10 25 30 15l25 -9q14 -10 8 -26q-66 -176 -190 -176q-41 -1 -70 29t-41 65q-32 94 -76 94q-72 0 -121 -129q-8 -22 -28 -12l-23 10q-18 6 -8 29q0 2 22 49t57 78q35 32 62 41q26 8 60 8zM236 819
q23 0 22 -20l-4 -82q31 37 112 80t177 43q145 0 205 -100t36 -275l-61 -438q-4 -27 -31 -27h-37q-27 0 -22 27l61 438q20 141 -23 215q-44 74 -147 74q-66 0 -151 -44t-127 -100l-82 -583q-4 -27 -31 -27h-39q-22 0 -18 27l108 766q4 27 31 26h21z" />
    <glyph glyph-name="ograve" unicode="&#xf2;" horiz-adv-x="937" 
d="M705 1147l-291 162q-16 10 -2 30l24 39q14 23 35 6l270 -184q16 -10 9 -29l-13 -18q-12 -14 -32 -6zM496 754q-134 0 -234 -117t-100 -261t66 -228q66 -85 169 -85q133 0 233 118q99 119 99 261t-65 227q-66 85 -168 85zM72 350q0 201 128 345t308 145q133 0 223 -109
t90 -262q0 -201 -129 -345t-305 -144q-133 0 -224 108t-91 262z" />
    <glyph glyph-name="oacute" unicode="&#xf3;" horiz-adv-x="937" 
d="M422 1145q-25 -10 -31 6l-8 23q-6 16 16 28l322 184q25 12 33 -6l18 -43q6 -20 -12 -30zM496 754q-134 0 -234 -117t-100 -261t66 -228q66 -85 169 -85q133 0 233 118q99 119 99 261t-65 227q-66 85 -168 85zM72 350q0 201 128 345t308 145q133 0 223 -109t90 -262
q0 -201 -129 -345t-305 -144q-133 0 -224 108t-91 262z" />
    <glyph glyph-name="ocircumflex" unicode="&#xf4;" horiz-adv-x="937" 
d="M317 1130l-14 23q-8 14 8 29l252 200q24 20 43 0l197 -200q16 -16 4 -29l-14 -16q-16 -16 -31 -4l-182 165l-232 -172q-19 -12 -31 4zM496 754q-134 0 -234 -117t-100 -261t66 -228q66 -85 169 -85q133 0 233 118q99 119 99 261t-65 227q-66 85 -168 85zM72 350
q0 201 128 345t308 145q133 0 223 -109t90 -262q0 -201 -129 -345t-305 -144q-133 0 -224 108t-91 262z" />
    <glyph glyph-name="otilde" unicode="&#xf5;" horiz-adv-x="937" 
d="M501 1401q33 0 61 -29q28 -28 39 -64q29 -94 77 -94q68 0 115 121q10 25 30 15l25 -9q14 -10 8 -26q-66 -176 -190 -176q-41 -1 -70 29t-41 65q-32 94 -76 94q-72 0 -121 -129q-8 -22 -28 -12l-23 10q-18 6 -8 29q0 2 22 49t57 78q35 32 62 41q27 8 61 8zM496 754
q-134 0 -234 -117t-100 -261t66 -228q66 -85 169 -85q133 0 233 118q99 119 99 261t-65 227q-66 85 -168 85zM72 350q0 201 128 345t308 145q133 0 223 -109t90 -262q0 -201 -129 -345t-305 -144q-133 0 -224 108t-91 262z" />
    <glyph glyph-name="odieresis" unicode="&#xf6;" horiz-adv-x="937" 
d="M398 1221q-62 0 -62 63q0 28 24 52t54 24q57 0 57 -62q1 -33 -21 -55t-52 -22zM752 1221q-29 0 -45 17q-17 17 -17 46q0 28 23 52t51 24t46 -18q17 -18 17 -47q0 -30 -23 -52t-52 -22zM496 754q-134 0 -234 -117t-100 -261t66 -228q66 -85 169 -85q133 0 233 118
q99 119 99 261t-65 227q-66 85 -168 85zM72 350q0 201 128 345t308 145q133 0 223 -109t90 -262q0 -201 -129 -345t-305 -144q-133 0 -224 108t-91 262z" />
    <glyph glyph-name="divide" unicode="&#xf7;" horiz-adv-x="1112" 
d="M534 471q70 -1 70 -75q0 -34 -28 -62t-60 -29q-34 1 -54 23t-20 55t29 61t63 27zM217 670q-27 0 -22 26l4 33q4 27 28 27h709q25 0 20 -27l-4 -33q-4 -27 -28 -26h-707zM624 1114q70 0 70 -74q0 -34 -28 -64q-28 -28 -60 -28q-33 0 -53 23q-21 23 -21 55t29 60t63 28z
" />
    <glyph glyph-name="oslash" unicode="&#xf8;" horiz-adv-x="933" 
d="M731 459q0 88 -29 151l-483 -450q67 -96 189 -96t223 116q100 117 100 279zM186 209l484 450q-66 94 -174 95q-134 0 -234 -119t-100 -283q-1 -82 24 -143zM72 348q0 199 131 345t305 147q145 0 233 -119l47 45q19 16 40 -5t-1 -40l-51 -49q43 -82 43 -203
q0 -201 -130 -345q-129 -144 -289 -144t-253 118l-34 -35q-15 -15 -36 6t-1 42l37 36q-41 86 -41 201z" />
    <glyph glyph-name="ugrave" unicode="&#xf9;" 
d="M688 1147l-291 162q-16 10 -2 30l25 39q14 23 35 6l270 -184q16 -10 8 -29l-12 -18q-13 -14 -33 -6zM352 -20q-145 0 -205 97q-59 97 -34 275l61 441q4 27 29 26h39q27 0 22 -26l-63 -441q-19 -141 25 -215t145 -74q68 0 149 46t111 100l82 584q4 27 28 26h39q10 0 16 -8
t5 -18l-107 -766q-4 -27 -30 -27h-25q-20 0 -21 25l5 73q-25 -34 -100 -76t-171 -42z" />
    <glyph glyph-name="uacute" unicode="&#xfa;" 
d="M408 1145q-25 -10 -31 6l-8 23q-6 16 16 28l322 184q25 12 32 -6l19 -43q6 -20 -13 -30zM352 -20q-145 0 -205 97q-59 97 -34 275l61 441q4 27 29 26h39q27 0 22 -26l-63 -441q-19 -141 25 -215t145 -74q68 0 149 46t111 100l82 584q4 27 28 26h39q10 0 16 -8t5 -18
l-107 -766q-4 -27 -30 -27h-25q-20 0 -21 25l5 73q-25 -34 -100 -76t-171 -42z" />
    <glyph glyph-name="ucircumflex" unicode="&#xfb;" 
d="M303 1130l-14 23q-8 14 8 29l252 200q23 20 43 0l196 -200q16 -16 5 -29l-15 -16q-16 -16 -30 -4l-183 165l-231 -172q-19 -12 -31 4zM352 -20q-145 0 -205 97q-59 97 -34 275l61 441q4 27 29 26h39q27 0 22 -26l-63 -441q-19 -141 25 -215t145 -74q68 0 149 46t111 100
l82 584q4 27 28 26h39q10 0 16 -8t5 -18l-107 -766q-4 -27 -30 -27h-25q-20 0 -21 25l5 73q-25 -34 -100 -76t-171 -42z" />
    <glyph glyph-name="udieresis" unicode="&#xfc;" 
d="M380 1221q-30 0 -46 17t-16 46q0 28 23 52q24 24 54 24q57 0 58 -62q1 -33 -21 -55t-52 -22zM672 1284q0 28 22 52t52 24q29 0 46 -18t17 -47q1 -30 -23 -52t-53 -22t-45 17t-16 46zM352 -20q-145 0 -205 97q-59 97 -34 275l61 441q4 27 29 26h39q27 0 22 -26l-63 -441
q-19 -141 25 -215t145 -74q68 0 149 46t111 100l82 584q4 27 28 26h39q10 0 16 -8t5 -18l-107 -766q-4 -27 -30 -27h-25q-20 0 -21 25l5 73q-25 -34 -100 -76t-171 -42z" />
    <glyph glyph-name="yacute" unicode="&#xfd;" horiz-adv-x="835" 
d="M360 1145q-25 -10 -30 6l-8 23q-6 16 16 28l321 184q25 12 33 -6l19 -43q6 -20 -13 -30zM80 819h43q16 0 22 -18l205 -695h4l381 695q10 18 29 18h45q14 0 18 -10t-4 -23l-770 -1384q-10 -16 -28 -16h-43q-31 0 -15 28l330 594l-238 778q-8 33 21 33z" />
    <glyph glyph-name="thorn" unicode="&#xfe;" horiz-adv-x="925" 
d="M721 465q-1 123 -63 207t-166 84q-61 0 -139 -38t-99 -79l-66 -475q0 -6 20 -29t68 -47q47 -24 101 -22q145 0 245 115q99 116 99 284zM14 -614q-27 0 -22 26l280 1995q4 27 33 27h33q27 0 22 -27l-94 -664q106 97 242 97t218 -106q83 -106 83 -261q0 -209 -124 -351
t-310 -142q-77 0 -131 30t-72 56l-92 -654q-4 -27 -29 -26h-37z" />
    <glyph glyph-name="ydieresis" unicode="&#xff;" horiz-adv-x="835" 
d="M335 1221q-30 0 -46 17q-17 17 -17 46q0 28 24 52t54 24q57 0 58 -62q0 -33 -22 -55t-51 -22zM627 1284q1 28 23 52t50 24t46 -18t18 -47q0 -30 -24 -52t-52 -22q-29 0 -45 17t-16 46zM80 819h43q16 0 22 -18l205 -695h4l381 695q10 18 29 18h45q14 0 18 -10t-4 -23
l-770 -1384q-10 -16 -28 -16h-43q-31 0 -15 28l330 594l-238 778q-8 33 21 33z" />
    <glyph glyph-name="Amacron" unicode="&#x100;" horiz-adv-x="1230" 
d="M532 1702q-27 0 -22 27l4 24q4 27 29 27h497q27 0 21 -27l-2 -24q-4 -27 -31 -27h-496zM295 475h623l-191 825h-6zM18 0h-59q-25 0 -10 29l768 1421q8 14 26 14h7q20 0 24 -14l363 -1425q8 -25 -23 -25h-53q-23 0 -27 18l-94 377h-692l-197 -377q-10 -18 -33 -18z" />
    <glyph glyph-name="amacron" unicode="&#x101;" 
d="M487 754q-139 0 -232 -116t-93 -282q0 -123 58 -208t155 -85q68 0 131 37t91 68t34 43l61 430q-18 43 -81 78q-62 35 -124 35zM666 0h-23q-29 0 -25 29l5 69q-31 -37 -103 -78t-164 -40q-124 0 -204 105t-80 259q0 205 124 350t293 146q61 0 130 -28t94 -71l16 56
q6 23 29 22h22q10 0 16 -8t5 -18l-107 -766q-4 -27 -28 -27zM303 1219q-27 0 -22 24l4 27q4 27 28 26h496q27 0 22 -26l-4 -27q-4 -25 -28 -24h-496z" />
    <glyph glyph-name="Abreve" unicode="&#x102;" horiz-adv-x="1230" 
d="M773 1587q-93 0 -155 67q-61 67 -59 161q0 29 23 28h22q16 0 21 -24q10 -72 49 -116t100 -44t116 46q54 46 79 114q10 25 26 24h33q25 0 16 -28q-30 -100 -104 -164t-167 -64zM295 475h623l-191 825h-6zM18 0h-59q-25 0 -10 29l768 1421q8 14 26 14h7q20 0 24 -14
l363 -1425q8 -25 -23 -25h-53q-23 0 -27 18l-94 377h-692l-197 -377q-10 -18 -33 -18z" />
    <glyph glyph-name="abreve" unicode="&#x103;" 
d="M487 754q-139 0 -232 -116t-93 -282q0 -123 58 -208t155 -85q68 0 131 37t91 68t34 43l61 430q-18 43 -81 78q-62 35 -124 35zM666 0h-23q-29 0 -25 29l5 69q-31 -37 -103 -78t-164 -40q-124 0 -204 105t-80 259q0 205 124 350t293 146q61 0 130 -28t94 -71l16 56
q6 23 29 22h22q10 0 16 -8t5 -18l-107 -766q-4 -27 -28 -27zM526 1102q-92 0 -152 66t-65 159q0 29 25 29h22q16 0 21 -23q6 -73 46 -117t102 -44q63 0 117 46t77 115q10 23 29 23h32q23 0 15 -29q-27 -97 -102 -161t-167 -64z" />
    <glyph glyph-name="Aogonek" unicode="&#x104;" horiz-adv-x="1230" 
d="M295 475h623l-191 825h-6zM18 0h-59q-25 0 -10 29l768 1421q8 14 26 14h7q20 0 24 -14l363 -1425q8 -25 -23 -25h-31q-57 -36 -103 -102t-46 -136t33 -101q33 -30 82 -30t116 31q13 6 17 -1t4 -30t-23 -39q-45 -34 -128 -34t-132 42t-49 129t52 167t128 122l-94 377h-692
l-197 -377q-10 -18 -33 -18z" />
    <glyph glyph-name="aogonek" unicode="&#x105;" 
d="M487 754q-139 0 -232 -116t-93 -282q0 -123 58 -208t155 -85q68 0 131 37t91 68t34 43l61 430q-18 43 -81 78q-62 35 -124 35zM666 0h-9q-57 -36 -103 -102t-46 -136t33 -101q33 -30 82 -30t116 31q13 6 17 -1t4 -30t-23 -39q-45 -34 -128 -34t-132 42t-49 130t53 170
t137 123l5 75q-31 -37 -103 -78t-164 -40q-124 0 -204 105t-80 259q0 205 124 350t293 146q61 0 130 -28t94 -71l16 56q6 23 29 22h22q10 0 16 -8t5 -18l-107 -766q-4 -27 -28 -27z" />
    <glyph glyph-name="Cacute" unicode="&#x106;" horiz-adv-x="1349" 
d="M799 1599q-25 -10 -31 7l-8 22q-6 16 16 29l322 184q25 12 32 -6l19 -43q6 -20 -12 -31zM133 616q1 350 231 594t545 244q262 0 424 -190q16 -18 -2 -37l-35 -31q-18 -14 -34 2q-135 164 -363 164q-262 0 -462 -219t-199 -516q0 -231 135 -389t344 -158t399 172
q20 16 33 4l39 -43q16 -16 -4 -35q-217 -198 -470 -198t-417 184t-164 452z" />
    <glyph glyph-name="cacute" unicode="&#x107;" horiz-adv-x="866" 
d="M438 1145q-25 -10 -30 6l-9 23q-6 16 17 28l321 184q25 12 33 -6l18 -43q6 -20 -12 -30zM72 350q0 211 134 350q134 140 307 140t261 -127q10 -16 -10 -37l-16 -14q-23 -18 -41 4q-72 88 -201 88q-130 0 -236 -115t-106 -279q0 -127 70 -212t185 -85q114 0 228 125
q20 20 39 5l25 -23q18 -14 2 -33q-45 -55 -126 -106t-201 -51t-217 107t-97 263z" />
    <glyph glyph-name="Ccircumflex" unicode="&#x108;" horiz-adv-x="1349" 
d="M966 1839q10 0 21 -10l197 -201q16 -16 4 -29l-14 -16q-16 -16 -31 -4l-182 166l-232 -172q-18 -12 -31 4l-14 22q-8 14 8 29l252 201q12 10 22 10zM133 616q1 350 231 594t545 244q262 0 424 -190q16 -18 -2 -37l-35 -31q-18 -14 -34 2q-135 164 -363 164
q-262 0 -462 -219t-199 -516q0 -231 135 -389t344 -158t399 172q20 16 33 4l39 -43q16 -16 -4 -35q-217 -198 -470 -198t-417 184t-164 452z" />
    <glyph glyph-name="ccircumflex" unicode="&#x109;" horiz-adv-x="866" 
d="M336 1130l-14 23q-8 14 8 29l252 200q23 20 43 0l196 -200q16 -16 4 -29l-14 -16q-16 -16 -31 -4l-182 165l-231 -172q-19 -12 -31 4zM72 350q0 211 134 350q134 140 307 140t261 -127q10 -16 -10 -37l-16 -14q-23 -18 -41 4q-72 88 -201 88q-130 0 -236 -115t-106 -279
q0 -127 70 -212t185 -85q114 0 228 125q20 20 39 5l25 -23q18 -14 2 -33q-45 -55 -126 -106t-201 -51t-217 107t-97 263z" />
    <glyph glyph-name="Cdotaccent" unicode="&#x10a;" horiz-adv-x="1349" 
d="M951 1659q-32 0 -50 19t-18 52t26 59q27 26 58 26q31 1 50 -19t19 -53t-26 -59q-27 -25 -59 -25zM133 616q1 350 231 594t545 244q262 0 424 -190q16 -18 -2 -37l-35 -31q-18 -14 -34 2q-135 164 -363 164q-262 0 -462 -219t-199 -516q0 -231 135 -389t344 -158t399 172
q20 16 33 4l39 -43q16 -16 -4 -35q-217 -198 -470 -198t-417 184t-164 452z" />
    <glyph glyph-name="cdotaccent" unicode="&#x10b;" horiz-adv-x="866" 
d="M600 1348q30 0 50 -20t20 -51q0 -33 -26 -59t-59 -26q-32 0 -50 20q-19 20 -19 52t27 58t57 26zM72 350q0 211 134 350q134 140 307 140t261 -127q10 -16 -10 -37l-16 -14q-23 -18 -41 4q-72 88 -201 88q-130 0 -236 -115t-106 -279q0 -127 70 -212t185 -85
q114 0 228 125q20 20 39 5l25 -23q18 -14 2 -33q-45 -55 -126 -106t-201 -51t-217 107t-97 263z" />
    <glyph glyph-name="Ccaron" unicode="&#x10c;" horiz-adv-x="1349" 
d="M934 1561q-10 0 -21 10l-196 201q-16 16 -4 28l14 17q16 16 31 4l182 -166l231 172q18 12 31 -4l15 -23q8 -14 -9 -28l-252 -201q-12 -10 -22 -10zM133 616q1 350 231 594t545 244q262 0 424 -190q16 -18 -2 -37l-35 -31q-18 -14 -34 2q-135 164 -363 164
q-262 0 -462 -219t-199 -516q0 -231 135 -389t344 -158t399 172q20 16 33 4l39 -43q16 -16 -4 -35q-217 -198 -470 -198t-417 184t-164 452z" />
    <glyph glyph-name="ccaron" unicode="&#x10d;" horiz-adv-x="866" 
d="M569 1114q-10 0 -20 10l-197 201q-16 16 -4 29l14 16q16 16 31 4l182 -166l232 172q18 12 31 -4l14 -22q8 -14 -8 -29l-252 -201q-13 -10 -23 -10zM72 350q0 211 134 350q134 140 307 140t261 -127q10 -16 -10 -37l-16 -14q-23 -18 -41 4q-72 88 -201 88
q-130 0 -236 -115t-106 -279q0 -127 70 -212t185 -85q114 0 228 125q20 20 39 5l25 -23q18 -14 2 -33q-45 -55 -126 -106t-201 -51t-217 107t-97 263z" />
    <glyph glyph-name="Dcaron" unicode="&#x10e;" horiz-adv-x="1400" 
d="M739 1561q-10 0 -20 10l-197 201q-16 16 -4 28l14 17q16 16 31 4l182 -166l232 172q18 12 31 -4l14 -23q8 -14 -8 -28l-252 -201q-13 -10 -23 -10zM547 88q268 0 464 209t195 510q0 231 -135 385t-348 154h-305l-176 -1258h305zM358 1434h396q233 0 394 -182t161 -441
q-1 -331 -227 -571t-529 -240h-395q-10 0 -17 8q-6 9 -4 19l195 1380q4 27 26 27z" />
    <glyph glyph-name="dcaron" unicode="&#x10f;" horiz-adv-x="987" 
d="M1253 1320q0 -134 -61 -224t-119 -119q-25 -14 -33 0l-14 20q-10 16 12 33q100 66 131 195q10 43 5 78q-14 -11 -38 -11t-42 20t-18 57q0 36 26 61q27 25 69 24q82 0 82 -134zM377 63q68 0 131 37t91 68t34 43l65 451q-28 35 -86 64q-57 28 -114 28q-138 0 -236 -117
t-98 -287q0 -123 58 -205t155 -82zM74 344q0 209 123 352t305 144q59 0 111 -20t75 -42l23 -20l92 649q6 27 26 27h39q10 0 16 -8t5 -19l-193 -1380q-4 -27 -28 -27h-23q-29 0 -24 29l4 69q-31 -37 -103 -78t-164 -40q-124 0 -204 105t-80 259z" />
    <glyph glyph-name="Dcroat" unicode="&#x110;" horiz-adv-x="1421" 
d="M567 88q266 0 461 209t195 510q0 229 -134 384t-346 155h-321l-84 -603h448q27 0 23 -22l-2 -16q-4 -25 -29 -25h-448l-84 -592h321zM170 680q-25 0 -20 27l2 14q4 23 28 22h62l94 664q4 27 26 27h410q240 0 398 -182t159 -441q0 -331 -230 -571t-528 -240h-409
q-25 0 -21 27l92 653h-63z" />
    <glyph glyph-name="dcroat" unicode="&#x111;" horiz-adv-x="925" 
d="M377 61q68 0 131 38t91 69t34 43l65 451q-8 10 -23 25t-67 40t-110 25q-138 0 -236 -116t-98 -286q0 -123 58 -206t155 -83zM74 344q0 209 123 352t305 144q59 0 111 -20t75 -42l23 -20l49 352h-340q-27 0 -23 27l2 12q4 25 29 25h342l33 233q6 27 26 27h39q10 0 16 -8
t5 -19l-33 -233h72q24 0 19 -32t-29 -32h-70l-152 -1083q-4 -27 -28 -27h-23q-29 0 -24 29l4 69q-31 -37 -103 -78t-164 -40q-124 0 -204 105t-80 259z" />
    <glyph glyph-name="Emacron" unicode="&#x112;" horiz-adv-x="1136" 
d="M512 1702q-27 0 -23 27l5 24q4 27 28 27h498q27 0 20 -27l-2 -24q-4 -27 -30 -27h-496zM360 1434h738q27 0 22 -27l-4 -35q-4 -27 -31 -26h-663l-80 -566h573q27 0 23 -26l-4 -35q-4 -27 -31 -27h-573l-86 -606h665q27 0 23 -27l-6 -32q-4 -27 -29 -27h-737q-27 0 -23 27
l195 1380q4 27 28 27z" />
    <glyph glyph-name="emacron" unicode="&#x113;" horiz-adv-x="847" 
d="M309 1219q-27 0 -22 24l4 27q4 27 28 26h496q27 0 23 -26l-4 -27q-4 -25 -29 -24h-496zM668 625q0 55 -50 92t-129 37q-115 0 -203 -83t-114 -210q196 -17 346 21t150 143zM72 342q0 205 122 351t306 147q108 0 182 -58t74 -149t-62 -147t-148 -76q-176 -40 -323 -31
l-61 4q-12 -135 54 -227t180 -92q116 0 225 79q23 14 32 -4l19 -30q10 -18 -14 -40t-105 -56q-82 -34 -174 -33q-139 0 -223 103t-84 259z" />
    <glyph glyph-name="Ebreve" unicode="&#x114;" horiz-adv-x="1136" 
d="M755 1587q-93 0 -155 67q-61 67 -59 161q0 29 22 28h23q16 0 20 -24q10 -72 49 -116t101 -44t115 46q54 46 79 114q10 25 27 24h33q25 0 16 -28q-30 -100 -104 -164t-167 -64zM360 1434h738q27 0 22 -27l-4 -35q-4 -27 -31 -26h-663l-80 -566h573q27 0 23 -26l-4 -35
q-4 -27 -31 -27h-573l-86 -606h665q27 0 23 -27l-6 -32q-4 -27 -29 -27h-737q-27 0 -23 27l195 1380q4 27 28 27z" />
    <glyph glyph-name="ebreve" unicode="&#x115;" horiz-adv-x="847" 
d="M553 1102q-92 0 -153 65q-60 66 -64 160q0 29 24 29h23q16 0 20 -23q7 -73 47 -117t102 -44t116 46t77 115q10 23 29 23h33q20 0 14 -29q-27 -98 -101 -162q-75 -63 -167 -63zM668 625q0 55 -50 92t-129 37q-115 0 -203 -83t-114 -210q196 -17 346 21t150 143zM72 342
q0 205 122 351t306 147q108 0 182 -58t74 -149t-62 -147t-148 -76q-176 -40 -323 -31l-61 4q-12 -135 54 -227t180 -92q116 0 225 79q23 14 32 -4l19 -30q10 -18 -14 -40t-105 -56q-82 -34 -174 -33q-139 0 -223 103t-84 259z" />
    <glyph glyph-name="Edotaccent" unicode="&#x116;" horiz-adv-x="1136" 
d="M766 1815q30 1 50 -19t20 -53t-26 -59t-59 -25q-32 0 -51 19q-18 19 -18 52t27 59t57 26zM360 1434h738q27 0 22 -27l-4 -35q-4 -27 -31 -26h-663l-80 -566h573q27 0 23 -26l-4 -35q-4 -27 -31 -27h-573l-86 -606h665q27 0 23 -27l-6 -32q-4 -27 -29 -27h-737
q-27 0 -23 27l195 1380q4 27 28 27z" />
    <glyph glyph-name="edotaccent" unicode="&#x117;" horiz-adv-x="847" 
d="M572 1348q30 0 50 -20t19 -51q-1 -33 -27 -59t-58 -26t-50 20t-18 52t26 58q28 26 58 26zM668 625q0 55 -50 92t-129 37q-115 0 -203 -83t-114 -210q196 -17 346 21t150 143zM72 342q0 205 122 351t306 147q108 0 182 -58t74 -149t-62 -147t-148 -76q-176 -40 -323 -31
l-61 4q-12 -135 54 -227t180 -92q116 0 225 79q23 14 32 -4l19 -30q10 -18 -14 -40t-105 -56q-82 -34 -174 -33q-139 0 -223 103t-84 259z" />
    <glyph glyph-name="Eogonek" unicode="&#x118;" horiz-adv-x="1136" 
d="M360 1434h738q27 0 22 -27l-4 -35q-4 -27 -31 -26h-663l-80 -566h573q27 0 23 -26l-4 -35q-4 -27 -31 -27h-573l-86 -606h665q27 0 23 -27l-4 -24q-4 -23 -33 -35q-57 -36 -103 -102t-46 -136t32 -101q33 -30 82 -30q49 1 89 19t44 11t4 -30t-22 -39q-45 -34 -128 -34
t-132 42t-49 126q0 164 153 274h-659q-27 0 -23 27l195 1380q4 27 28 27z" />
    <glyph glyph-name="eogonek" unicode="&#x119;" horiz-adv-x="851" 
d="M670 625q0 55 -50 94t-128 39q-115 0 -203 -84t-115 -213q196 -17 346 21t150 143zM758 633q0 -91 -62 -147t-148 -76q-176 -40 -323 -31l-61 4q-12 -135 54 -228t182 -93t225 79q23 14 32 -4l17 -28q10 -18 -12 -38t-95 -52q-72 -32 -155 -37q-121 -98 -121 -236
q0 -55 33 -85t82 -30t116 31q12 6 16 -1t5 -30q0 -23 -23 -39q-45 -34 -128 -34t-132 42t-49 126q0 152 127 258q-121 14 -193 114t-71 244q0 205 122 351t306 147q108 0 182 -58t74 -149z" />
    <glyph glyph-name="Ecaron" unicode="&#x11a;" horiz-adv-x="1136" 
d="M739 1561q-10 0 -20 10l-197 201q-16 16 -4 28l14 17q16 16 31 4l182 -166l232 172q18 12 31 -4l14 -23q8 -14 -8 -28l-252 -201q-13 -10 -23 -10zM360 1434h738q27 0 22 -27l-4 -35q-4 -27 -31 -26h-663l-80 -566h573q27 0 23 -26l-4 -35q-4 -27 -31 -27h-573l-86 -606
h665q27 0 23 -27l-6 -32q-4 -27 -29 -27h-737q-27 0 -23 27l195 1380q4 27 28 27z" />
    <glyph glyph-name="ecaron" unicode="&#x11b;" horiz-adv-x="847" 
d="M547 1114q-10 0 -21 10l-196 201q-16 16 -4 29l14 16q16 16 31 4l182 -166l231 172q18 12 31 -4l14 -22q8 -14 -8 -29l-252 -201q-12 -10 -22 -10zM668 625q0 55 -50 92t-129 37q-115 0 -203 -83t-114 -210q196 -17 346 21t150 143zM72 342q0 205 122 351t306 147
q108 0 182 -58t74 -149t-62 -147t-148 -76q-176 -40 -323 -31l-61 4q-12 -135 54 -227t180 -92q116 0 225 79q23 14 32 -4l19 -30q10 -18 -14 -40t-105 -56q-82 -34 -174 -33q-139 0 -223 103t-84 259z" />
    <glyph glyph-name="Gcircumflex" unicode="&#x11c;" horiz-adv-x="1402" 
d="M964 1839q10 0 21 -10l197 -201q16 -16 4 -29l-15 -16q-16 -16 -30 -4l-183 166l-231 -172q-18 -12 -31 4l-14 22q-8 14 8 29l252 201q12 10 22 10zM133 627q1 343 233 585t547 242q258 0 420 -190q16 -20 -4 -37l-37 -33q-18 -18 -35 0q-133 168 -360 168
q-262 0 -461 -217t-198 -514q0 -233 134 -393t345 -160q102 0 199 33t145 65l47 33l49 362h-293q-16 1 -20 7t-2 20l6 41q4 25 29 25h366q9 0 17 -8t6 -17l-62 -440q-4 -37 -46 -73t-172 -91t-279 -55q-242 0 -408 186t-166 461z" />
    <glyph glyph-name="gcircumflex" unicode="&#x11d;" 
d="M313 1130l-14 23q-8 14 8 29l252 200q24 20 43 0l197 -200q16 -16 4 -29l-15 -16q-16 -16 -30 -4l-183 165l-231 -172q-19 -12 -31 4zM162 374q0 -146 66 -228q66 -83 178 -83q55 0 124 31t95 66l67 479q-4 11 -27 36q-72 76 -178 79q-139 0 -232 -117t-93 -263zM72 344
q0 205 124 350t293 146q61 0 130 -28t94 -71l16 56q6 23 29 22h22q10 0 16 -8t5 -18l-127 -936q-29 -205 -126 -297t-243 -92t-262 135q-18 20 2 41l18 18q20 20 43 -2q111 -111 211 -111q223 0 271 322l24 186q-25 -25 -86 -51t-141 -26q-141 0 -227 104t-86 260z" />
    <glyph glyph-name="Gbreve" unicode="&#x11e;" horiz-adv-x="1402" 
d="M951 1587q-93 0 -154 67t-60 161q0 29 23 28h22q16 0 21 -24q10 -72 49 -116t100 -44t116 46q54 46 79 114q10 25 27 24h32q25 0 17 -28q-31 -100 -105 -164t-167 -64zM133 627q1 343 233 585t547 242q258 0 420 -190q16 -20 -4 -37l-37 -33q-18 -18 -35 0
q-133 168 -360 168q-262 0 -461 -217t-198 -514q0 -233 134 -393t345 -160q102 0 199 33t145 65l47 33l49 362h-293q-16 1 -20 7t-2 20l6 41q4 25 29 25h366q9 0 17 -8t6 -17l-62 -440q-4 -37 -46 -73t-172 -91t-279 -55q-242 0 -408 186t-166 461z" />
    <glyph glyph-name="gbreve" unicode="&#x11f;" 
d="M575 1102q-92 0 -152 66t-65 159q0 29 25 29h23q16 0 20 -23q6 -73 46 -117t102 -44t116 46t78 115q10 23 29 23h32q23 0 15 -29q-27 -97 -102 -161t-167 -64zM162 374q0 -146 66 -228q66 -83 178 -83q55 0 124 31t95 66l67 479q-4 11 -27 36q-72 76 -178 79
q-139 0 -232 -117t-93 -263zM72 344q0 205 124 350t293 146q61 0 130 -28t94 -71l16 56q6 23 29 22h22q10 0 16 -8t5 -18l-127 -936q-29 -205 -126 -297t-243 -92t-262 135q-18 20 2 41l18 18q20 20 43 -2q111 -111 211 -111q223 0 271 322l24 186q-25 -25 -86 -51t-141 -26
q-141 0 -227 104t-86 260z" />
    <glyph glyph-name="Gdotaccent" unicode="&#x120;" horiz-adv-x="1402" 
d="M947 1659q-32 0 -50 19t-18 52t26 59q27 26 58 26q31 1 50 -19t19 -53t-26 -59q-27 -25 -59 -25zM133 627q1 343 233 585t547 242q258 0 420 -190q16 -20 -4 -37l-37 -33q-18 -18 -35 0q-133 168 -360 168q-262 0 -461 -217t-198 -514q0 -233 134 -393t345 -160
q102 0 199 33t145 65l47 33l49 362h-293q-16 1 -20 7t-2 20l6 41q4 25 29 25h366q9 0 17 -8t6 -17l-62 -440q-4 -37 -46 -73t-172 -91t-279 -55q-242 0 -408 186t-166 461z" />
    <glyph glyph-name="gdotaccent" unicode="&#x121;" 
d="M498 1264q0 32 26 58t58 26q31 0 50 -20t19 -51q-1 -33 -27 -59t-58 -26t-50 20t-18 52zM162 374q0 -146 66 -228q66 -83 178 -83q55 0 124 31t95 66l67 479q-4 11 -27 36q-72 76 -178 79q-139 0 -232 -117t-93 -263zM72 344q0 205 124 350t293 146q61 0 130 -28t94 -71
l16 56q6 23 29 22h22q10 0 16 -8t5 -18l-127 -936q-29 -205 -126 -297t-243 -92t-262 135q-18 20 2 41l18 18q20 20 43 -2q111 -111 211 -111q223 0 271 322l24 186q-25 -25 -86 -51t-141 -26q-141 0 -227 104t-86 260z" />
    <glyph glyph-name="Gcommaaccent" unicode="&#x122;" horiz-adv-x="1402" 
d="M586 -301q0 43 25 68q26 25 69 24q82 0 82 -134t-62 -224t-118 -119q-25 -14 -33 0l-14 20q-10 16 12 33q102 68 133 195q8 39 4 78q-16 -10 -31 -11q-67 0 -67 70zM133 627q1 343 233 585t547 242q258 0 420 -190q16 -20 -4 -37l-37 -33q-18 -18 -35 0
q-133 168 -360 168q-262 0 -461 -217t-198 -514q0 -233 134 -393t345 -160q102 0 199 33t145 65l47 33l49 362h-293q-16 1 -20 7t-2 20l6 41q4 25 29 25h366q9 0 17 -8t6 -17l-62 -440q-4 -37 -46 -73t-172 -91t-279 -55q-242 0 -408 186t-166 461z" />
    <glyph glyph-name="gcommaaccent" unicode="&#x123;" 
d="M162 374q0 -146 66 -228q66 -83 178 -83q55 0 124 31t95 66l67 479q-4 11 -27 36q-72 76 -178 79q-139 0 -232 -117t-93 -263zM72 344q0 205 124 350t293 146q61 0 130 -28t94 -71l16 56q6 23 29 22h22q10 0 16 -8t5 -18l-127 -936q-29 -205 -126 -297t-243 -92t-262 135
q-18 20 2 41l18 18q20 20 43 -2q111 -111 211 -111q223 0 271 322l24 186q-25 -25 -86 -51t-141 -26q-141 0 -227 104t-86 260zM561 1104q-82 0 -82 134t62 224q61 90 118 119q25 14 33 0l15 -20q10 -16 -13 -33q-102 -68 -133 -195q-8 -39 -4 -78q16 10 31 11q68 0 67 -70
q0 -43 -25 -68q-26 -24 -69 -24z" />
    <glyph glyph-name="Hcircumflex" unicode="&#x124;" horiz-adv-x="1433" 
d="M892 1839q10 0 21 -10l197 -201q16 -16 4 -29l-14 -16q-16 -16 -31 -4l-182 166l-232 -172q-18 -12 -30 4l-15 22q-8 14 8 29l252 201q12 10 22 10zM360 1434h46q27 0 22 -27l-90 -629h815l88 629q4 27 29 27h45q27 0 22 -27l-194 -1380q-4 -27 -29 -27h-45q-27 0 -22 27
l94 665h-813l-95 -665q-4 -27 -30 -27h-43q-27 0 -23 27l195 1380q4 27 28 27z" />
    <glyph glyph-name="hcircumflex" unicode="&#x125;" horiz-adv-x="944" 
d="M366 1837q10 0 21 -10l197 -201q16 -16 4 -29l-15 -16q-16 -16 -30 -4l-183 166l-231 -172q-19 -12 -31 4l-14 22q-8 14 8 29l252 201q12 10 22 10zM303 1434h35q27 0 22 -27l-98 -694q31 37 110 82t173 45q135 0 201 -98t40 -277l-61 -438q-4 -27 -31 -27h-37
q-27 0 -22 27l61 438q20 141 -23 215q-44 74 -143 74q-70 0 -140 -37t-100 -65q-28 -28 -42 -44l-82 -581q-4 -27 -31 -27h-39q-22 0 -18 27l194 1380q4 27 31 27z" />
    <glyph glyph-name="Hbar" unicode="&#x126;" horiz-adv-x="1437" 
d="M342 780h813l47 330h-815zM244 1110q-24 0 -18 32q5 32 28 32h47l33 233q4 27 28 27h46q27 0 22 -27l-33 -233h813l33 233q4 27 35 27h41q27 0 22 -27l-32 -233h45q27 0 22 -25l-2 -14q-4 -25 -28 -25h-46l-153 -1083q-4 -27 -29 -27h-43q-31 0 -26 37l94 655h-813
l-94 -665q-4 -27 -37 -27h-37q-27 0 -23 27l152 1083h-47z" />
    <glyph glyph-name="hbar" unicode="&#x127;" horiz-adv-x="937" 
d="M158 1110q-24 0 -18 32q5 32 28 32h70l32 233q4 27 31 27h35q27 0 22 -27l-32 -233h340q27 0 22 -25l-2 -14q-4 -25 -29 -25h-342l-55 -401q51 59 133 95q83 36 150 36q143 0 203 -96t36 -279l-63 -438q-4 -27 -29 -27h-37q-27 0 -22 27l61 438q20 141 -23 214
q-44 73 -145 73q-68 0 -153 -45t-125 -99l-82 -581q-4 -27 -33 -27h-33q-26 0 -22 27l153 1083h-71z" />
    <glyph glyph-name="Itilde" unicode="&#x128;" horiz-adv-x="524" 
d="M328 1851q48 -1 76 -29t39 -64q28 -93 77 -93q68 0 115 121q10 25 31 14l24 -8q14 -10 8 -27q-66 -176 -190 -176q-41 0 -70 30q-29 31 -41 65q-33 94 -75 94q-72 0 -121 -129q-9 -23 -29 -13l-22 11q-18 6 -9 28q1 11 29 59t42 61t41 35q26 22 75 21zM360 1434h46
q27 0 22 -27l-192 -1380q-6 -27 -33 -27h-43q-27 0 -23 27l193 1380q4 27 30 27z" />
    <glyph glyph-name="itilde" unicode="&#x129;" horiz-adv-x="395" 
d="M252 819q27 0 22 -26l-110 -766q-4 -27 -33 -27h-33q-26 0 -22 27l108 766q4 27 29 26h39zM206 1401q48 0 76 -29q28 -28 39 -64q29 -94 76 -94q68 0 115 121q10 25 31 15l24 -9q14 -10 8 -26q-66 -176 -190 -176q-41 -1 -70 29t-41 65q-32 94 -75 94q-72 0 -121 -129
q-9 -22 -29 -12l-22 10q-18 6 -9 29q0 2 23 50t43 65q20 18 47 40t75 21z" />
    <glyph glyph-name="Imacron" unicode="&#x12a;" horiz-adv-x="524" 
d="M168 1702q-27 0 -23 27l5 24q4 27 28 27h498q27 0 20 -27l-2 -24q-4 -27 -30 -27h-496zM360 1434h46q27 0 22 -27l-192 -1380q-6 -27 -33 -27h-43q-27 0 -23 27l193 1380q4 27 30 27z" />
    <glyph glyph-name="imacron" unicode="&#x12b;" horiz-adv-x="395" 
d="M252 819q27 0 22 -26l-110 -766q-4 -27 -33 -27h-33q-26 0 -22 27l108 766q4 27 29 26h39zM41 1219q-27 0 -23 24l5 27q4 27 28 26h496q27 0 22 -26l-4 -27q-4 -25 -28 -24h-496z" />
    <glyph glyph-name="Ibreve" unicode="&#x12c;" horiz-adv-x="524" 
d="M411 1587q-93 0 -155 67q-61 67 -59 161q0 29 22 28h23q16 0 20 -24q10 -72 49 -116t101 -44t115 46q54 46 79 114q10 25 27 24h33q25 0 16 -28q-30 -100 -104 -164t-167 -64zM360 1434h46q27 0 22 -27l-192 -1380q-6 -27 -33 -27h-43q-27 0 -23 27l193 1380q4 27 30 27z
" />
    <glyph glyph-name="ibreve" unicode="&#x12d;" horiz-adv-x="395" 
d="M252 819q27 0 22 -26l-110 -766q-4 -27 -33 -27h-33q-26 0 -22 27l108 766q4 27 29 26h39zM282 1102q-92 0 -152 66t-64 159q0 29 24 29h23q16 0 20 -23q6 -73 46 -117q41 -44 103 -44t116 46t77 115q10 23 29 23h33q20 0 14 -29q-27 -98 -101 -162q-76 -63 -168 -63z
" />
    <glyph glyph-name="Iogonek" unicode="&#x12e;" horiz-adv-x="526" 
d="M362 1434h46q27 0 22 -27l-192 -1380q-6 -27 -33 -27h-23q-57 -36 -103 -102t-46 -136t33 -101q34 -30 82 -30q48 1 88 19t44 11t5 -30q0 -23 -23 -39q-45 -34 -128 -34t-132 42t-49 129t51 169t133 122l195 1387q4 27 30 27z" />
    <glyph glyph-name="iogonek" unicode="&#x12f;" horiz-adv-x="397" 
d="M254 819q27 0 22 -26l-108 -766q-4 -27 -29 -27h-22q-57 -35 -104 -101q-46 -67 -46 -137t33 -101q33 -30 82 -30q49 1 89 19t44 11t4 -30t-22 -39q-45 -34 -129 -34t-132 42t-48 130t52 170t136 123l110 770q4 27 31 26h37zM308 1360q28 0 44 -18t16 -48q0 -29 -22 -51
q-24 -22 -52 -22t-44 17t-16 46q0 28 23 52t51 24z" />
    <glyph glyph-name="Idotaccent" unicode="&#x130;" horiz-adv-x="524" 
d="M430 1815q30 1 50 -19t20 -53t-26 -59t-59 -25q-32 0 -50 19q-19 19 -19 52t27 59t57 26zM360 1434h46q27 0 22 -27l-192 -1380q-6 -27 -33 -27h-43q-27 0 -23 27l193 1380q4 27 30 27z" />
    <glyph glyph-name="dotlessi" unicode="&#x131;" horiz-adv-x="395" 
d="M252 819q27 0 22 -26l-110 -766q-4 -27 -33 -27h-33q-26 0 -22 27l108 766q4 27 29 26h39z" />
    <glyph glyph-name="IJ" unicode="&#x132;" horiz-adv-x="1275" 
d="M1174 1434h43q27 0 22 -27l-137 -975q-32 -215 -142 -334t-282 -119t-260 154q-10 18 6 35l29 22q23 18 34 0q86 -124 203 -124t204 94t112 270l137 977q4 27 31 27zM360 1434h46q27 0 22 -27l-192 -1380q-6 -27 -33 -27h-43q-27 0 -23 27l193 1380q4 27 30 27z" />
    <glyph glyph-name="ij" unicode="&#x133;" horiz-adv-x="831" 
d="M688 819q27 0 23 -26l-150 -1074q-51 -354 -317 -354q-121 0 -199 88q-12 14 0 29l25 31q14 23 32 0q68 -63 150 -64q184 0 221 270l152 1074q4 27 28 26h35zM670 1284q0 28 24 52t50 24q28 0 44 -18t16 -48q0 -29 -22 -51q-24 -22 -52 -22t-44 17t-16 46zM254 819
q27 0 22 -26l-108 -766q-4 -27 -29 -27h-43q-22 0 -18 27l108 766q4 27 31 26h37zM308 1360q28 0 44 -18t16 -48q0 -29 -22 -51q-24 -22 -52 -22t-44 17t-16 46q0 28 23 52t51 24z" />
    <glyph glyph-name="Jcircumflex" unicode="&#x134;" horiz-adv-x="765" 
d="M737 1839q10 0 21 -10l196 -201q16 -16 4 -29l-14 -16q-16 -16 -31 -4l-182 166l-231 -172q-18 -12 -31 4l-14 22q-8 14 8 29l252 201q12 10 22 10zM664 1434h43q27 0 22 -27l-137 -975q-32 -215 -142 -334t-282 -119t-260 154q-10 18 6 35l29 22q23 18 34 0
q86 -124 203 -124t204 94t112 270l137 977q4 27 31 27z" />
    <glyph glyph-name="jcircumflex" unicode="&#x135;" horiz-adv-x="393" 
d="M39 1130l-14 23q-8 14 8 29l252 200q23 20 43 0l196 -200q16 -16 4 -29l-14 -16q-16 -16 -31 -4l-182 165l-231 -172q-19 -12 -31 4zM250 819q27 0 22 -26l-149 -1074q-51 -354 -322 -354q-63 0 -116 28q-105 55 -78 89l26 33q14 23 33 0q74 -68 148 -68q182 0 221 272
l151 1074q4 27 29 26h35z" />
    <glyph glyph-name="Kcommaaccent" unicode="&#x136;" horiz-adv-x="1124" 
d="M379 -301q0 43 25 68q26 25 69 24q82 0 82 -134t-61 -224t-119 -119q-25 -14 -33 0l-14 20q-10 16 12 33q102 68 133 195q8 39 4 78q-16 -10 -31 -11q-67 0 -67 70zM365 1434h38q31 0 27 -31l-90 -633l707 649q18 14 40 15h62q16 0 18 -12t-10 -23l-729 -670l559 -694
q10 -7 2 -21t-28 -14h-50q-23 0 -41 20l-540 680l-94 -673q-2 -27 -35 -27h-41q-27 0 -23 27l195 1376q4 31 33 31z" />
    <glyph glyph-name="kcommaaccent" unicode="&#x137;" horiz-adv-x="804" 
d="M242 -301q0 43 25 68q26 25 69 24q82 0 82 -134t-62 -224t-118 -119q-25 -14 -33 0l-15 20q-10 16 13 33q102 68 133 195q8 39 4 78q-16 -10 -31 -11q-67 0 -67 70zM299 1434h39q27 0 22 -27l-129 -918l416 318q16 12 33 12h68q20 0 16 -18q-2 -8 -10 -15l-447 -335
l371 -416q10 -11 3 -23t-19 -12h-48q-25 0 -39 16l-354 408l-55 -397q-4 -27 -31 -27h-39q-22 0 -18 27l194 1380q4 27 27 27z" />
    <glyph glyph-name="kgreenlandic" unicode="&#x138;" horiz-adv-x="813" 
d="M252 819q10 0 16 -8t4 -18l-49 -349l441 363q14 12 32 12h66q19 0 13 -15q-7 -15 -15 -22l-457 -372l381 -375q8 -11 2 -23t-18 -12h-52q-14 0 -32 16l-371 363l-49 -352q-4 -27 -29 -27h-31q-12 0 -21 8t-7 19l108 766q4 27 29 26h39z" />
    <glyph glyph-name="Lacute" unicode="&#x139;" horiz-adv-x="913" 
d="M270 1599q-25 -10 -30 7l-9 22q-6 16 17 29l321 184q25 12 33 -6l19 -43q6 -20 -13 -31zM360 1434h48q10 0 16 -8t4 -19l-186 -1321h579q27 0 23 -27l-6 -36q-4 -23 -29 -23h-649q-27 0 -23 27l195 1380q4 27 28 27z" />
    <glyph glyph-name="lacute" unicode="&#x13a;" horiz-adv-x="397" 
d="M203 1589q-25 -10 -31 6l-8 23q-6 16 16 29l322 184q25 12 33 -6l18 -43q6 -20 -12 -31zM297 1434h43q10 0 17 -8t5 -19l-194 -1380q-4 -27 -31 -27h-41q-22 0 -18 27l194 1380q4 27 25 27z" />
    <glyph glyph-name="Lcommaaccent" unicode="&#x13b;" horiz-adv-x="913" 
d="M358 -301q0 43 26 68t69 24q82 0 82 -134q1 -134 -61 -224t-120 -119q-25 -14 -32 0l-15 20q-10 16 12 33q102 68 134 195q8 39 4 78q-16 -10 -31 -11q-68 0 -68 70zM360 1434h48q10 0 16 -8t4 -19l-186 -1321h579q27 0 23 -27l-6 -36q-4 -23 -29 -23h-649q-27 0 -23 27
l195 1380q4 27 28 27z" />
    <glyph glyph-name="lcommaaccent" unicode="&#x13c;" horiz-adv-x="397" 
d="M-6 -301q0 43 25 68q26 25 69 24q82 0 82 -134t-61 -224t-119 -119q-25 -14 -33 0l-14 20q-10 16 12 33q102 68 133 195q8 39 4 78q-16 -10 -31 -11q-67 0 -67 70zM297 1434h43q10 0 17 -8t5 -19l-194 -1380q-4 -27 -31 -27h-41q-22 0 -18 27l194 1380q4 27 25 27z" />
    <glyph glyph-name="Lcaron" unicode="&#x13d;" horiz-adv-x="913" 
d="M692 1364q0 43 26 68t68 24q82 0 82 -134t-61 -224t-119 -119q-25 -14 -33 0l-14 20q-10 16 12 33q102 68 133 195q8 39 5 78q-16 -10 -31 -11q-68 0 -68 70zM360 1434h48q10 0 16 -8t4 -19l-186 -1321h579q27 0 23 -27l-6 -36q-4 -23 -29 -23h-649q-27 0 -23 27
l195 1380q4 27 28 27z" />
    <glyph glyph-name="lcaron" unicode="&#x13e;" horiz-adv-x="458" 
d="M557 1369q0 36 27 61t69 24q82 0 82 -134t-61 -224t-119 -119q-25 -14 -33 0l-14 20q-10 16 12 33q100 66 131 195q10 43 4 78q-13 -11 -37 -11t-42 20t-19 57zM297 1434h43q10 0 17 -8t5 -19l-194 -1380q-4 -27 -31 -27h-41q-22 0 -18 27l194 1380q4 27 25 27z" />
    <glyph glyph-name="Ldot" unicode="&#x13f;" horiz-adv-x="1017" 
d="M853 647q-32 -1 -50 19q-19 20 -19 53t27 59t57 25q30 1 50 -19t20 -53t-26 -59t-59 -25zM360 1434h48q10 0 16 -8t4 -19l-186 -1321h579q27 0 23 -27l-6 -36q-4 -23 -29 -23h-649q-27 0 -23 27l195 1380q4 27 28 27z" />
    <glyph glyph-name="ldot" unicode="&#x140;" horiz-adv-x="669" 
d="M550 657q-32 1 -50 21t-18 52t26 58q28 26 58 25q30 0 49 -19q19 -20 19 -52t-26 -58t-58 -27zM297 1434h43q10 0 17 -8t5 -19l-194 -1380q-4 -27 -31 -27h-41q-22 0 -18 27l194 1380q4 27 25 27z" />
    <glyph glyph-name="Lslash" unicode="&#x141;" horiz-adv-x="935" 
d="M371 1434h43q27 0 22 -27l-88 -625l281 152q23 16 30 -10l5 -13q8 -23 -15 -32l-311 -170l-88 -623h594q27 0 22 -31l-4 -28q-4 -27 -31 -27h-663q-27 0 -23 27l88 628l-61 -32q-23 -14 -31 8q-10 38 9 47l94 49l96 680q4 27 31 27z" />
    <glyph glyph-name="lslash" unicode="&#x142;" horiz-adv-x="460" 
d="M332 1434h37q10 0 17 -8t5 -19l-86 -600l221 121q23 12 31 -10l4 -13q8 -20 -14 -33l-252 -137l-98 -708q-4 -27 -33 -27h-33q-26 0 -22 27l92 659l-129 -70q-25 -12 -31 9q-12 37 8 47l162 86l92 649q4 27 29 27z" />
    <glyph glyph-name="Nacute" unicode="&#x143;" horiz-adv-x="1460" 
d="M748 1599q-25 -10 -31 7l-8 22q-6 16 16 29l322 184q25 12 32 -6l19 -43q6 -20 -13 -31zM367 1454h30l703 -1272h4l168 1225q4 27 31 27h40q27 0 23 -27l-197 -1401q-2 -27 -34 -26h-33l-699 1275h-2l-172 -1228q-4 -27 -51 -27h-18q-27 0 -23 27l197 1400q6 27 33 27z
" />
    <glyph glyph-name="nacute" unicode="&#x144;" horiz-adv-x="942" 
d="M420 1145q-25 -10 -31 6l-8 23q-6 16 16 28l322 184q25 12 33 -6l18 -43q6 -20 -12 -30zM236 819q23 0 22 -20l-4 -82q31 37 112 80t177 43q145 0 205 -100t36 -275l-61 -438q-4 -27 -31 -27h-37q-27 0 -22 27l61 438q20 141 -23 215q-44 74 -147 74q-66 0 -151 -44
t-127 -100l-82 -583q-4 -27 -31 -27h-39q-22 0 -18 27l108 766q4 27 31 26h21z" />
    <glyph glyph-name="Ncommaaccent" unicode="&#x145;" horiz-adv-x="1460" 
d="M539 -301q0 43 25 68q26 25 69 24q82 0 82 -134q1 -134 -61 -224t-119 -119q-25 -14 -33 0l-15 20q-10 16 13 33q102 68 133 195q8 39 4 78q-16 -10 -31 -11q-67 0 -67 70zM367 1454h30l703 -1272h4l168 1225q4 27 31 27h40q27 0 23 -27l-197 -1401q-2 -27 -34 -26h-33
l-699 1275h-2l-172 -1228q-4 -27 -51 -27h-18q-27 0 -23 27l197 1400q6 27 33 27z" />
    <glyph glyph-name="ncommaaccent" unicode="&#x146;" horiz-adv-x="944" 
d="M272 -301q0 43 26 68t69 24q82 0 82 -134q1 -134 -61 -224t-120 -119q-25 -14 -32 0l-15 20q-10 16 12 33q102 68 134 195q8 39 4 78q-16 -10 -31 -11q-68 0 -68 70zM236 819q23 0 22 -20l-4 -82q31 37 112 80t177 43q145 0 205 -100t36 -275l-61 -438q-4 -27 -31 -27
h-37q-27 0 -22 27l61 438q20 141 -23 215q-44 74 -147 74q-66 0 -151 -44t-127 -100l-82 -583q-4 -27 -31 -27h-39q-22 0 -18 27l108 766q4 27 31 26h21z" />
    <glyph glyph-name="Ncaron" unicode="&#x147;" horiz-adv-x="1460" 
d="M885 1561q-10 0 -21 10l-196 201q-16 16 -4 28l14 17q16 16 31 4l182 -166l231 172q18 12 31 -4l14 -23q8 -14 -8 -28l-252 -201q-12 -10 -22 -10zM367 1454h30l703 -1272h4l168 1225q4 27 31 27h40q27 0 23 -27l-197 -1401q-2 -27 -34 -26h-33l-699 1275h-2l-172 -1228
q-4 -27 -51 -27h-18q-27 0 -23 27l197 1400q6 27 33 27z" />
    <glyph glyph-name="ncaron" unicode="&#x148;" horiz-adv-x="942" 
d="M555 1114q-10 0 -20 10l-197 201q-16 16 -4 29l14 16q16 16 31 4l182 -166l232 172q18 12 30 -4l15 -22q8 -14 -9 -29l-251 -201q-13 -10 -23 -10zM236 819q23 0 22 -20l-4 -82q31 37 112 80t177 43q145 0 205 -100t36 -275l-61 -438q-4 -27 -31 -27h-37q-27 0 -22 27
l61 438q20 141 -23 215q-44 74 -147 74q-66 0 -151 -44t-127 -100l-82 -583q-4 -27 -31 -27h-39q-22 0 -18 27l108 766q4 27 31 26h21z" />
    <glyph glyph-name="napostrophe" unicode="&#x149;" horiz-adv-x="942" 
d="M-59 1362q0 43 25 68q26 25 69 24q82 0 82 -134q1 -134 -61 -224t-119 -119q-25 -14 -33 0l-15 20q-10 16 13 33q102 68 133 195q8 39 4 78q-16 -10 -31 -11q-67 0 -67 70zM236 819q23 0 22 -20l-4 -82q31 37 112 80t177 43q145 0 205 -100t36 -275l-61 -438
q-4 -27 -31 -27h-37q-27 0 -22 27l61 438q20 141 -23 215q-44 74 -147 74q-66 0 -151 -44t-127 -100l-82 -583q-4 -27 -31 -27h-39q-22 0 -18 27l108 766q4 27 31 26h21z" />
    <glyph glyph-name="Eng" unicode="&#x14a;" horiz-adv-x="1462" 
d="M367 1454h30l703 -1272h4l168 1225q4 27 31 27h40q27 0 23 -27l-238 -1688q-51 -354 -321 -354q-63 0 -117 28q-106 55 -78 89l27 33q14 23 33 0q74 -68 147 -68q180 0 219 272l41 301l-676 1235h-2l-172 -1228q-4 -27 -51 -27h-18q-27 0 -23 27l197 1400q6 27 33 27z
" />
    <glyph glyph-name="eng" unicode="&#x14b;" horiz-adv-x="942" 
d="M236 819q23 0 22 -20l-4 -82q31 37 112 80t177 43q145 0 205 -100t36 -275l-106 -746q-51 -354 -322 -354q-63 0 -116 28q-105 55 -78 89l26 33q14 23 33 0q74 -68 148 -68q176 0 215 272l110 754q20 135 -24 207q-45 72 -146 72q-66 0 -147 -42t-131 -100l-82 -583
q-4 -27 -31 -27h-39q-22 0 -18 27l108 766q4 27 31 26h21z" />
    <glyph glyph-name="Omacron" unicode="&#x14c;" horiz-adv-x="1570" 
d="M713 1702q-27 0 -23 27l4 24q4 27 29 27h498q27 0 20 -27l-2 -24q-4 -27 -31 -27h-495zM227 627q1 -233 139 -395t349 -162q264 0 467 216t202 515q0 235 -138 399t-349 164q-266 0 -468 -218t-202 -519zM133 614q0 346 228 593t548 247q242 0 406 -186t164 -455
q-1 -346 -229 -590t-548 -243q-242 0 -406 184t-163 450z" />
    <glyph glyph-name="omacron" unicode="&#x14d;" horiz-adv-x="937" 
d="M322 1219q-27 0 -23 24l4 27q4 27 29 26h495q27 0 23 -26l-4 -27q-4 -25 -29 -24h-495zM496 754q-134 0 -234 -117t-100 -261t66 -228q66 -85 169 -85q133 0 233 118q99 119 99 261t-65 227q-66 85 -168 85zM72 350q0 201 128 345t308 145q133 0 223 -109t90 -262
q0 -201 -129 -345t-305 -144q-133 0 -224 108t-91 262z" />
    <glyph glyph-name="Obreve" unicode="&#x14e;" horiz-adv-x="1570" 
d="M951 1587q-93 0 -154 67t-60 161q0 29 23 28h22q16 0 21 -24q10 -72 49 -116t100 -44t116 46q54 46 79 114q10 25 27 24h32q25 0 17 -28q-31 -100 -105 -164t-167 -64zM227 627q1 -233 139 -395t349 -162q264 0 467 216t202 515q0 235 -138 399t-349 164
q-266 0 -468 -218t-202 -519zM133 614q0 346 228 593t548 247q242 0 406 -186t164 -455q-1 -346 -229 -590t-548 -243q-242 0 -406 184t-163 450z" />
    <glyph glyph-name="obreve" unicode="&#x14f;" horiz-adv-x="937" 
d="M573 1102q-92 0 -152 66t-65 159q0 29 25 29h22q16 0 21 -23q6 -73 46 -117t102 -44t116 46t78 115q10 23 29 23h32q20 0 15 -29q-27 -97 -102 -161t-167 -64zM496 754q-134 0 -234 -117t-100 -261t66 -228q66 -85 169 -85q133 0 233 118q99 119 99 261t-65 227
q-66 85 -168 85zM72 350q0 201 128 345t308 145q133 0 223 -109t90 -262q0 -201 -129 -345t-305 -144q-133 0 -224 108t-91 262z" />
    <glyph glyph-name="Ohungarumlaut" unicode="&#x150;" horiz-adv-x="1570" 
d="M762 1569q-23 0 -12 24l182 326q12 23 31 23h47q16 0 21 -10t-5 -25l-213 -322q-8 -16 -27 -16h-24zM1067 1569q-25 0 -10 24l182 326q10 23 31 23h45q16 0 21 -10t-5 -25l-211 -322q-10 -16 -28 -16h-25zM227 627q1 -233 139 -395t349 -162q264 0 467 216t202 515
q0 235 -138 399t-349 164q-266 0 -468 -218t-202 -519zM133 614q0 346 228 593t548 247q242 0 406 -186t164 -455q-1 -346 -229 -590t-548 -243q-242 0 -406 184t-163 450z" />
    <glyph glyph-name="ohungarumlaut" unicode="&#x151;" horiz-adv-x="937" 
d="M369 1061q-23 0 -13 24l183 326q12 23 30 23h47q37 0 15 -35l-211 -322q-10 -16 -27 -16h-24zM674 1061q-25 0 -10 24l182 326q10 23 28 23h48q16 0 21 -10t-5 -25l-213 -322q-8 -16 -27 -16h-24zM496 754q-134 0 -234 -117t-100 -261t66 -228q66 -85 169 -85
q133 0 233 118q99 119 99 261t-65 227q-66 85 -168 85zM72 350q0 201 128 345t308 145q133 0 223 -109t90 -262q0 -201 -129 -345t-305 -144q-133 0 -224 108t-91 262z" />
    <glyph glyph-name="OE" unicode="&#x152;" horiz-adv-x="1830" 
d="M221 627q0 -233 139 -395t353 -162q70 0 129 14l178 1262q-66 16 -127 16q-264 0 -468 -218t-204 -517zM133 614q0 346 228 593t544 247q88 0 156 -20h733q25 0 21 -27l-5 -35q-4 -27 -28 -26h-666l-78 -566h574q27 0 22 -26l-4 -35q-4 -27 -31 -27h-573l-86 -606h666
q10 0 16 -8t4 -19l-6 -32q-4 -27 -27 -27h-733q-76 -20 -162 -20q-242 0 -404 183t-161 451z" />
    <glyph glyph-name="oe" unicode="&#x153;" horiz-adv-x="1458" 
d="M158 376q0 -144 66 -228q66 -85 162 -85q95 -1 177 57t113 124l49 348q-23 59 -86 110t-147 52q-134 0 -234 -117t-100 -261zM1102 754q-88 0 -169 -47t-130 -113l-17 -119q201 -31 353 5t151 145q0 55 -50 92t-138 37zM70 350q0 201 128 345q128 145 309 145t265 -162
q64 76 158 119t192 43t178 -60q78 -60 78 -151q0 -93 -62 -149t-150 -71q-189 -32 -326 -14l-64 8l-22 -180q29 -71 89 -115q59 -44 155 -44t208 75q20 14 31 -2l18 -31q8 -14 -10 -32q-39 -35 -121 -65q-82 -29 -164 -29t-154 50q-73 50 -104 120q-133 -170 -321 -170
q-131 0 -221 108t-90 262z" />
    <glyph glyph-name="Racute" unicode="&#x154;" horiz-adv-x="1239" 
d="M571 1599q-25 -10 -30 7l-9 22q-6 16 17 29l321 184q25 12 33 -6l19 -43q6 -20 -13 -31zM705 639q143 0 255 118t111 283q0 127 -76 213t-192 86h-383l-98 -700h383zM360 1434h461q145 0 249 -111t104 -277t-104 -302q-104 -134 -259 -177l190 -530q6 -13 1 -25t-21 -12
h-59q-18 0 -25 18l-188 537q-25 -2 -76 -2h-326l-74 -526q-4 -27 -36 -27h-37q-27 0 -23 27l195 1380q4 27 28 27z" />
    <glyph glyph-name="racute" unicode="&#x155;" horiz-adv-x="624" 
d="M248 1145q-25 -10 -31 6l-8 23q-6 16 16 28l322 184q25 12 33 -6l18 -43q6 -20 -12 -30zM240 819q20 0 20 -22l-4 -78q24 37 90 79t140 42t114 -20q39 -20 27 -42l-21 -41q-12 -23 -35 -10q-45 27 -98 27t-125 -44t-100 -100l-82 -583q-4 -27 -29 -27h-43q-22 0 -18 27
l108 766q4 27 29 26h27z" />
    <glyph glyph-name="Rcommaaccent" unicode="&#x156;" horiz-adv-x="1236" 
d="M403 -301q0 43 26 68t69 24q82 0 82 -134t-62 -224t-119 -119q-25 -14 -32 0l-15 20q-10 16 13 33q102 68 133 195q8 39 4 78q-16 -10 -31 -11q-68 0 -68 70zM705 639q143 0 255 118t111 283q0 127 -76 213t-192 86h-383l-98 -700h383zM360 1434h461q145 0 249 -111
t104 -277t-104 -302q-104 -134 -259 -177l190 -530q6 -13 1 -25t-21 -12h-59q-18 0 -25 18l-188 537q-25 -2 -76 -2h-326l-74 -526q-4 -27 -36 -27h-37q-27 0 -23 27l195 1380q4 27 28 27z" />
    <glyph glyph-name="rcommaaccent" unicode="&#x157;" horiz-adv-x="624" 
d="M-4 -301q0 43 26 68t68 24q82 0 82 -134t-61 -224t-119 -119q-25 -14 -33 0l-14 20q-10 16 12 33q102 68 133 195q8 39 4 78q-16 -10 -31 -11q-67 0 -67 70zM240 819q20 0 20 -22l-4 -78q24 37 90 79t140 42t114 -20q39 -20 27 -42l-21 -41q-12 -23 -35 -10
q-45 27 -98 27t-125 -44t-100 -100l-82 -583q-4 -27 -29 -27h-43q-22 0 -18 27l108 766q4 27 29 26h27z" />
    <glyph glyph-name="Rcaron" unicode="&#x158;" horiz-adv-x="1239" 
d="M709 1561q-10 0 -21 10l-196 201q-16 16 -5 28l15 17q16 16 30 4l183 -166l231 172q18 12 31 -4l14 -23q8 -14 -8 -28l-252 -201q-12 -10 -22 -10zM705 639q143 0 255 118t111 283q0 127 -76 213t-192 86h-383l-98 -700h383zM360 1434h461q145 0 249 -111t104 -277
t-104 -302q-104 -134 -259 -177l190 -530q6 -13 1 -25t-21 -12h-59q-18 0 -25 18l-188 537q-25 -2 -76 -2h-326l-74 -526q-4 -27 -36 -27h-37q-27 0 -23 27l195 1380q4 27 28 27z" />
    <glyph glyph-name="rcaron" unicode="&#x159;" horiz-adv-x="624" 
d="M383 1114q-10 0 -21 10l-196 201q-16 16 -4 29l14 16q16 16 31 4l182 -166l232 172q18 12 30 -4l15 -22q8 -14 -9 -29l-251 -201q-13 -10 -23 -10zM240 819q20 0 20 -22l-4 -78q24 37 90 79t140 42t114 -20q39 -20 27 -42l-21 -41q-12 -23 -35 -10q-45 27 -98 27
t-125 -44t-100 -100l-82 -583q-4 -27 -29 -27h-43q-22 0 -18 27l108 766q4 27 29 26h27z" />
    <glyph glyph-name="Sacute" unicode="&#x15a;" horiz-adv-x="1036" 
d="M524 1583q-25 -10 -30 6l-9 23q-6 16 17 28l321 185q25 12 33 -6l18 -43q6 -20 -12 -31zM653 1454q80 0 156 -27t111 -51l34 -26q20 -20 2 -43l-18 -25q-23 -32 -49 -6q-6 4 -16 10t-33 20q-94 60 -199 60q-166 0 -258 -95t-92 -201t64 -171q65 -63 221 -138t243 -158
q86 -83 86 -218q0 -178 -136 -292q-137 -114 -335 -114t-352 168q-20 20 0 43l24 25q23 31 44 4q137 -153 290 -153t260 89q106 89 106 207t-72 182q-74 65 -192 125t-166 91t-93 74q-90 86 -89 231q2 145 118 267t341 122z" />
    <glyph glyph-name="sacute" unicode="&#x15b;" horiz-adv-x="708" 
d="M301 1147q-25 -10 -31 6l-8 23q-6 16 17 28l321 185q25 12 33 -7l18 -43q6 -20 -12 -30zM483 219q0 37 -26 69q-27 32 -57 49t-110 56t-129 89q-50 50 -50 133t69 154q70 71 193 71t209 -66q20 -14 4 -37l-19 -26q-16 -23 -37 -6q-72 51 -156 51t-130 -45
q-45 -45 -45 -97t38 -85q38 -35 106 -67q107 -51 169 -95q61 -44 61 -146q0 -101 -84 -171t-213 -70t-227 92q-14 14 -4 28l27 33q14 23 29 7q71 -78 205 -80q64 0 121 45q56 46 56 114z" />
    <glyph glyph-name="Scircumflex" unicode="&#x15c;" horiz-adv-x="1036" 
d="M446 1556q-18 -12 -30 5l-15 22q-8 14 9 29l252 200q23 20 43 0l196 -200q16 -16 4 -29l-14 -16q-16 -16 -31 -4l-182 166zM653 1454q80 0 156 -27t111 -51l34 -26q20 -20 2 -43l-18 -25q-23 -32 -49 -6q-6 4 -16 10t-33 20q-94 60 -199 60q-166 0 -258 -95t-92 -201
t64 -171q65 -63 221 -138t243 -158q86 -83 86 -218q0 -178 -136 -292q-137 -114 -335 -114t-352 168q-20 20 0 43l24 25q23 31 44 4q137 -153 290 -153t260 89q106 89 106 207t-72 182q-74 65 -192 125t-166 91t-93 74q-90 86 -89 231q2 145 118 267t341 122z" />
    <glyph glyph-name="scircumflex" unicode="&#x15d;" horiz-adv-x="708" 
d="M199 1133l-15 22q-8 14 9 29l251 200q24 20 43 0l197 -200q16 -16 4 -29l-14 -16q-16 -16 -31 -4l-182 165l-232 -172q-18 -11 -30 5zM483 219q0 37 -26 69q-27 32 -57 49t-110 56t-129 89q-50 50 -50 133t69 154q70 71 193 71t209 -66q20 -14 4 -37l-19 -26
q-16 -23 -37 -6q-72 51 -156 51t-130 -45q-45 -45 -45 -97t38 -85q38 -35 106 -67q107 -51 169 -95q61 -44 61 -146q0 -101 -84 -171t-213 -70t-227 92q-14 14 -4 28l27 33q14 23 29 7q71 -78 205 -80q64 0 121 45q56 46 56 114z" />
    <glyph glyph-name="Scedilla" unicode="&#x15e;" horiz-adv-x="1038" 
d="M655 1454q80 0 156 -27t111 -51l34 -26q20 -20 2 -43l-18 -25q-20 -27 -51 -6q-6 6 -24 17q-19 11 -32 19q-82 54 -190 54q-166 0 -258 -95t-92 -201t64 -171q65 -63 221 -138t243 -158q86 -83 86 -218q0 -176 -135 -290t-328 -115l-12 -91q70 -8 121 -54t51 -129
q0 -82 -59 -148t-154 -66q-51 0 -88 22t-47 48t6 37l21 16q14 6 17 4t13 -16q27 -37 85 -37t92 41t34 98q0 100 -149 123q-25 6 -21 27l19 131q-164 24 -289 161q-20 20 0 43l25 25q23 31 43 4q136 -153 290 -153t260 89t106 207t-72 182q-74 65 -192 125t-166 91t-93 74
q-90 86 -89 231q2 145 118 267t341 122z" />
    <glyph glyph-name="scedilla" unicode="&#x15f;" horiz-adv-x="710" 
d="M485 219q0 37 -26 69q-27 32 -57 49t-110 56t-129 89q-50 50 -50 133t69 154q70 71 193 71t209 -66q20 -14 4 -37l-19 -26q-16 -23 -37 -6q-72 51 -156 51t-130 -45q-45 -45 -45 -97t38 -85q38 -35 106 -67q107 -51 169 -95q61 -44 61 -146q1 -101 -83 -171t-207 -70
l-13 -91q70 -8 121 -54t51 -129q0 -82 -59 -148t-154 -66q-51 0 -88 22t-47 48t6 37l21 16q14 6 17 4t14 -16q27 -37 85 -37t92 41t34 98q0 100 -150 123q-25 6 -20 27l18 133q-94 16 -162 84q-14 14 -4 28l27 33q14 23 30 7q73 -78 171 -80q98 -1 154 45t56 114z" />
    <glyph glyph-name="Scaron" unicode="&#x160;" horiz-adv-x="1036" 
d="M657 1544q-10 0 -20 10l-197 201q-16 16 -4 29l15 16q16 16 30 4l183 -166l231 172q18 12 31 -4l14 -22q8 -14 -8 -29l-252 -201q-13 -10 -23 -10zM653 1454q80 0 156 -27t111 -51l34 -26q20 -20 2 -43l-18 -25q-23 -32 -49 -6q-6 4 -16 10t-33 20q-94 60 -199 60
q-166 0 -258 -95t-92 -201t64 -171q65 -63 221 -138t243 -158q86 -83 86 -218q0 -178 -136 -292q-137 -114 -335 -114t-352 168q-20 20 0 43l24 25q23 31 44 4q137 -153 290 -153t260 89q106 89 106 207t-72 182q-74 65 -192 125t-166 91t-93 74q-90 86 -89 231
q2 145 118 267t341 122z" />
    <glyph glyph-name="scaron" unicode="&#x161;" horiz-adv-x="708" 
d="M438 1116q-10 0 -20 10l-197 201q-16 16 -4 29l14 16q16 16 31 4l182 -166l232 172q18 12 31 -4l14 -22q8 -14 -8 -29l-252 -201q-13 -10 -23 -10zM483 219q0 37 -26 69q-27 32 -57 49t-110 56t-129 89q-50 50 -50 133t69 154q70 71 193 71t209 -66q20 -14 4 -37l-19 -26
q-16 -23 -37 -6q-72 51 -156 51t-130 -45q-45 -45 -45 -97t38 -85q38 -35 106 -67q107 -51 169 -95q61 -44 61 -146q0 -101 -84 -171t-213 -70t-227 92q-14 14 -4 28l27 33q14 23 29 7q71 -78 205 -80q64 0 121 45q56 46 56 114z" />
    <glyph glyph-name="Tcommaaccent" unicode="&#x162;" horiz-adv-x="864" 
d="M223 -301q0 43 26 68t68 24q82 0 82 -134t-61 -224t-119 -119q-25 -14 -33 0l-14 20q-10 16 12 33q102 68 133 195q8 39 5 78q-16 -10 -31 -11q-68 0 -68 70zM141 1346q-25 0 -20 30l4 31q4 27 29 27h790q27 0 23 -27l-4 -35q-4 -27 -31 -26h-348l-185 -1319
q-4 -27 -34 -27h-39q-27 0 -23 27l186 1319h-348z" />
    <glyph glyph-name="tcommaaccent" unicode="&#x163;" horiz-adv-x="632" 
d="M145 -301q0 43 26 68t69 24q82 0 82 -134t-62 -224t-119 -119q-25 -14 -32 0l-15 20q-10 16 12 33q102 68 134 195q8 39 4 78q-16 -10 -31 -11q-68 0 -68 70zM119 739q-25 0 -19 27l4 33q2 20 27 20h88l31 223q4 27 31 27l34 2q27 0 23 -27l-31 -225h248q27 0 23 -26
l-5 -27q-4 -27 -28 -27h-250l-74 -522q-12 -72 0 -111q12 -38 77 -38t159 57q18 12 30 -8l15 -27q10 -20 -10 -35q-110 -75 -216 -75t-133 59q-26 59 -10 172l76 528h-90z" />
    <glyph glyph-name="Tcaron" unicode="&#x164;" horiz-adv-x="864" 
d="M569 1561q-10 0 -20 10l-197 201q-16 16 -4 28l14 17q16 16 31 4l182 -166l232 172q18 12 31 -4l14 -23q8 -14 -8 -28l-252 -201q-13 -10 -23 -10zM141 1346q-25 0 -20 30l4 31q4 27 29 27h790q27 0 23 -27l-4 -35q-4 -27 -31 -26h-348l-185 -1319q-4 -27 -34 -27h-39
q-27 0 -23 27l186 1319h-348z" />
    <glyph glyph-name="tcaron" unicode="&#x165;" horiz-adv-x="632" 
d="M723 1369q0 36 27 61t69 24q82 0 82 -134t-61 -224t-119 -119q-25 -14 -33 0l-14 20q-10 16 12 33q100 66 131 195q10 43 4 78q-13 -11 -37 -11t-42 20t-19 57zM117 739q-25 0 -19 27l4 33q2 20 27 20h88l31 223q4 27 31 27l34 2q27 0 23 -27l-31 -225h248q27 0 22 -26
l-4 -27q-4 -27 -28 -27h-250l-74 -522q-12 -72 0 -111q12 -38 77 -38t159 57q18 12 30 -8l15 -27q10 -20 -11 -35q-111 -75 -216 -75t-132 59q-26 59 -10 172l76 528h-90z" />
    <glyph glyph-name="Tbar" unicode="&#x166;" horiz-adv-x="864" 
d="M158 621q-29 0 -21 30v8q4 25 29 25h229l94 662h-348q-25 0 -20 30l4 31q4 27 29 27h790q27 0 23 -27l-4 -35q-4 -27 -31 -26h-348l-92 -662h223q26 0 21 -32t-29 -31h-226l-82 -594q-4 -27 -34 -27h-39q-27 0 -23 27l84 594h-229z" />
    <glyph glyph-name="tbar" unicode="&#x167;" horiz-adv-x="632" 
d="M90 381q-29 0 -23 32q7 32 31 31h68l43 295h-90q-25 0 -19 27l4 33q2 20 27 20h88l31 223q4 27 31 27l34 2q27 0 23 -27l-31 -225h248q27 0 23 -26l-5 -27q-4 -27 -28 -27h-250l-41 -295h209q27 0 22 -26l-2 -12q-4 -25 -28 -25h-211l-23 -164q-12 -72 0 -111
q12 -38 77 -38t159 57q18 12 30 -8l15 -27q10 -20 -10 -35q-110 -75 -216 -75t-133 59q-26 59 -10 172l25 170h-68z" />
    <glyph glyph-name="Utilde" unicode="&#x168;" horiz-adv-x="1363" 
d="M739 1851q49 -1 77 -29t39 -64q28 -93 77 -93q68 0 115 121q10 25 30 14l25 -8q14 -10 8 -27q-66 -176 -190 -176q-41 0 -70 30q-29 31 -41 65q-33 94 -76 94q-70 0 -121 -129q-8 -23 -28 -13l-23 11q-18 6 -8 28q0 2 22 48t43 66q20 19 46 41t75 21zM346 1434h45
q27 0 23 -27l-123 -875q-31 -202 56 -330t265 -128t301 128t152 328l125 877q4 27 31 27h43q10 0 16 -8t4 -19l-123 -885q-35 -240 -189 -392t-368 -150q-215 0 -330 153q-114 153 -81 389l124 885q4 27 29 27z" />
    <glyph glyph-name="utilde" unicode="&#x169;" 
d="M468 1401q48 0 76 -29q28 -28 39 -64q29 -94 76 -94q68 0 115 121q10 25 31 15l24 -9q14 -10 9 -26q-66 -176 -191 -176q-41 -1 -69 29t-41 65q-32 94 -76 94q-72 0 -121 -129q-9 -22 -29 -12l-22 10q-18 6 -8 29q0 14 45 88q15 25 55 57q39 31 87 31zM352 -20
q-145 0 -205 97q-59 97 -34 275l61 441q4 27 29 26h39q27 0 22 -26l-63 -441q-19 -141 25 -215t145 -74q68 0 149 46t111 100l82 584q4 27 28 26h39q10 0 16 -8t5 -18l-107 -766q-4 -27 -30 -27h-25q-20 0 -21 25l5 73q-25 -34 -100 -76t-171 -42z" />
    <glyph glyph-name="Umacron" unicode="&#x16a;" horiz-adv-x="1363" 
d="M580 1702q-27 0 -23 27l4 24q4 27 29 27h497q27 0 21 -27l-2 -24q-4 -27 -31 -27h-495zM346 1434h45q27 0 23 -27l-123 -875q-31 -202 56 -330t265 -128t301 128t152 328l125 877q4 27 31 27h43q10 0 16 -8t4 -19l-123 -885q-35 -240 -189 -392t-368 -150
q-215 0 -330 153q-114 153 -81 389l124 885q4 27 29 27z" />
    <glyph glyph-name="umacron" unicode="&#x16b;" 
d="M307 1219q-27 0 -22 24l4 27q4 27 28 26h496q27 0 23 -26l-5 -27q-4 -25 -28 -24h-496zM352 -20q-145 0 -205 97q-59 97 -34 275l61 441q4 27 29 26h39q27 0 22 -26l-63 -441q-19 -141 25 -215t145 -74q68 0 149 46t111 100l82 584q4 27 28 26h39q10 0 16 -8t5 -18
l-107 -766q-4 -27 -30 -27h-25q-20 0 -21 25l5 73q-25 -34 -100 -76t-171 -42z" />
    <glyph glyph-name="Ubreve" unicode="&#x16c;" horiz-adv-x="1363" 
d="M820 1587q-93 0 -154 67t-60 161q0 29 23 28h22q16 0 21 -24q10 -72 49 -116t100 -44t116 46q54 46 79 114q10 25 26 24h33q25 0 17 -28q-31 -100 -105 -164t-167 -64zM346 1434h45q27 0 23 -27l-123 -875q-31 -202 56 -330t265 -128t301 128t152 328l125 877q4 27 31 27
h43q10 0 16 -8t4 -19l-123 -885q-35 -240 -189 -392t-368 -150q-215 0 -330 153q-114 153 -81 389l124 885q4 27 29 27z" />
    <glyph glyph-name="ubreve" unicode="&#x16d;" 
d="M553 1102q-92 0 -153 65q-60 66 -64 160q0 29 24 29h23q16 0 20 -23q7 -73 47 -117t102 -44t116 46t77 115q10 23 29 23h33q20 0 14 -29q-27 -98 -101 -162q-75 -63 -167 -63zM352 -20q-145 0 -205 97q-59 97 -34 275l61 441q4 27 29 26h39q27 0 22 -26l-63 -441
q-19 -141 25 -215t145 -74q68 0 149 46t111 100l82 584q4 27 28 26h39q10 0 16 -8t5 -18l-107 -766q-4 -27 -30 -27h-25q-20 0 -21 25l5 73q-25 -34 -100 -76t-171 -42z" />
    <glyph glyph-name="Uring" unicode="&#x16e;" horiz-adv-x="1363" 
d="M852 1913q-56 0 -100 -50q-44 -51 -45 -113t31 -101t88 -39t100 51q43 51 43 113t-31 100q-30 39 -86 39zM1038 1780q0 -92 -66 -164t-151 -72q-86 0 -134 53t-48 145t67 166q66 72 152 72t133 -54t47 -146zM346 1434h45q27 0 23 -27l-123 -875q-31 -202 56 -330
t265 -128t301 128t152 328l125 877q4 27 31 27h43q10 0 16 -8t4 -19l-123 -885q-35 -240 -189 -392t-368 -150q-215 0 -330 153q-114 153 -81 389l124 885q4 27 29 27z" />
    <glyph glyph-name="uring" unicode="&#x16f;" 
d="M426 1224q0 -62 32 -102t88 -39q56 -1 99 51t43 113t-31 101t-86 38q-55 0 -100 -50t-45 -112zM540 1018q-86 0 -134 53t-48 145t67 165t153 73t133 -54t47 -146t-66 -164t-152 -72zM352 -20q-145 0 -205 97q-59 97 -34 275l61 441q4 27 29 26h39q27 0 22 -26l-63 -441
q-19 -141 25 -215t145 -74q68 0 149 46t111 100l82 584q4 27 28 26h39q10 0 16 -8t5 -18l-107 -766q-4 -27 -30 -27h-25q-20 0 -21 25l5 73q-25 -34 -100 -76t-171 -42z" />
    <glyph glyph-name="Uhungarumlaut" unicode="&#x170;" horiz-adv-x="1363" 
d="M629 1569q-23 0 -13 24l183 326q12 23 30 23h48q16 0 21 -10t-5 -25l-213 -322q-8 -16 -27 -16h-24zM934 1569q-25 0 -10 24l182 326q10 23 31 23h45q16 0 21 -10t-5 -25l-211 -322q-10 -16 -29 -16h-24zM346 1434h45q27 0 23 -27l-123 -875q-31 -202 56 -330t265 -128
t301 128t152 328l125 877q4 27 31 27h43q10 0 16 -8t4 -19l-123 -885q-35 -240 -189 -392t-368 -150q-215 0 -330 153q-114 153 -81 389l124 885q4 27 29 27z" />
    <glyph glyph-name="uhungarumlaut" unicode="&#x171;" 
d="M367 1061q-23 0 -13 24l183 326q12 23 30 23h47q37 0 15 -35l-211 -322q-10 -16 -27 -16h-24zM672 1061q-25 0 -10 24l182 326q10 23 28 23h48q16 0 21 -10t-5 -25l-213 -322q-8 -16 -27 -16h-24zM352 -20q-145 0 -205 97q-59 97 -34 275l61 441q4 27 29 26h39
q27 0 22 -26l-63 -441q-19 -141 25 -215t145 -74q68 0 149 46t111 100l82 584q4 27 28 26h39q10 0 16 -8t5 -18l-107 -766q-4 -27 -30 -27h-25q-20 0 -21 25l5 73q-25 -34 -100 -76t-171 -42z" />
    <glyph glyph-name="Uogonek" unicode="&#x172;" horiz-adv-x="1370" 
d="M401 -287q0 164 144 271q-186 20 -284 170q-97 150 -66 368l124 885q4 27 29 27h45q27 0 23 -27l-123 -875q-31 -202 56 -330t265 -128t301 128t152 328l125 877q4 27 31 27h43q10 0 16 -8t4 -19l-123 -885q-35 -233 -182 -384t-363 -158q-55 -37 -96 -102t-41 -132
t33 -97t82 -30q49 1 89 19t44 11t4 -30t-22 -39q-45 -35 -129 -35t-132 42q-49 42 -49 126z" />
    <glyph glyph-name="uogonek" unicode="&#x173;" 
d="M352 -20q-145 0 -205 97q-59 97 -34 275l61 441q4 27 29 26h39q27 0 22 -26l-63 -441q-19 -141 25 -214t145 -72q68 0 148 44t112 99l82 584q4 27 28 26h39q10 0 16 -8t5 -18l-107 -766q-4 -27 -30 -27h-2q-57 -35 -104 -101q-46 -67 -46 -137t33 -101q33 -30 82 -30
t116 31q13 6 17 -1t4 -30t-23 -39q-45 -34 -128 -34t-132 42t-49 129t52 169t134 122l5 78q-25 -34 -100 -76t-171 -42z" />
    <glyph glyph-name="Wcircumflex" unicode="&#x174;" horiz-adv-x="1673" 
d="M1008 1839q10 0 20 -10l197 -201q16 -16 4 -29l-15 -16q-16 -16 -30 -4l-183 166l-231 -172q-18 -12 -31 4l-14 22q-8 14 8 29l252 201q13 10 23 10zM225 1434h49q16 0 21 -23l135 -1169h4l492 1194q8 18 22 18h13q18 0 20 -18l164 -1192h4l461 1167q8 23 26 23h54
q29 0 20 -27l-565 -1413q-6 -14 -19 -14h-14q-16 0 -18 14l-168 1218h-4l-500 -1218q-6 -14 -19 -14h-14q-18 0 -18 14l-172 1413q-2 27 26 27z" />
    <glyph glyph-name="wcircumflex" unicode="&#x175;" horiz-adv-x="1138" 
d="M412 1130l-15 23q-8 14 9 29l251 200q24 20 43 0l197 -200q16 -16 4 -29l-14 -16q-16 -16 -31 -4l-182 165l-232 -172q-18 -12 -30 4zM125 819h41q20 0 22 -18l82 -617h4l301 637q8 18 25 19h8q16 0 19 -19l129 -637h2l252 617q8 18 28 18h47q27 0 13 -33l-334 -788
q-10 -18 -25 -18h-8q-14 0 -16 18l-131 659h-2l-316 -659q-8 -18 -24 -18h-9q-12 0 -16 18l-113 788q-8 33 21 33z" />
    <glyph glyph-name="Ycircumflex" unicode="&#x176;" horiz-adv-x="1048" 
d="M680 1839q10 0 20 -10l197 -201q16 -16 4 -29l-14 -16q-16 -16 -31 -4l-182 166l-232 -172q-18 -12 -30 4l-15 22q-8 14 9 29l251 201q13 10 23 10zM133 1434h57q16 0 23 -13l328 -628l508 628q12 12 28 13h68q16 0 20 -10t-6 -21l-577 -705l-95 -671q-4 -27 -30 -27h-41
q-25 0 -23 27l92 669l-370 711q-12 27 18 27z" />
    <glyph glyph-name="ycircumflex" unicode="&#x177;" horiz-adv-x="835" 
d="M260 1130l-14 23q-8 14 8 29l252 200q23 20 43 0l196 -200q16 -16 5 -29l-15 -16q-16 -16 -30 -4l-183 165l-231 -172q-19 -12 -31 4zM80 819h43q16 0 22 -18l205 -695h4l381 695q10 18 29 18h45q14 0 18 -10t-4 -23l-770 -1384q-10 -16 -28 -16h-43q-31 0 -15 28
l330 594l-238 778q-8 33 21 33z" />
    <glyph glyph-name="Ydieresis" unicode="&#x178;" horiz-adv-x="1048" 
d="M471 1640q-29 0 -45 18t-16 46t24 52t52 24t44 -18t16 -47q0 -31 -22 -53q-24 -22 -53 -22zM856 1640q-29 0 -45 18t-16 46q-1 28 23 52t52 24t45 -18t17 -47q0 -31 -24 -53t-52 -22zM133 1434h57q16 0 23 -13l328 -628l508 628q12 12 28 13h68q16 0 20 -10t-6 -21
l-577 -705l-95 -671q-4 -27 -30 -27h-41q-25 0 -23 27l92 669l-370 711q-12 27 18 27z" />
    <glyph glyph-name="Zacute" unicode="&#x179;" horiz-adv-x="1005" 
d="M539 1599q-25 -10 -31 7l-8 22q-6 16 16 29l322 184q25 12 32 -6l19 -43q6 -20 -12 -31zM14 0q-29 0 -24 25l4 36l909 1276v6h-645q-25 0 -20 27l4 45q2 18 26 19h758q27 0 23 -25l-5 -35l-911 -1278v-6h666q27 0 22 -27l-4 -36q-4 -27 -31 -27h-772z" />
    <glyph glyph-name="zacute" unicode="&#x17a;" horiz-adv-x="702" 
d="M309 1145q-25 -10 -30 6l-9 23q-6 16 17 28l321 184q25 12 33 -6l18 -43q6 -20 -12 -30zM16 0q-25 0 -20 23l4 22l522 690v2h-368q-25 0 -21 27l4 29q6 27 27 26h475q16 0 21 -12t-5 -27l-520 -694v-4h369q27 0 22 -27l-4 -28q-4 -27 -28 -27h-478z" />
    <glyph glyph-name="Zdotaccent" unicode="&#x17b;" horiz-adv-x="1005" 
d="M698 1815q30 1 50 -19t20 -53t-26 -59t-59 -25q-32 0 -50 19q-19 19 -19 52t27 59t57 26zM14 0q-29 0 -24 25l4 36l909 1276v6h-645q-25 0 -20 27l4 45q2 18 26 19h758q27 0 23 -25l-5 -35l-911 -1278v-6h666q27 0 22 -27l-4 -36q-4 -27 -31 -27h-772z" />
    <glyph glyph-name="zdotaccent" unicode="&#x17c;" horiz-adv-x="702" 
d="M474 1348q30 0 49 -20t19 -51q0 -33 -26 -59t-58 -26t-50 20t-18 52t26 58q28 26 58 26zM16 0q-25 0 -20 23l4 22l522 690v2h-368q-25 0 -21 27l4 29q6 27 27 26h475q16 0 21 -12t-5 -27l-520 -694v-4h369q27 0 22 -27l-4 -28q-4 -27 -28 -27h-478z" />
    <glyph glyph-name="Zcaron" unicode="&#x17d;" horiz-adv-x="1005" 
d="M666 1561q-10 0 -21 10l-196 201q-16 16 -5 28l15 17q16 16 30 4l183 -166l231 172q18 12 31 -4l14 -23q8 -14 -8 -28l-252 -201q-12 -10 -22 -10zM14 0q-29 0 -24 25l4 36l909 1276v6h-645q-25 0 -20 27l4 45q2 18 26 19h758q27 0 23 -25l-5 -35l-911 -1278v-6h666
q27 0 22 -27l-4 -36q-4 -27 -31 -27h-772z" />
    <glyph glyph-name="zcaron" unicode="&#x17e;" horiz-adv-x="702" 
d="M446 1114q-10 0 -20 10l-197 201q-16 16 -4 29l15 16q16 16 30 4l183 -166l231 172q18 12 31 -4l14 -22q8 -14 -8 -29l-252 -201q-13 -10 -23 -10zM16 0q-25 0 -20 23l4 22l522 690v2h-368q-25 0 -21 27l4 29q6 27 27 26h475q16 0 21 -12t-5 -27l-520 -694v-4h369
q27 0 22 -27l-4 -28q-4 -27 -28 -27h-478z" />
    <glyph glyph-name="florin" unicode="&#x192;" horiz-adv-x="624" 
d="M86 739q-27 0 -23 27l5 27q4 27 28 26h154l39 281q25 176 111 265q87 89 218 89q64 0 120 -29t73 -59q12 -16 0 -33l-25 -28q-18 -23 -36 0t-60 45t-84 22q-86 0 -147 -68t-80 -204l-39 -281h262q27 0 23 -24l-7 -31q-4 -25 -28 -25h-262l-144 -1015q-25 -176 -110 -268
q-86 -91 -217 -91q-63 0 -119 29t-72 53t-2 39l25 29q14 23 33 0q18 -23 60 -45t85 -23q87 0 149 70t80 207l142 1015h-152z" />
    <glyph glyph-name="Aringacute" unicode="&#x1fa;" horiz-adv-x="1230" 
d="M295 475h623l-191 825h-6zM790 1776q-56 0 -100 -50q-45 -50 -45 -113q0 -62 32 -101t88 -39t99 51q43 50 43 112t-30 101q-31 39 -87 39zM18 0h-59q-25 0 -10 29l747 1384q-53 15 -86 65t-32 115q0 104 66 177q67 73 153 73t133 -54t47 -141t-54 -156t-139 -83
l353 -1384q8 -25 -23 -25h-53q-23 0 -27 18l-94 377h-692l-197 -377q-10 -18 -33 -18zM639 1862l-8 22q-6 16 16 29l322 184q25 12 32 -6l19 -43q6 -20 -12 -31l-338 -162q-25 -9 -31 7z" />
    <glyph glyph-name="aringacute" unicode="&#x1fb;" 
d="M487 754q-139 0 -232 -116t-93 -282q0 -123 58 -208t155 -85q68 0 131 37t91 68t34 43l61 430q-18 43 -81 78q-62 35 -124 35zM666 0h-23q-29 0 -25 29l5 69q-31 -37 -103 -78t-164 -40q-124 0 -204 105t-80 259q0 205 124 350t293 146q61 0 130 -28t94 -71l16 56
q6 23 29 22h22q10 0 16 -8t5 -18l-107 -766q-4 -27 -28 -27zM426 1339q-25 -10 -31 7l-8 22q-6 16 16 29l322 184q25 12 33 -6l18 -43q6 -20 -12 -31zM523 952q55 0 99 52t44 112t-31 100t-87 40t-100 -51t-44 -113t31 -101q32 -39 88 -39zM518 887q-86 0 -134 53t-48 145
t66 165q67 73 153 73t133 -54t47 -146t-65 -165q-66 -71 -152 -71z" />
    <glyph glyph-name="AEacute" unicode="&#x1fc;" horiz-adv-x="1710" 
d="M1194 1602q-25 -10 -31 6l-8 22q-6 16 16 29l322 184q25 12 33 -6l18 -43q6 -20 -12 -31zM340 475h436l109 782zM-12 0h-60q-29 0 -2 35l967 1364q27 35 57 35h721q27 0 23 -27l-4 -33q-4 -27 -31 -26h-672l-80 -568h578q37 0 31 -30l-5 -27q-4 -31 -32 -31h-584
l-84 -606h672q29 0 22 -31l-6 -28q-4 -27 -29 -27h-735q-27 0 -22 27l51 368h-481l-260 -377q-17 -18 -35 -18z" />
    <glyph glyph-name="aeacute" unicode="&#x1fd;" horiz-adv-x="1302" 
d="M690 1145q-25 -10 -31 6l-8 23q-6 16 17 28l321 184q25 12 33 -6l18 -43q6 -20 -12 -30zM373 453q-102 -1 -170 -55t-81 -146q-14 -92 28 -142t117 -51q75 0 145 37t104 80l35 246q-76 31 -178 31zM1133 625q-1 55 -51 92t-128 37q-197 0 -301 -138l-22 -141
q201 -31 351 5t151 145zM240 -20q-96 0 -158 76q-61 77 -44 199t109 197q93 74 221 74t193 -26q27 137 7 198t-119 62q-76 0 -138 -18t-81 -28q-19 -9 -21 -9q-25 -6 -25 16l-4 33q0 18 21 26q113 60 265 60t179 -123q53 55 137 89t182 34t178 -60q79 -60 79 -151
q1 -93 -61 -149t-151 -71q-190 -32 -327 -14l-61 8l-19 -190q61 -150 221 -150q111 0 226 76q20 12 30 -2l19 -28q8 -14 -20 -42t-110 -58t-163 -29q-150 0 -238 139q-51 -55 -141 -97t-186 -42z" />
    <glyph glyph-name="Oslashacute" unicode="&#x1fe;" horiz-adv-x="1568" 
d="M817 1599q-25 -10 -31 7l-8 22q-6 16 17 29l321 184q25 12 33 -6l18 -43q6 -20 -12 -31zM715 70q266 0 470 217t204 516q0 203 -93 342l-948 -903q137 -172 367 -172zM895 1364q-264 0 -468 -219t-204 -520q0 -203 88 -338l951 903q-141 174 -367 174zM909 1454
q262 0 424 -201l140 131q20 20 34 0l6 -8q14 -18 -6 -37l-137 -131q109 -168 109 -397q-1 -340 -235 -586t-544 -245q-268 0 -426 196l-135 -127q-17 -21 -39 8q-12 20 4 37l134 127q-104 158 -105 393q-1 344 233 592t543 248z" />
    <glyph glyph-name="oslashacute" unicode="&#x1ff;" horiz-adv-x="933" 
d="M731 459q0 88 -29 151l-483 -450q67 -96 189 -96t223 116q100 117 100 279zM186 209l484 450q-66 94 -174 95q-134 0 -234 -119t-100 -283q-1 -82 24 -143zM72 348q0 199 131 345t305 147q145 0 233 -119l47 45q19 16 40 -5t-1 -40l-51 -49q43 -82 43 -203
q0 -201 -130 -345q-129 -144 -289 -144t-253 118l-34 -35q-15 -15 -36 6t-1 42l37 36q-41 86 -41 201zM629 1145q-25 -10 -31 6l-8 23q-6 16 16 28l322 184q25 12 33 -6l18 -43q6 -20 -12 -30z" />
    <glyph glyph-name="Scommaaccent" unicode="&#x218;" horiz-adv-x="1038" 
d="M340 -317q0 43 26 67t68 25q82 -1 82 -135t-61 -224t-119 -118q-25 -14 -33 0l-14 20q-10 16 12 33q102 68 133 194q8 39 4 78q-16 -10 -30 -10q-68 0 -68 70zM655 1454q80 0 156 -27t111 -51l34 -26q20 -20 2 -43l-18 -25q-20 -27 -51 -6q-6 6 -24 17q-19 11 -32 19
q-82 54 -190 54q-166 0 -258 -95t-92 -201t64 -171q65 -63 221 -138t243 -158q86 -83 86 -218q0 -178 -136 -292q-137 -114 -335 -114t-352 168q-20 20 0 43l25 25q23 31 43 4q136 -153 290 -153t260 89t106 207t-72 182q-74 65 -192 125t-166 91t-93 74q-90 86 -89 231
q2 145 118 267t341 122z" />
    <glyph glyph-name="scommaaccent" unicode="&#x219;" horiz-adv-x="708" 
d="M164 -299q0 43 25 68q26 25 69 24q82 0 82 -134t-61 -224t-119 -119q-25 -14 -33 0l-14 20q-10 16 12 33q102 68 133 195q8 39 4 78q-16 -10 -31 -11q-67 0 -67 70zM483 219q0 37 -26 69q-27 32 -57 49t-110 56t-129 89q-50 50 -50 133t69 154q70 71 193 71t209 -66
q20 -14 4 -37l-19 -26q-16 -23 -37 -6q-72 51 -156 51t-130 -45q-45 -45 -45 -97t38 -85q38 -35 106 -67q107 -51 169 -95q61 -44 61 -146q0 -101 -84 -171t-213 -70t-227 92q-14 14 -4 28l27 33q14 23 29 7q71 -78 205 -80q64 0 121 45q56 46 56 114z" />
    <glyph glyph-name="uni021A" unicode="&#x21a;" horiz-adv-x="864" 
d="M197 -301q0 43 25 68q26 25 69 24q82 0 82 -134q1 -134 -61 -224t-119 -119q-25 -14 -33 0l-15 20q-10 16 13 33q102 68 133 195q8 39 4 78q-16 -10 -31 -11q-67 0 -67 70zM141 1346q-25 0 -20 30l4 31q4 27 29 27h790q27 0 23 -27l-4 -35q-4 -27 -31 -26h-348
l-185 -1319q-4 -27 -34 -27h-39q-27 0 -23 27l186 1319h-348z" />
    <glyph glyph-name="uni021B" unicode="&#x21b;" horiz-adv-x="632" 
d="M145 -301q0 43 26 68t69 24q82 0 82 -134t-62 -224t-119 -119q-25 -14 -32 0l-15 20q-10 16 12 33q102 68 134 195q8 39 4 78q-16 -10 -31 -11q-68 0 -68 70zM119 739q-25 0 -19 27l4 33q2 20 27 20h88l31 223q4 27 31 27l34 2q27 0 23 -27l-31 -225h248q27 0 23 -26
l-5 -27q-4 -27 -28 -27h-250l-74 -522q-12 -72 0 -111q12 -38 77 -38t159 57q18 12 30 -8l15 -27q10 -20 -10 -35q-110 -75 -216 -75t-133 59q-26 59 -10 172l76 528h-90z" />
    <glyph glyph-name="dotlessj" unicode="&#x237;" horiz-adv-x="393" 
d="M250 819q27 0 22 -26l-149 -1074q-51 -354 -322 -354q-63 0 -116 28q-105 55 -78 89l26 33q14 23 33 0q74 -68 148 -68q182 0 221 272l151 1074q4 27 29 26h35z" />
    <glyph glyph-name="circumflex" unicode="&#x2c6;" horiz-adv-x="688" 
d="M141 1130l-14 23q-8 14 8 29l252 200q24 20 43 0l197 -200q16 -16 4 -29l-15 -16q-16 -16 -30 -4l-183 165l-231 -172q-19 -12 -31 4z" />
    <glyph glyph-name="caron" unicode="&#x2c7;" horiz-adv-x="688" 
d="M352 1114q-10 0 -20 10l-197 201q-16 16 -4 29l14 16q16 16 31 4l182 -166l232 172q18 12 31 -4l14 -22q8 -14 -8 -29l-252 -201q-13 -10 -23 -10z" />
    <glyph glyph-name="uni02C9" unicode="&#x2c9;" horiz-adv-x="763" 
d="M182 1219q-27 0 -22 24l4 27q4 27 29 26h495q27 0 23 -26l-4 -27q-4 -25 -29 -24h-496z" />
    <glyph glyph-name="breve" unicode="&#x2d8;" horiz-adv-x="636" 
d="M356 1102q-92 0 -152 66t-65 159q0 29 25 29h22q16 0 21 -23q6 -73 46 -117t102 -44q63 0 117 46t77 115q10 23 29 23h32q20 0 15 -29q-27 -97 -102 -161t-167 -64z" />
    <glyph glyph-name="dotaccent" unicode="&#x2d9;" horiz-adv-x="403" 
d="M262 1348q30 0 50 -20t20 -51q0 -33 -26 -59t-59 -26q-32 0 -50 20q-19 20 -19 52t27 58t57 26z" />
    <glyph glyph-name="ring" unicode="&#x2da;" horiz-adv-x="534" 
d="M184 1224q0 -62 32 -102t88 -39q56 -1 99 51t43 113t-30 101q-30 38 -86 38t-101 -50t-45 -112zM516 1254q0 -92 -66 -164t-151 -72q-86 0 -134 53t-48 145t66 165q67 73 153 73t133 -54t47 -146z" />
    <glyph glyph-name="ogonek" unicode="&#x2db;" horiz-adv-x="509" 
d="M176 -238q0 -70 33 -101q33 -30 82 -30q49 1 89 19t44 11t4 -30t-22 -39q-44 -34 -128 -34t-133 42t-49 129t54 170t139 126l63 -9q-72 -36 -124 -110t-52 -144z" />
    <glyph glyph-name="tilde" unicode="&#x2dc;" horiz-adv-x="700" 
d="M304 1401q48 0 76 -29q28 -28 39 -64q29 -94 77 -94q68 0 114 121q10 25 31 15l25 -9q14 -10 8 -26q-66 -176 -191 -176q-41 -1 -69 29t-41 65q-32 94 -76 94q-72 0 -121 -129q-9 -22 -29 -12l-22 10q-18 6 -8 29q0 14 45 88q15 25 55 57q39 31 87 31z" />
    <glyph glyph-name="hungarumlaut" unicode="&#x2dd;" horiz-adv-x="722" 
d="M147 1061q-23 0 -12 24l182 326q12 23 31 23h47q37 0 15 -35l-211 -322q-10 -16 -27 -16h-25zM453 1061q-25 0 -11 24l183 326q10 23 28 23h47q16 0 22 -10t-5 -25l-213 -322q-8 -16 -27 -16h-24z" />
    <glyph glyph-name="uni0394" unicode="&#x394;" horiz-adv-x="1386" 
d="M61 86h926l-285 1206h-4zM-33 0q-55 0 -16 76l739 1374q6 14 25 14h6q18 0 22 -14l349 -1378q16 -72 -43 -72h-1082z" />
    <glyph glyph-name="uni03A9" unicode="&#x3a9;" horiz-adv-x="1597" 
d="M39 84h264q-137 98 -209 265t-43 366q43 309 263 524t496 215t444 -217q167 -217 124 -522q-30 -203 -142 -370t-280 -261h254q10 0 18 -8t5 -19l-6 -30q-4 -27 -27 -27h-436q-10 0 -16 8t-5 19l7 30q2 18 24 27q197 51 338 227t174 404q37 269 -102 459t-380 190
t-432 -189t-229 -460q-33 -227 59 -403t273 -228q23 -8 21 -27l-7 -30q-4 -27 -24 -27h-436q-27 0 -23 27l6 30q4 27 27 27z" />
    <glyph glyph-name="uni03BC" unicode="&#x3bc;" horiz-adv-x="956" 
d="M14 -614q-27 0 -22 26l194 1381q4 27 29 26h39q27 0 22 -26l-63 -441q-20 -141 25 -214t145 -72q68 0 148 44t112 99l82 584q4 27 29 26h39q10 0 16 -8t4 -18l-106 -766q-4 -27 -31 -27h-25q-20 0 -20 25l4 73q-25 -34 -99 -76t-171 -42q-132 -1 -195 79l-92 -647
q-4 -27 -33 -26h-31z" />
    <glyph glyph-name="pi" unicode="&#x3c0;" horiz-adv-x="1234" 
d="M158 739q-25 0 -21 27l4 27q4 27 29 26h1024q25 0 20 -24l-4 -31q-4 -25 -28 -25h-215l-101 -712q-4 -27 -30 -27h-39q-10 0 -17 8q-6 8 -4 19l101 712h-414l-101 -712q-4 -27 -30 -27h-39q-25 0 -21 27l101 712h-215z" />
    <glyph glyph-name="Wgrave" unicode="&#x1e80;" horiz-adv-x="1673" 
d="M1122 1604l-291 161q-16 10 -2 31l25 39q12 20 35 6l270 -184q16 -10 8 -29l-12 -18q-13 -14 -33 -6zM225 1434h49q16 0 21 -23l135 -1169h4l492 1194q8 18 22 18h13q18 0 20 -18l164 -1192h4l461 1167q8 23 26 23h54q29 0 20 -27l-565 -1413q-6 -14 -19 -14h-14
q-16 0 -18 14l-168 1218h-4l-500 -1218q-6 -14 -19 -14h-14q-18 0 -18 14l-172 1413q-2 27 26 27z" />
    <glyph glyph-name="wgrave" unicode="&#x1e81;" horiz-adv-x="1138" 
d="M793 1147l-291 162q-16 10 -2 30l24 39q14 23 35 6l270 -184q16 -10 9 -29l-13 -18q-12 -14 -32 -6zM125 819h41q20 0 22 -18l82 -617h4l301 637q8 18 25 19h8q16 0 19 -19l129 -637h2l252 617q8 18 28 18h47q27 0 13 -33l-334 -788q-10 -18 -25 -18h-8q-14 0 -16 18
l-131 659h-2l-316 -659q-8 -18 -24 -18h-9q-12 0 -16 18l-113 788q-8 33 21 33z" />
    <glyph glyph-name="Wacute" unicode="&#x1e82;" horiz-adv-x="1673" 
d="M840 1599q-25 -10 -31 7l-8 22q-6 16 16 29l322 184q25 12 32 -6l19 -43q6 -20 -12 -31zM225 1434h49q16 0 21 -23l135 -1169h4l492 1194q8 18 22 18h13q18 0 20 -18l164 -1192h4l461 1167q8 23 26 23h54q29 0 20 -27l-565 -1413q-6 -14 -19 -14h-14q-16 0 -18 14
l-168 1218h-4l-500 -1218q-6 -14 -19 -14h-14q-18 0 -18 14l-172 1413q-2 27 26 27z" />
    <glyph glyph-name="wacute" unicode="&#x1e83;" horiz-adv-x="1138" 
d="M512 1145q-25 -10 -31 6l-8 23q-6 16 16 28l322 184q25 12 33 -6l18 -43q6 -20 -12 -30zM125 819h41q20 0 22 -18l82 -617h4l301 637q8 18 25 19h8q16 0 19 -19l129 -637h2l252 617q8 18 28 18h47q27 0 13 -33l-334 -788q-10 -18 -25 -18h-8q-14 0 -16 18l-131 659h-2
l-316 -659q-8 -18 -24 -18h-9q-12 0 -16 18l-113 788q-8 33 21 33z" />
    <glyph glyph-name="Wdieresis" unicode="&#x1e84;" horiz-adv-x="1673" 
d="M797 1640q-29 0 -45 18t-16 46t23 52q25 24 53 24t44 -18t16 -47q0 -31 -23 -53t-52 -22zM1182 1640q-29 0 -45 18q-17 18 -17 46t24 52t52 24t45 -18q16 -18 16 -47q0 -31 -23 -53t-52 -22zM225 1434h49q16 0 21 -23l135 -1169h4l492 1194q8 18 22 18h13q18 0 20 -18
l164 -1192h4l461 1167q8 23 26 23h54q29 0 20 -27l-565 -1413q-6 -14 -19 -14h-14q-16 0 -18 14l-168 1218h-4l-500 -1218q-6 -14 -19 -14h-14q-18 0 -18 14l-172 1413q-2 27 26 27z" />
    <glyph glyph-name="wdieresis" unicode="&#x1e85;" horiz-adv-x="1138" 
d="M486 1221q-62 0 -62 63q0 28 24 52t54 24q57 0 57 -62q1 -33 -21 -55t-52 -22zM840 1221q-29 0 -45 17q-17 17 -17 46q0 28 23 52t51 24t46 -18q17 -18 17 -47q0 -30 -23 -52t-52 -22zM125 819h41q20 0 22 -18l82 -617h4l301 637q8 18 25 19h8q16 0 19 -19l129 -637h2
l252 617q8 18 28 18h47q27 0 13 -33l-334 -788q-10 -18 -25 -18h-8q-14 0 -16 18l-131 659h-2l-316 -659q-8 -18 -24 -18h-9q-12 0 -16 18l-113 788q-8 33 21 33z" />
    <glyph glyph-name="Ygrave" unicode="&#x1ef2;" horiz-adv-x="1048" 
d="M797 1604l-291 161q-16 10 -2 31l24 39q12 20 35 6l271 -184q16 -10 8 -29l-13 -18q-12 -14 -32 -6zM133 1434h57q16 0 23 -13l328 -628l508 628q12 12 28 13h68q16 0 20 -10t-6 -21l-577 -705l-95 -671q-4 -27 -30 -27h-41q-25 0 -23 27l92 669l-370 711q-12 27 18 27z
" />
    <glyph glyph-name="ygrave" unicode="&#x1ef3;" horiz-adv-x="835" 
d="M641 1147l-291 162q-16 10 -2 30l25 39q14 23 35 6l270 -184q16 -10 8 -29l-12 -18q-13 -14 -33 -6zM80 819h43q16 0 22 -18l205 -695h4l381 695q10 18 29 18h45q14 0 18 -10t-4 -23l-770 -1384q-10 -16 -28 -16h-43q-31 0 -15 28l330 594l-238 778q-8 33 21 33z" />
    <glyph glyph-name="endash" unicode="&#x2013;" horiz-adv-x="1234" 
d="M260 477q-27 0 -22 25l2 16q4 27 30 27h703q27 0 22 -27l-2 -16q-4 -25 -30 -25h-703z" />
    <glyph glyph-name="emdash" unicode="&#x2014;" horiz-adv-x="1636" 
d="M260 477q-27 0 -22 25l2 16q4 27 30 27h1104q27 0 23 -27l-2 -16q-4 -25 -29 -25h-1106z" />
    <glyph glyph-name="quoteleft" unicode="&#x2018;" horiz-adv-x="378" 
d="M250 967q-82 0 -82 134t61 224t119 119q25 14 35 0l12 -21q10 -18 -12 -32q-100 -66 -131 -195q-10 -49 -4 -78q16 10 38 10t42 -20q18 -20 18 -56t-26 -60t-70 -25z" />
    <glyph glyph-name="quoteright" unicode="&#x2019;" horiz-adv-x="376" 
d="M213 1369q0 36 27 61t69 24q82 0 82 -134t-61 -224t-119 -119q-25 -14 -33 0l-14 20q-10 16 12 33q100 66 131 195q10 43 4 78q-13 -11 -37 -11t-42 20t-19 57z" />
    <glyph glyph-name="quotesinglbase" unicode="&#x201a;" horiz-adv-x="458" 
d="M150 -20q-70 0 -70 76q0 36 26 61q27 25 70 24q82 0 82 -134t-61 -224t-119 -119q-25 -14 -35 0l-12 21q-10 18 12 32q100 66 131 195q10 49 4 78q-16 -10 -28 -10z" />
    <glyph glyph-name="quotedblleft" unicode="&#x201c;" horiz-adv-x="712" 
d="M256 969q-38 0 -62 36t-24 103q0 129 61 219t119 119q27 14 35 0l12 -21q14 -16 -12 -32q-104 -82 -131 -195q-10 -49 -4 -78q16 10 39 10t41 -20t18 -56t-26 -61q-27 -24 -66 -24zM610 1130q66 0 68 -76q0 -36 -26 -60t-65 -25q-40 0 -64 36t-23 103q0 131 62 220
t120 118q25 14 33 0l14 -21q10 -16 -12 -32q-102 -68 -133 -195q-10 -49 -4 -78q16 10 30 10z" />
    <glyph glyph-name="quotedblright" unicode="&#x201d;" horiz-adv-x="708" 
d="M213 1369q0 36 27 61t69 24q82 0 82 -134t-61 -224t-119 -119q-25 -14 -33 0l-14 20q-10 16 12 33q100 66 131 195q10 43 4 78q-13 -11 -37 -11t-42 20t-19 57zM545 1369q0 36 25 61q26 24 66 24t64 -36t23 -103q-1 -131 -63 -220t-119 -118q-25 -14 -33 0l-14 20
q-10 16 12 33q102 68 133 195q10 49 4 78q-16 -10 -31 -11q-67 0 -67 77z" />
    <glyph glyph-name="quotedblbase" unicode="&#x201e;" horiz-adv-x="788" 
d="M150 -20q-70 0 -70 76q0 36 26 61q27 25 70 24q82 0 82 -134t-61 -224t-119 -119q-25 -14 -35 0l-12 21q-10 18 12 32q100 66 131 195q10 49 4 78q-16 -10 -28 -10zM479 -20q-69 0 -69 76q0 36 26 61q27 25 70 24q82 0 82 -134t-62 -224t-118 -119q-25 -14 -33 0l-15 21
q-10 16 13 32q100 66 131 195q10 43 4 78q-14 -10 -29 -10z" />
    <glyph glyph-name="dagger" unicode="&#x2020;" horiz-adv-x="1064" 
d="M127 733q-27 0 -23 31l5 29q4 27 28 26h375l84 588q4 27 31 27h55q27 0 23 -27l-82 -588h376q25 0 21 -26l-4 -33q-4 -27 -27 -27h-381l-207 -1325q-4 -23 -28 -22h-17q-26 -1 -22 22l170 1325h-377z" />
    <glyph glyph-name="daggerdbl" unicode="&#x2021;" horiz-adv-x="1064" 
d="M90 86h328l94 733h-375q-25 0 -20 29l4 31q4 27 29 26h374l72 502q4 27 31 27h55q27 0 23 -27l-72 -502h379q24 0 16 -59q-4 -27 -29 -27h-376l-115 -733h334q25 0 20 -27l-4 -32q-4 -27 -29 -27h-335l-93 -592q-2 -23 -36 -22h-9q-27 0 -22 22l74 592h-330q-10 0 -17 8
q-6 9 -4 21l4 30q4 27 29 27z" />
    <glyph glyph-name="bullet" unicode="&#x2022;" horiz-adv-x="651" 
d="M473 472q0 -62 -51 -109q-50 -48 -110 -48t-96 37q-36 36 -36 98t50 112t110 50t97 -39q36 -39 36 -101z" />
    <glyph glyph-name="ellipsis" unicode="&#x2026;" horiz-adv-x="1150" 
d="M66 57q0 33 28 61q29 28 63 28t52 -21q18 -20 18 -54q1 -34 -27 -63q-28 -28 -61 -28t-53 22t-20 55zM420 56q0 34 27 62q28 28 62 28t52 -21q19 -20 19 -54t-27 -63q-27 -28 -61 -28t-53 21t-19 55zM780 56q0 34 28 62t62 28t52 -21q18 -20 18 -54t-28 -63
q-28 -28 -60 -28t-52 21t-20 55z" />
    <glyph glyph-name="perthousand" unicode="&#x2030;" horiz-adv-x="1841" 
d="M898 467q-74 0 -138 -70t-64 -155t43 -136t117 -51t137 70t63 154t-42 136q-43 52 -116 52zM1480 467q-72 0 -138 -70q-64 -70 -64 -155t43 -136t117 -51t137 70t63 154t-43 136t-115 52zM623 238q0 118 86 212t211 95q90 0 152 -72q62 -73 62 -189t-86 -210
q-88 -94 -194 -94t-169 70q-62 70 -62 188zM1436 -20q-106 0 -170 70q-62 70 -62 188t86 212t211 95q91 0 153 -72q62 -73 62 -189t-87 -210t-193 -94zM450 1376q-72 0 -138 -70q-64 -70 -64 -154q0 -85 42 -136t117 -51q74 0 138 69q63 70 63 154t-43 136t-115 52z
M1112 1434q12 0 16 -8t-4 -21l-886 -1385q-14 -20 -35 -20h-35q-12 0 -16 8t4 21l891 1390q8 14 28 15h37zM406 889q-106 1 -169 71t-63 188t86 212t211 94q91 0 153 -72t62 -188t-87 -211q-87 -94 -193 -94z" />
    <glyph glyph-name="guilsinglleft" unicode="&#x2039;" horiz-adv-x="477" 
d="M348 776h33q12 0 14 -11t-8 -26l-211 -313l121 -322q6 -14 1 -25t-15 -11h-35q-19 0 -29 18l-149 322q-8 18 6 34l237 316q14 18 35 18z" />
    <glyph glyph-name="guilsinglright" unicode="&#x203a;" horiz-adv-x="475" 
d="M49 68q-27 0 -4 36l211 322l-123 313q-6 13 -1 25t18 12h32q18 0 29 -18l149 -316q8 -14 -4 -34l-239 -322q-14 -18 -35 -18h-33z" />
    <glyph glyph-name="fraction" unicode="&#x2044;" horiz-adv-x="161" 
d="M-268 0h-35q-12 0 -16 8t4 21l890 1390q8 14 29 15h37q12 0 16 -8t-4 -21l-886 -1385q-14 -20 -35 -20z" />
    <glyph glyph-name="zerosuperior" unicode="&#x2070;" horiz-adv-x="706" 
d="M460 1079q152 0 188 257t-118 257q-74 -1 -122 -69t-66 -191q-35 -254 118 -254zM450 1012q-105 0 -154 86q-48 86 -26 236t92 238q72 87 178 87t155 -86q48 -86 27 -238q-21 -151 -94 -237t-178 -86z" />
    <glyph glyph-name="foursuperior" unicode="&#x2074;" horiz-adv-x="700" 
d="M371 1243h202l37 258zM563 1032q-6 0 -12 5t-4 14l16 123h-301q-16 0 -12 18l2 18l407 428h27q6 0 12 -5t4 -13l-53 -379h72q18 0 14 -16l-4 -33q-4 -16 -18 -16h-72l-18 -125q-4 -18 -21 -19h-39z" />
    <glyph glyph-name="fivesuperior" unicode="&#x2075;" horiz-adv-x="712" 
d="M487 1415q95 0 143 -50t36 -141q-12 -92 -80 -152t-176 -60t-166 78q-10 14 4 30l20 23q10 14 23 0q45 -68 121 -68t123 44q45 43 53 101t-21 93t-88 35h-143q-29 0 -25 30l35 242q0 18 19 18h272q18 0 14 -18l-6 -35q-4 -16 -18 -16h-221l-21 -154h102z" />
    <glyph glyph-name="sixsuperior" unicode="&#x2076;" horiz-adv-x="663" 
d="M434 1075q60 0 102 41q40 42 48 106t-22 103t-85 39q-86 0 -147 -88q-12 -80 16 -140t88 -61zM426 1012q-92 0 -137 79t-31 180q26 189 161 292q102 79 189 106q16 6 21 -12l6 -23q8 -27 -17 -35q-80 -25 -154 -83t-118 -152q2 0 10 8q53 53 135 53q83 0 132 -56t37 -145
t-77 -151q-65 -61 -157 -61z" />
    <glyph glyph-name="sevensuperior" unicode="&#x2077;" horiz-adv-x="663" 
d="M309 1032q-27 0 -22 29l319 508h-289q-18 0 -14 18l4 33q4 18 19 18h362q18 0 14 -18l-4 -33l-331 -536q-10 -18 -27 -19h-31z" />
    <glyph glyph-name="eightsuperior" unicode="&#x2078;" horiz-adv-x="643" 
d="M433 1075q60 0 101 33q40 33 48 84q12 109 -115 117q-135 -8 -148 -117q-8 -51 23 -84t91 -33zM475 1370q117 10 131 113q6 51 -20 81q-27 30 -80 30t-88 -30t-41 -81q-15 -105 98 -113zM428 1012q-92 0 -144 50t-43 112t43 106q34 45 81 61v5q-76 41 -65 132
q10 91 70 136t143 45t131 -46q48 -45 40 -107t-39 -102t-70 -58v-5q13 -6 31 -18t38 -50t11 -85q-11 -78 -73 -127t-154 -49z" />
    <glyph glyph-name="ninesuperior" unicode="&#x2079;" horiz-adv-x="665" 
d="M469 1303q86 0 147 88q12 80 -16 140q-29 60 -89 60t-100 -41q-41 -41 -49 -105t22 -103t85 -39zM442 1241q-70 0 -118 56q-48 55 -36 145t76 151t156 61t137 -78t31 -180q-26 -189 -161 -292q-104 -81 -189 -107q-16 -6 -21 13l-6 22q-8 27 17 35q80 25 154 84t118 152
q-2 -1 -10 -9t-20 -16q-58 -37 -128 -37z" />
    <glyph glyph-name="zeroinferior" unicode="&#x2080;" horiz-adv-x="706" 
d="M255 -260q153 0 189 257t-118 257q-74 0 -124 -68t-65 -192q-35 -254 118 -254zM336 319q106 0 154 -86q48 -85 27 -237t-94 -238t-178 -86t-154 86t-27 237t94 237t178 87z" />
    <glyph glyph-name="oneinferior" unicode="&#x2081;" horiz-adv-x="407" 
d="M256 299q18 0 16 -16l-79 -574q-4 -16 -17 -16h-43q-16 0 -12 16l69 490l-96 -54q-12 -5 -16 5l-8 26q-4 12 8 23l155 100h23z" />
    <glyph glyph-name="twoinferior" unicode="&#x2082;" horiz-adv-x="636" 
d="M397 -244q14 0 13 -16l-4 -31q0 -16 -17 -16h-354q-14 0 -15 16l3 19l288 266q74 70 82 127t-19 94q-28 37 -88 37t-130 -70q-13 -12 -21 0l-24 25q-8 8 1 19q9 10 24 26q14 16 64 42t99 25q86 0 132 -54t35 -140t-106 -170l-219 -199h256z" />
    <glyph glyph-name="threeinferior" unicode="&#x2083;" horiz-adv-x="659" 
d="M258 31q125 0 143 112q6 51 -22 81q-29 30 -89 30t-132 -61q-10 -14 -19 -3l-20 23q-8 12 10 32t74 48q57 27 121 27t113 -47q50 -46 42 -107q-8 -60 -43 -102t-76 -60q12 -4 30 -14t43 -50q26 -40 17 -105q-10 -65 -72 -114t-169 -49t-174 84q-10 10 4 23l22 22
q14 14 23 0q2 -2 19 -22t48 -31q31 -12 82 -12t94 33q42 33 49 83t-24 84t-102 33h-84q-16 1 -12 21l4 24q0 16 16 17h84z" />
    <glyph glyph-name="fourinferior" unicode="&#x2084;" horiz-adv-x="700" 
d="M166 -96h203l37 258zM481 299q7 0 13 -5t4 -13l-54 -379h72q18 0 14 -17l-4 -32q-4 -16 -18 -17h-72l-18 -125q-4 -18 -21 -18h-39q-6 0 -12 5t-4 13l16 123h-301q-16 0 -12 19l2 18l408 428h26z" />
    <glyph glyph-name="fiveinferior" unicode="&#x2085;" horiz-adv-x="712" 
d="M160 299h272q18 0 14 -18l-6 -35q-4 -16 -18 -17h-221l-21 -153h103q94 0 142 -50t36 -142t-80 -151q-67 -61 -175 -61t-167 78q-10 14 4 31l20 22q10 14 23 0q45 -68 135 -67q63 0 109 44q45 44 53 101t-21 92t-88 35h-143q-29 0 -25 31l35 242q0 18 19 18z" />
    <glyph glyph-name="sixinferior" unicode="&#x2086;" horiz-adv-x="663" 
d="M230 -264q60 0 101 41q40 41 48 105t-22 104t-85 39q-86 0 -147 -88q-12 -80 16 -141q29 -60 89 -60zM418 30q49 -56 37 -146t-77 -150q-65 -62 -157 -62t-137 79t-31 181q26 187 161 291q104 81 189 107q16 6 21 -13l6 -22q8 -27 -16 -35q-80 -25 -155 -84t-118 -151
q3 0 11 8q56 53 136 53q81 0 130 -56z" />
    <glyph glyph-name="seveninferior" unicode="&#x2087;" horiz-adv-x="663" 
d="M113 229q-18 0 -15 19l4 33q4 18 19 18h362q18 0 15 -18l-4 -33l-332 -537q-10 -18 -27 -18h-31q-27 0 -22 28l319 508h-288z" />
    <glyph glyph-name="eightinferior" unicode="&#x2088;" horiz-adv-x="643" 
d="M228 -264q60 0 101 33q40 33 48 84q12 109 -115 116q-135 -7 -147 -116q-7 -51 23 -84t90 -33zM301 254q-53 0 -88 -30t-41 -81q-14 -104 98 -112q117 10 131 112q6 51 -20 81q-27 30 -80 30zM308 319q83 0 131 -46t40 -107t-39 -101t-69 -59v-4q14 -6 31 -18
q16 -12 36 -50t13 -86q-11 -78 -73 -127t-154 -49t-145 50q-52 50 -43 112t44 106q35 45 80 62v4q-76 40 -65 132t71 136t142 45z" />
    <glyph glyph-name="nineinferior" unicode="&#x2089;" horiz-adv-x="665" 
d="M264 -37q86 0 148 88q12 80 -17 140q-29 61 -89 61t-100 -41t-48 -105t22 -104q30 -39 84 -39zM315 315q92 0 138 -78q45 -79 31 -181q-35 -244 -266 -361q-99 -54 -105 -25l-7 23q-8 27 17 35q80 25 155 84t117 151q-2 0 -10 -8q-53 -53 -135 -53t-131 56t-36 145
t77 151t155 61z" />
    <glyph glyph-name="Euro" unicode="&#x20ac;" horiz-adv-x="1402" 
d="M94 530q-25 0 -20 27v10q4 27 28 27h86q0 117 17 178h-78q-30 0 -18 39q4 27 28 27h84q78 266 286 441t466 175t413 -190q16 -18 -2 -37l-36 -31q-20 -20 -41 0q-129 166 -345 166t-393 -150q-176 -150 -243 -374h581q31 0 24 -33t-32 -33h-592q-18 -88 -18 -178h512
q25 0 20 -31v-8q-4 -25 -28 -25h-496q25 -202 155 -330t320 -128q125 0 212 41t194 131q23 16 43 -6l20 -25q16 -18 -4 -35q-217 -199 -479 -198q-221 0 -382 156t-181 394h-101z" />
    <glyph glyph-name="afii61289" unicode="&#x2113;" horiz-adv-x="1034" 
d="M702 1372q-100 0 -187 -156t-191 -479l-52 -162q203 90 344 247t172 370q27 180 -86 180zM317 -20q-127 0 -175 91q-69 131 12 392q-57 -20 -105 -29q-25 -2 -29 17l-2 24q-2 35 29 39q86 16 135 33l64 203q111 348 224 526q114 178 245 178q84 0 128 -72q45 -72 27 -196
q-50 -354 -412 -585q-99 -62 -214 -107q-33 -100 -47 -193q-33 -240 133 -240q97 0 174 28t101 43q23 14 43 26t26 -6l8 -27q6 -21 -10 -35q-45 -41 -154 -75q-109 -35 -201 -35z" />
    <glyph glyph-name="trademark" unicode="&#x2122;" horiz-adv-x="1331" 
d="M326 807q-23 0 -19 27l76 532h-158q-23 0 -18 34q6 34 29 34h385q23 0 18 -27l-2 -14q-4 -27 -27 -27h-155l-76 -532q-4 -27 -27 -27h-26zM604 807q-27 0 -14 31l209 596q8 20 22 20h15q14 0 16 -20l80 -494h2l227 494q10 20 21 20h14q16 0 18 -20l41 -596q4 -31 -22 -31
h-29q-18 0 -20 20l-25 445h-2l-213 -459q-8 -16 -18 -16h-19q-12 0 -14 16l-84 459h-2l-150 -445q-6 -20 -22 -20h-31z" />
    <glyph glyph-name="Omega" unicode="&#x2126;" horiz-adv-x="1597" 
d="M39 84h264q-137 98 -209 265t-43 366q43 309 263 524t496 215t444 -217q167 -217 124 -522q-30 -203 -142 -370t-280 -261h254q10 0 18 -8t5 -19l-6 -30q-4 -27 -27 -27h-436q-10 0 -16 8t-5 19l7 30q2 18 24 27q197 51 338 227t174 404q37 269 -102 459t-380 190
t-432 -189t-229 -460q-33 -227 59 -403t273 -228q23 -8 21 -27l-7 -30q-4 -27 -24 -27h-436q-27 0 -23 27l6 30q4 27 27 27z" />
    <glyph glyph-name="estimated" unicode="&#x212e;" horiz-adv-x="1685" 
d="M835 1376q-304 0 -509 -260l-52 -366h951l51 362q-137 264 -441 264zM649 57q219 0 432 181q25 25 37 0l10 -19q10 -18 -8 -37q-221 -202 -489 -202t-435 213t-123 524t265 524q222 213 502 213t447 -213t128 -522q-6 -43 -39 -43h-1112l-49 -361q55 -121 173 -189
t261 -69z" />
    <glyph glyph-name="onethird" unicode="&#x2153;" horiz-adv-x="1218" 
d="M795 276q-16 0 -13 21l4 25q0 16 17 16h84q125 0 143 113q6 51 -22 81t-88 29q-60 0 -134 -61q-10 -14 -18 -2l-20 22q-8 12 10 32t74 48q56 27 120 27t114 -46q50 -45 42 -107t-43 -103t-76 -60q11 -4 29 -14t44 -50t17 -91q-10 -78 -72 -127q-63 -49 -169 -49t-174 83
q-10 10 4 23l22 23q14 14 23 0q2 -2 9 -11q48 -55 149 -55q42 0 84 33q41 33 49 83t-23 84t-102 33h-84zM260 827q-16 0 -12 17l69 489l-96 -53q-12 -6 -16 4l-8 27q-4 12 8 22l155 101h23q18 0 16 -17l-80 -573q-4 -16 -16 -17h-43zM1028 1434q12 0 16 -8t-4 -21
l-886 -1385q-14 -20 -35 -20h-35q-12 0 -16 8t4 21l891 1390q8 14 28 15h37z" />
    <glyph glyph-name="twothirds" unicode="&#x2154;" horiz-adv-x="1218" 
d="M795 276q-16 0 -13 21l4 25q0 16 17 16h84q125 0 143 113q6 51 -22 81t-88 29q-60 0 -134 -61q-10 -14 -18 -2l-20 22q-8 12 10 32t74 48q56 27 120 27t114 -46q50 -45 42 -107t-43 -103t-76 -60q11 -4 29 -14t44 -50t17 -91q-10 -78 -72 -127q-63 -49 -169 -49t-174 83
q-10 10 4 23l22 23q14 14 23 0q2 -2 9 -11q48 -55 149 -55q42 0 84 33q41 33 49 83t-23 84t-102 33h-84zM1028 1434q12 0 16 -8t-4 -21l-886 -1385q-14 -20 -35 -20h-35q-12 0 -16 8t4 21l891 1390q8 14 28 15h37zM18 827q-14 0 -14 17l2 18l289 266q74 70 82 128t-20 94
t-88 36t-130 -69q-12 -12 -20 0l-25 24q-8 8 11 32t73 53q55 28 105 28q86 0 132 -54t35 -140t-106 -170l-219 -199h256q14 0 12 -17l-4 -30q0 -16 -16 -17h-355z" />
    <glyph glyph-name="oneeighth" unicode="&#x215b;" horiz-adv-x="1218" 
d="M865 43q60 0 101 33q40 33 48 84q12 109 -115 116q-135 -7 -147 -116q-8 -51 22 -84t91 -33zM938 561q-53 1 -88 -29t-41 -81q-14 -104 98 -113q117 10 131 113q6 51 -20 81t-80 29zM945 627q83 0 131 -46q48 -45 40 -107q-15 -114 -108 -161v-4q14 -6 31 -18t37 -50
t11 -85q-10 -78 -72 -127q-63 -49 -155 -49t-144 50t-43 112t43 106q34 45 81 61v4q-76 41 -65 133q10 92 70 136q60 45 143 45zM260 827q-16 0 -12 17l69 489l-96 -53q-12 -6 -16 4l-8 27q-4 12 8 22l155 101h23q18 0 16 -17l-80 -573q-4 -16 -16 -17h-43zM1028 1434
q12 0 16 -8t-4 -21l-886 -1385q-14 -20 -35 -20h-35q-12 0 -16 8t4 21l891 1390q8 14 28 15h37z" />
    <glyph glyph-name="threeeighths" unicode="&#x215c;" horiz-adv-x="1218" 
d="M865 43q60 0 101 33q40 33 48 84q12 109 -115 116q-135 -7 -147 -116q-8 -51 22 -84t91 -33zM938 561q-53 1 -88 -29t-41 -81q-14 -104 98 -113q117 10 131 113q6 51 -20 81t-80 29zM945 627q83 0 131 -46q48 -45 40 -107q-15 -114 -108 -161v-4q14 -6 31 -18t37 -50
t11 -85q-10 -78 -72 -127q-63 -49 -155 -49t-144 50t-43 112t43 106q34 45 81 61v4q-76 41 -65 133q10 92 70 136q60 45 143 45zM1028 1434q12 0 16 -8t-4 -21l-886 -1385q-14 -20 -35 -20h-35q-12 0 -16 8t4 21l891 1390q8 14 28 15h37zM166 807q-106 0 -174 84
q-10 10 4 22l22 23q14 14 21 4q22 -29 51 -49q29 -21 90 -21t104 33q42 33 49 83t-24 84t-102 34h-84q-16 0 -12 20l4 25q0 16 16 16h84q125 0 143 113q6 51 -22 81t-88 30t-133 -62q-10 -14 -19 -2l-20 23q-8 12 2 22q25 31 82 58q56 26 120 26t114 -46t42 -108t-43 -102
q-35 -41 -76 -59q39 -13 69 -59t22 -97q-10 -78 -73 -127t-169 -49z" />
    <glyph glyph-name="fiveeighths" unicode="&#x215d;" horiz-adv-x="1218" 
d="M865 43q60 0 101 33q40 33 48 84q12 109 -115 116q-135 -7 -147 -116q-8 -51 22 -84t91 -33zM938 561q-53 1 -88 -29t-41 -81q-14 -104 98 -113q117 10 131 113q6 51 -20 81t-80 29zM945 627q83 0 131 -46q48 -45 40 -107q-15 -114 -108 -161v-4q14 -6 31 -18t37 -50
t11 -85q-10 -78 -72 -127q-63 -49 -155 -49t-144 50t-43 112t43 106q34 45 81 61v4q-76 41 -65 133q10 92 70 136q60 45 143 45zM166 807q-108 0 -166 78q-10 14 4 30l21 23q12 14 22 0q45 -68 121 -68t123 44q45 44 53 102t-20 92q-29 35 -88 35h-144q-29 0 -24 31l34 241
q0 18 19 19h272q18 0 15 -19l-7 -35q-4 -16 -18 -16h-221l-21 -154h103q94 0 142 -50t36 -141t-80 -151t-176 -61zM1028 1434q12 0 16 -8t-4 -21l-886 -1385q-14 -20 -35 -20h-35q-12 0 -16 8t4 21l891 1390q8 14 28 15h37z" />
    <glyph glyph-name="seveneighths" unicode="&#x215e;" horiz-adv-x="1218" 
d="M865 43q60 0 101 33q40 33 48 84q12 109 -115 116q-135 -7 -147 -116q-8 -51 22 -84t91 -33zM938 561q-53 1 -88 -29t-41 -81q-14 -104 98 -113q117 10 131 113q6 51 -20 81t-80 29zM945 627q83 0 131 -46q48 -45 40 -107q-15 -114 -108 -161v-4q14 -6 31 -18t37 -50
t11 -85q-10 -78 -72 -127q-63 -49 -155 -49t-144 50t-43 112t43 106q34 45 81 61v4q-76 41 -65 133q10 92 70 136q60 45 143 45zM106 827q-27 0 -22 29l319 508h-288q-18 0 -15 18l4 33q4 18 19 19h362q18 0 15 -19l-4 -33l-332 -536q-10 -18 -27 -19h-31zM1028 1434
q12 0 16 -8t-4 -21l-886 -1385q-14 -20 -35 -20h-35q-12 0 -16 8t4 21l891 1390q8 14 28 15h37z" />
    <glyph glyph-name="partialdiff" unicode="&#x2202;" horiz-adv-x="1157" 
d="M201 379q0 -135 78 -226t196 -92q170 -1 294 179t120 370q-19 58 -109 136q-33 28 -87 48t-113 21q-143 0 -261 -130t-118 -306zM111 367q0 223 148 379t325 155q116 0 202 -54t113 -104h2q-4 129 -57 244q-83 179 -271 307q-61 44 -93 56q-53 21 -31 51l18 29
q10 20 31 12q122 -58 216 -138q93 -80 147 -154t93 -188t39 -268t-58 -320q-58 -165 -182 -280q-124 -114 -283 -114t-259 110t-100 277z" />
    <glyph glyph-name="Delta" unicode="&#x2206;" horiz-adv-x="1386" 
d="M61 86h926l-285 1206h-4zM-33 0q-55 0 -16 76l739 1374q6 14 25 14h6q18 0 22 -14l349 -1378q16 -72 -43 -72h-1082z" />
    <glyph glyph-name="product" unicode="&#x220f;" horiz-adv-x="1314" 
d="M281 1434h952q25 0 20 -27l-194 -1380q-4 -27 -29 -27h-49q-23 0 -18 27l186 1321h-809l-186 -1321q-4 -27 -27 -27h-49q-10 0 -17 8q-6 9 -4 19l195 1380q4 27 29 27z" />
    <glyph glyph-name="summation" unicode="&#x2211;" horiz-adv-x="1071" 
d="M266 1434h740q10 0 16 -8t4 -19l-6 -35q-4 -27 -27 -26h-602l432 -558q23 -29 21 -40l-4 -23q-2 -12 -31 -41l-596 -598h602q10 0 16 -8t5 -19l-5 -32q-4 -27 -28 -27h-740q-23 0 -18 45l696 698l-508 643l5 21q4 27 28 27z" />
    <glyph glyph-name="minus" unicode="&#x2212;" horiz-adv-x="942" 
d="M133 670q-27 0 -22 26l4 33q4 27 28 27h709q25 0 20 -27l-4 -33q-4 -27 -28 -26h-707z" />
    <glyph glyph-name="uni2215" unicode="&#x2215;" horiz-adv-x="161" 
d="M-268 0h-35q-12 0 -16 8t4 21l890 1390q8 14 29 15h37q12 0 16 -8t-4 -21l-886 -1385q-14 -20 -35 -20z" />
    <glyph glyph-name="uni2219" unicode="&#x2219;" horiz-adv-x="651" 
d="M411 453q-34 0 -55 21q-20 22 -20 56t29 60t63 26t51 -20q19 -20 19 -55t-26 -61t-61 -27z" />
    <glyph glyph-name="radical" unicode="&#x221a;" horiz-adv-x="1345" 
d="M205 819q18 0 18 -14l156 -645h4l670 1255q8 18 26 19h246q25 0 21 -27l-7 -31q-4 -27 -24 -26h-197l-733 -1352q-10 -18 -25 -18h-10q-6 0 -12 6t-6 12l-199 795q-4 27 19 26h53z" />
    <glyph glyph-name="infinity" unicode="&#x221e;" horiz-adv-x="1261" 
d="M379 401q76 -1 136 59q59 60 71 145t-31 145t-119 61q-76 0 -134 -59q-58 -58 -70 -146t30 -146q41 -58 117 -59zM876 811q-76 0 -135 -59q-59 -60 -70 -147t31 -145t118 -58q77 0 134 58q57 60 68 146q12 86 -29 146t-117 59zM369 324q-98 0 -164 84q-67 84 -51 202
t99 199q83 82 196 82q69 0 121 -41t77 -109q100 150 244 150q98 0 164 -84q65 -84 49 -201q-16 -118 -100 -200t-193 -82q-66 0 -122 42t-81 105q-100 -147 -239 -147z" />
    <glyph glyph-name="integral" unicode="&#x222b;" horiz-adv-x="663" 
d="M713 1454q63 0 119 -29t73 -59q12 -16 0 -33l-24 -28q-19 -23 -37 0t-60 45t-84 22q-86 0 -147 -68t-80 -204l-194 -1376q-25 -176 -111 -268t-217 -91q-63 0 -119 29t-72 53t-2 39l25 29q13 23 33 0t61 -45t84 -23q88 0 150 70q61 70 79 207l193 1376q25 176 112 265
t218 89z" />
    <glyph glyph-name="approxequal" unicode="&#x2248;" horiz-adv-x="894" 
d="M330 567q68 0 137 -78q53 -66 100 -65q72 0 133 117q14 25 43 8l27 -17q14 -10 -4 -50t-76 -96t-128 -56q-68 0 -134 72t-106 71q-78 0 -138 -113q-24 -42 -49 -24l-20 14q-20 14 0 49q90 168 215 168zM485 834q53 -66 101 -66q72 0 133 117q14 25 43 8l26 -16
q14 -11 -4 -51t-76 -96t-127 -56t-135 72t-106 71q-78 0 -137 -112q-24 -43 -49 -25l-21 14q-27 19 22 86q7 10 19 28t45 50q53 53 125 53t141 -77z" />
    <glyph glyph-name="notequal" unicode="&#x2260;" horiz-adv-x="811" 
d="M164 324q-27 0 -23 28l4 33q4 27 31 27h197l202 338h-352q-27 0 -20 30l4 31q4 27 29 27h393l88 145q14 25 35 14l14 -8q16 -10 2 -33l-70 -118h113q27 0 23 -27l-5 -35q-4 -27 -30 -26h-156l-201 -338h310q29 0 20 -33l-4 -29q-4 -27 -29 -26h-354l-102 -174
q-12 -23 -31 -13l-12 6q-23 12 -9 33l86 148h-153z" />
    <glyph glyph-name="lessequal" unicode="&#x2264;" horiz-adv-x="917" 
d="M29 152q-10 0 -17 8q-6 8 -4 18l4 31q4 27 29 27h711q20 0 16 -27l-4 -31q-4 -27 -25 -26h-710zM113 782q-18 10 -15 35v2q4 20 23 31l770 407q12 6 18 1t4 -21l-6 -49q-6 -25 -18 -31l-680 -346l584 -340q10 -6 10 -31l-6 -37q-6 -33 -29 -20z" />
    <glyph glyph-name="greaterequal" unicode="&#x2265;" horiz-adv-x="917" 
d="M25 152q-20 0 -17 26l4 31q4 27 25 27h711q10 0 16 -8t4 -19l-4 -31q-4 -27 -29 -26h-710zM61 383q-10 -6 -16 -1t-4 21l6 48q0 20 19 30l677 340l-581 346q-16 8 -10 31l6 39q4 37 26 20l656 -407q18 -12 14 -31v-2q-4 -23 -23 -35z" />
    <glyph glyph-name="lozenge" unicode="&#x25ca;" horiz-adv-x="1386" 
d="M598 131h4l473 600l-291 602h-4l-473 -602zM793 1464h6q18 0 20 -14l305 -604q18 -37 22 -43t9 -33q6 -27 -2 -39q-6 -39 -59 -115l-478 -602q-6 -14 -24 -14h-6q-13 0 -21 14l-307 607q-45 81 -29 121q2 6 3 10l7 19q1 3 5 9t5 8t7 10t9 13q3 4 11 15t13 16l479 608
q6 14 25 14z" />
    <glyph glyph-name="uniF8FF" unicode="&#xf8ff;" horiz-adv-x="1226" 
d="M502 319q0 -41 30 -69t69 -29q40 0 70 29q29 30 29 70t-29 69q-30 29 -70 29q-39 0 -69 -29t-30 -70zM537 643q0 -25 28 -25h74q31 0 31 27v53q0 57 107 124q40 26 74 75t34 109q0 98 -73 162t-193 65q-120 0 -213 -80q-22 -18 -41 -44t-3 -38l46 -45q24 -18 70 33
q45 51 120 51q74 0 108 -31t34 -75t-32 -80q-32 -37 -70 -62q-38 -24 -70 -66t-31 -94v-59zM102 61v1311q0 61 62 62h899q61 0 61 -62v-1311q0 -61 -61 -61h-899q-62 0 -62 61z" />
    <glyph glyph-name="CR" horiz-adv-x="0" 
 />
    <glyph glyph-name="grave.cap" horiz-adv-x="557" 
d="M496 1604l-291 161q-16 10 -2 31l24 39q12 20 35 6l270 -184q16 -10 9 -29l-13 -18q-12 -14 -32 -6z" />
    <glyph glyph-name="acute.cap" horiz-adv-x="557" 
d="M217 1599q-25 -10 -31 7l-8 22q-6 16 17 29l321 184q25 12 33 -6l18 -43q6 -20 -12 -31z" />
    <glyph glyph-name="circumflex.cap" horiz-adv-x="688" 
d="M426 1839q10 0 20 -10l197 -201q16 -16 4 -29l-14 -16q-16 -16 -31 -4l-182 166l-232 -172q-18 -12 -30 4l-15 22q-8 14 9 29l251 201q13 10 23 10z" />
    <glyph glyph-name="caron.cap" horiz-adv-x="688" 
d="M401 1561q-10 0 -20 10l-197 201q-16 16 -4 28l15 17q16 16 30 4l183 -166l231 172q18 12 31 -4l14 -23q8 -14 -8 -28l-252 -201q-13 -10 -23 -10z" />
    <glyph glyph-name="caron.alt" horiz-adv-x="688" 
d="M287 1364q0 43 25 68q26 25 69 24q82 0 82 -134q1 -134 -61 -224t-119 -119q-25 -14 -33 0l-14 20q-10 16 12 33q102 68 133 195q8 39 4 78q-16 -10 -31 -11q-67 0 -67 70z" />
    <glyph glyph-name="tilde.cap" horiz-adv-x="700" 
d="M328 1851q48 -1 76 -29t39 -64q28 -93 77 -93q68 0 115 121q10 25 31 14l24 -8q14 -10 8 -27q-66 -176 -190 -176q-41 0 -70 30q-29 31 -41 65q-33 94 -75 94q-72 0 -121 -129q-9 -23 -29 -13l-22 11q-18 6 -9 28q1 11 29 59t42 61t41 35q26 22 75 21z" />
    <glyph glyph-name="dieresis.cap" horiz-adv-x="874" 
d="M313 1640q-29 0 -45 18t-16 46t24 52t52 24q29 0 45 -18t16 -47q1 -31 -23 -53t-53 -22zM698 1640q-29 0 -45 18t-16 46q-1 28 23 52t53 24t45 -18t16 -47q0 -31 -24 -53t-52 -22z" />
    <glyph glyph-name="macron.cap" horiz-adv-x="763" 
d="M209 1702q-27 0 -23 27l4 24q4 27 29 27h498q27 0 20 -27l-2 -24q-4 -27 -30 -27h-496z" />
    <glyph glyph-name="breve.cap" horiz-adv-x="636" 
d="M384 1587q-93 0 -155 67q-61 67 -59 161q0 29 23 28h22q16 0 21 -24q10 -72 49 -116t100 -44t116 46q54 46 79 114q10 25 26 24h33q25 0 16 -28q-31 -100 -105 -164t-166 -64z" />
    <glyph glyph-name="ring.cap" horiz-adv-x="534" 
d="M339 1610q56 0 99 51t43 113t-30 100q-31 39 -87 39t-100 -50q-45 -51 -45 -113t32 -101t88 -39zM551 1780q1 -92 -65 -164t-152 -72t-134 53t-48 145t66 166q67 72 153 72t133 -54t47 -146z" />
    <glyph glyph-name="hungarumlaut.cap" horiz-adv-x="722" 
d="M158 1569q-23 0 -13 24l183 326q12 23 30 23h48q16 0 21 -10t-5 -25l-213 -322q-8 -16 -27 -16h-24zM463 1569q-25 0 -10 24l182 326q10 23 31 23h45q16 0 21 -10t-5 -25l-211 -322q-10 -16 -29 -16h-24z" />
    <glyph glyph-name="dotaccent.cap" horiz-adv-x="403" 
d="M271 1659q-32 0 -50 19t-18 52t26 59q27 26 58 26q31 1 50 -19t19 -53t-26 -59q-27 -25 -59 -25z" />
    <glyph glyph-name="cedilla.cap" horiz-adv-x="456" 
d="M418 -294q0 -82 -60 -148t-153 -66q-51 0 -88 22t-47 48t6 37l20 16q14 6 18 4t13 -16q29 -37 86 -37t91 41t34 98q0 100 -150 123q-25 6 -20 27l20 145h74l-16 -111q70 -8 121 -54t51 -129z" />
    <glyph glyph-name="ogonek.cap" horiz-adv-x="509" 
d="M176 -238q0 -70 33 -101q33 -30 82 -30q49 1 89 19t44 11t4 -30t-22 -39q-44 -34 -128 -34t-133 42t-49 129t54 170t139 126l63 -9q-72 -36 -124 -110t-52 -144z" />
    <glyph glyph-name="commaaccent" horiz-adv-x="536" 
d="M264 -301q0 43 26 68t68 24q82 0 82 -134t-61 -224t-119 -119q-25 -14 -33 0l-14 20q-10 16 12 33q102 68 133 195q8 39 4 78q-16 -10 -30 -11q-68 0 -68 70z" />
    <glyph glyph-name="commaaccent.alt" horiz-adv-x="536" 
d="M264 -301q0 43 26 68t68 24q82 0 82 -134t-61 -224t-119 -119q-25 -14 -33 0l-14 20q-10 16 12 33q102 68 133 195q8 39 4 78q-16 -10 -30 -11q-68 0 -68 70z" />
    <glyph glyph-name="commaaccent.cap" horiz-adv-x="536" 
d="M264 -301q0 43 26 68t68 24q82 0 82 -134t-61 -224t-119 -119q-25 -14 -33 0l-14 20q-10 16 12 33q102 68 133 195q8 39 4 78q-16 -10 -30 -11q-68 0 -68 70z" />
    <glyph glyph-name="brokenbar.case" horiz-adv-x="745" 
d="M367 391q25 0 20 -26l-100 -709q-4 -25 -29 -25h-10q-27 0 -23 25l101 709q4 27 28 26h13zM446 1040q-27 0 -22 27l98 707q6 27 31 26h12q25 0 19 -26l-99 -707q-4 -27 -30 -27h-9z" />
    <glyph glyph-name="zero.tf" horiz-adv-x="1236" 
d="M553 63q215 -1 339 221t124 588q0 215 -74 337t-213 122q-215 0 -340 -222t-125 -587q0 -215 74 -337t215 -122zM541 -20q-176 0 -272 144q-95 144 -95 394q0 406 154 652t413 247q175 0 271 -144t96 -394q0 -407 -154 -653t-413 -246z" />
    <glyph glyph-name="one.tf" horiz-adv-x="1236" 
d="M227 0q-25 0 -20 27l2 22q4 27 29 27h294l173 1163h-3l-272 -225q-16 -12 -29 2l-26 35q-10 12 8 30l369 314h41q20 0 16 -25l-182 -1294h266q27 0 22 -27l-2 -22q-4 -27 -30 -27h-656z" />
    <glyph glyph-name="two.tf" horiz-adv-x="1236" 
d="M975 1058q0 112 -65 190q-64 78 -204 77q-140 0 -284 -166q-20 -25 -39 -8l-31 25q-18 14 1 38t62 64q143 140 310 138q166 -1 257 -99q91 -99 91 -245t-73 -259t-226 -264l-473 -465h600q27 0 23 -27l-4 -30q-4 -27 -29 -27h-719q-22 0 -22 25l4 36l559 545
q133 128 197 234t65 218z" />
    <glyph glyph-name="three.tf" horiz-adv-x="1236" 
d="M524 61q152 1 257 97t105 232t-85 208q-86 70 -193 70h-174q-27 0 -22 22l6 41q4 25 31 25h163q127 0 232 91q104 91 104 234q0 109 -64 177t-167 69q-156 0 -309 -153q-16 -16 -33 0l-27 24q-18 14 1 34t51 52q32 31 129 81t196 50q143 0 232 -87t89 -224
q0 -136 -74 -240q-75 -104 -181 -151v-4q78 -29 135 -111t57 -184q0 -182 -133 -308t-338 -126q-235 -1 -346 192q-8 18 6 29l41 24q18 14 33 -10q92 -154 278 -154z" />
    <glyph glyph-name="four.tf" horiz-adv-x="1236" 
d="M231 401h603l120 834zM137 319q-32 0 -28 25l4 41l897 1032h32q18 0 17 -24l-137 -994h141q27 0 22 -24l-4 -27q-4 -27 -28 -26h-144l-41 -295q-4 -27 -28 -27h-41q-25 0 -21 29l39 290h-680z" />
    <glyph glyph-name="five.tf" horiz-adv-x="1236" 
d="M532 61q176 -1 292 135q118 136 118 314q0 129 -74 205t-219 76h-301q-18 0 -27 13t-6 30l74 534q4 27 31 27h575q11 -1 17 -9t4 -18l-4 -33q-4 -27 -29 -26h-516l-61 -432h256q184 -1 280 -95t96 -270q0 -217 -148 -375t-358 -157q-237 -1 -348 192q-8 18 6 29l41 24
q18 14 33 -10q92 -154 268 -154z" />
    <glyph glyph-name="six.tf" horiz-adv-x="1236" 
d="M307 455q0 -166 72 -280t214 -114q142 1 259 133t117 308q0 135 -77 224t-194 89q-153 0 -299 -130q-50 -46 -71 -75q-21 -59 -21 -155zM1061 516q1 -217 -147 -377q-148 -159 -330 -159t-274 130t-91 322q0 194 60 355q59 161 142 265t223 212q140 109 312 178
q20 6 29 -23l8 -22q11 -27 -35 -43q-101 -36 -290 -172q-98 -72 -184 -186t-126 -242h2q40 47 138 97t230 50t233 -107q100 -108 100 -278z" />
    <glyph glyph-name="seven.tf" horiz-adv-x="1236" 
d="M299 1309q-29 0 -25 30l5 31q2 25 30 25h746q25 0 24 -29v-12l-723 -1329q-14 -25 -32 -25h-56q-26 0 -10 33l703 1276h-662z" />
    <glyph glyph-name="eight.tf" horiz-adv-x="1236" 
d="M272 325q0 -130 79 -199t221 -69t247 89q106 89 107 247q0 104 -77 181t-206 90q-163 -14 -267 -112t-104 -227zM989 1064q0 120 -68 196q-69 74 -201 74t-225 -98q-93 -97 -93 -215q0 -119 66 -183q68 -64 189 -74q154 12 243 96t89 204zM184 308q0 153 96 259t224 144
q0 2 2 4q-82 29 -137 107t-56 177q0 170 120 291t295 121t264 -91t89 -229q0 -139 -85 -239t-199 -137v-4q95 -29 159 -109t64 -192q0 -197 -133 -314t-344 -116q-167 0 -263 88t-96 240z" />
    <glyph glyph-name="nine.tf" horiz-adv-x="1236" 
d="M311 903q0 -135 77 -224t190 -89t225 69q96 63 149 136q20 59 21 155q0 166 -72 280t-214 114t-259 -133q-117 -132 -117 -308zM552 504q-132 0 -233 107q-100 108 -100 278q-1 217 147 377t330 160t274 -131q92 -130 91 -323q1 -192 -59 -354t-143 -265t-223 -212
t-312 -178q-20 -6 -27 14l-10 31q-11 27 35 43q101 36 290 172q98 72 184 186q85 114 126 242h-2q-40 -47 -138 -97t-230 -50z" />
    <glyph glyph-name="zero.denom" horiz-adv-x="706" 
d="M316 47q153 0 189 257t-118 257q-74 -1 -123 -69t-65 -191q-36 -254 117 -254zM397 627q107 0 155 -86t27 -238q-21 -151 -95 -237t-178 -86q-105 0 -153 86q-49 86 -27 236t93 238q72 87 178 87z" />
    <glyph glyph-name="one.denom" horiz-adv-x="407" 
d="M317 606q18 0 17 -16l-80 -574q-4 -16 -16 -16h-43q-17 0 -13 16l70 490l-96 -53q-12 -6 -17 4l-8 26q-4 12 8 23l156 100h22z" />
    <glyph glyph-name="two.denom" horiz-adv-x="636" 
d="M347 559q-60 0 -130 -70q-12 -12 -20 0l-25 25q-11 11 15 36t75 51t98 26q86 -1 132 -55t36 -140q-12 -86 -106 -170l-219 -199h256q14 0 12 -16l-4 -31q0 -16 -16 -16h-355q-14 0 -14 16l2 19l289 266q74 70 82 127t-20 94t-88 37z" />
    <glyph glyph-name="three.denom" horiz-adv-x="659" 
d="M227 276q-16 0 -12 21l4 25q0 16 17 16h83q125 0 144 113q6 51 -23 81q-28 30 -88 29q-60 0 -133 -61q-10 -14 -18 -2l-21 22q-8 12 1 22t25 24q16 13 65 37q50 24 114 24t114 -46q50 -45 42 -107t-43 -103t-76 -60q12 -4 30 -14t43 -50q26 -40 17 -91q-10 -78 -72 -127
t-170 -49q-106 0 -174 83q-10 10 4 23l23 23q14 14 22 0q2 -2 10 -11q48 -55 149 -55q42 0 84 33t49 83t-23 84q-31 34 -103 33h-84z" />
    <glyph glyph-name="four.denom" horiz-adv-x="700" 
d="M227 211h203l37 258zM119 141q-16 0 -13 19l3 18l407 428h27q6 0 12 -5t4 -13l-53 -379h72q18 0 14 -16l-4 -33q-4 -16 -19 -17h-71l-19 -125q-4 -18 -20 -18h-39q-6 0 -12 5t-5 13l17 123h-301z" />
    <glyph glyph-name="five.denom" horiz-adv-x="712" 
d="M269 43q77 0 122 44t53 101t-20 93q-29 35 -88 34h-143q-29 0 -25 31l35 242q0 18 18 18h273q18 0 14 -18l-6 -35q-4 -16 -19 -16h-221l-20 -154h102q94 0 142 -50t36 -141q-12 -92 -80 -152t-176 -60t-166 77q-10 14 4 31l21 23q10 14 22 0q45 -68 122 -68z" />
    <glyph glyph-name="six.denom" horiz-adv-x="663" 
d="M292 43q60 0 100 41q40 42 48 106t-21 103q-30 39 -85 39q-86 0 -148 -88q-12 -80 16 -140q30 -60 90 -61zM282 -20q-92 0 -137 78q-44 78 -30 180q26 190 160 292q104 80 190 107q16 6 20 -12l7 -23q8 -27 -17 -35q-81 -25 -155 -84t-117 -151q2 0 10 8q53 53 135 53
t131 -56t37 -145q-12 -88 -77 -150t-157 -62z" />
    <glyph glyph-name="seven.denom" horiz-adv-x="663" 
d="M174 537q-18 0 -14 18l4 33q4 18 18 18h363q18 0 14 -18l-4 -33l-332 -537q-10 -18 -26 -18h-31q-27 0 -23 29l320 508h-289z" />
    <glyph glyph-name="eight.denom" horiz-adv-x="643" 
d="M290 43q60 0 100 33t48 84q12 109 -114 116q-136 -7 -148 -116q-8 -51 23 -84t91 -33zM362 561q-53 0 -88 -30t-41 -80q-14 -105 99 -113q117 10 131 113q6 51 -21 81t-80 29zM370 627q84 0 131 -46q48 -45 40 -107q-15 -115 -109 -161v-4q14 -6 32 -18t36 -50
q20 -38 12 -85q-10 -78 -72 -127t-155 -49q-92 0 -145 50q-52 50 -43 112t43 106q34 45 81 61v4q-77 41 -65 133t71 136q59 45 143 45z" />
    <glyph glyph-name="nine.denom" horiz-adv-x="665" 
d="M326 270q86 0 147 88q12 80 -16 141q-29 60 -89 60t-101 -41q-40 -41 -48 -105q-8 -63 22 -103t85 -40zM310 209q-81 0 -130 56q-49 55 -36 145q12 90 76 151t156 61t138 -78q45 -78 31 -180q-26 -189 -161 -292q-104 -81 -189 -107q-16 -6 -21 12l-6 23q-8 27 16 35
q80 25 155 84t118 151q-3 0 -11 -8q-56 -53 -136 -53z" />
    <glyph glyph-name="zero.num" horiz-adv-x="706" 
d="M419 874q153 0 189 257t-119 258q-75 0 -123 -69t-65 -192q-35 -254 118 -254zM409 807q-105 0 -154 86q-49 87 -27 237t94 237t178 87t154 -86t27 -238t-94 -238t-178 -85z" />
    <glyph glyph-name="one.num" horiz-adv-x="407" 
d="M297 827q-16 0 -12 17l69 489l-96 -53q-12 -6 -16 4l-9 27q-4 12 9 22l155 101h23q18 0 16 -17l-80 -573q-4 -16 -16 -17h-43z" />
    <glyph glyph-name="two.num" horiz-adv-x="636" 
d="M199 827q-14 0 -15 17l2 18l289 266q74 70 82 128t-19 94q-28 36 -88 36t-131 -69q-12 -12 -20 0l-25 24q-8 8 11 32t74 53q55 28 104 28q86 0 132 -54t35 -140t-106 -170l-219 -199h256q14 0 12 -17l-4 -30q0 -16 -16 -17h-354z" />
    <glyph glyph-name="three.num" horiz-adv-x="659" 
d="M372 807q-106 0 -173 84q-10 10 4 22l22 23q14 14 21 4q22 -29 51 -49q29 -21 90 -21t103 33t50 83t-24 84q-31 34 -102 34h-84q-16 0 -13 20l5 25q0 16 16 16h84q125 0 143 113q6 51 -22 81q-29 30 -89 30t-132 -62q-10 -14 -19 -2l-20 23q-8 12 2 22q25 31 82 58
q57 26 121 26t113 -46q50 -46 42 -108t-43 -102q-35 -41 -76 -59q39 -13 69 -59t21 -97q-10 -78 -72 -127q-64 -49 -170 -49z" />
    <glyph glyph-name="four.num" horiz-adv-x="700" 
d="M330 1038h202l37 258zM522 827q-6 -1 -12 5t-4 14l16 123h-301q-16 0 -12 18l2 19l407 428h27q6 0 12 -6t5 -13l-54 -379h72q18 0 14 -16l-4 -33q-4 -16 -18 -16h-72l-18 -125q-4 -18 -21 -19h-39z" />
    <glyph glyph-name="five.num" horiz-adv-x="712" 
d="M446 1210q94 0 142 -50t37 -141q-12 -91 -80 -151q-67 -60 -175 -61q-108 0 -167 78q-10 14 4 30l20 23q10 14 23 0q46 -68 122 -68t122 44q45 44 53 102t-21 92q-29 35 -88 35h-143q-29 0 -25 31l35 241q0 18 19 19h272q18 0 14 -19l-6 -35q-4 -16 -18 -16h-221
l-21 -154h102z" />
    <glyph glyph-name="six.num" horiz-adv-x="663" 
d="M394 870q60 0 101 41q40 41 48 105t-22 104q-30 39 -85 39q-86 0 -147 -88q-12 -81 16 -141q29 -60 89 -60zM385 807q-92 0 -137 79t-31 180q26 189 161 292q102 79 189 106q16 6 21 -12l6 -22q8 -27 -16 -35q-80 -25 -155 -84t-118 -152q2 0 10 8q50 50 146 54
q72 -1 121 -57q48 -56 36 -145t-76 -151q-65 -61 -157 -61z" />
    <glyph glyph-name="seven.num" horiz-adv-x="663" 
d="M268 827q-27 0 -22 29l319 508h-289q-18 0 -14 18l4 33q4 18 19 19h362q18 0 15 -19l-5 -33l-331 -536q-10 -18 -27 -19h-31z" />
    <glyph glyph-name="eight.num" horiz-adv-x="643" 
d="M392 870q60 0 101 33q40 33 48 84q12 109 -115 117q-135 -8 -147 -117q-7 -51 23 -84t90 -33zM465 1389q-53 0 -88 -30t-41 -81q-15 -105 98 -113q117 10 131 113q6 51 -20 81q-27 30 -80 30zM387 807q-92 0 -144 50q-52 49 -43 111t38 100t49 50t37 19v4q-76 41 -65 132
t71 136t142 45q83 0 131 -46t40 -108t-39 -101q-31 -40 -69 -58v-4q41 -18 64 -62q23 -45 15 -92q-10 -78 -72 -127t-155 -49z" />
    <glyph glyph-name="nine.num" horiz-adv-x="665" 
d="M428 1098q86 0 147 88q12 80 -16 140q-29 60 -89 60t-100 -40t-48 -106q-8 -64 22 -103t84 -39zM479 1450q92 0 137 -79t31 -180q-26 -189 -161 -292q-102 -79 -189 -106q-16 -6 -21 12l-6 22q-8 27 17 35q81 25 155 84t117 152q-2 0 -10 -8q-54 -54 -136 -54
q-83 0 -131 56t-35 146q13 88 77 150t155 62z" />
    <glyph glyph-name="parenleft.case" horiz-adv-x="671" 
d="M176 474q0 282 52 488t138 320q165 219 384 234q23 0 22 -19l-2 -31q0 -25 -18 -24q-226 -33 -356 -273q-130 -241 -130 -695t279 -497q18 -4 12 -24l-8 -35q-2 -16 -25 -16q-152 10 -250 150t-98 422z" />
    <glyph glyph-name="parenright.case" horiz-adv-x="669" 
d="M510 942q0 456 -277 500q-23 0 -14 26l6 29q4 18 29 19q148 -8 246 -150t98 -426q0 -765 -369 -978q-96 -56 -200 -60q-25 0 -25 16l2 37q1 21 21 25q229 34 356 270t127 692z" />
    <glyph glyph-name="hyphen.case" horiz-adv-x="925" 
d="M281 657q-25 0 -21 27l2 23q4 27 29 26h409q27 0 23 -26l-2 -23q-4 -27 -31 -27h-409z" />
    <glyph glyph-name="bracketleft.case" horiz-adv-x="628" 
d="M434 -285q27 0 23 -26l-4 -31q-4 -27 -31 -27h-356q-27 0 -23 27l281 1995q4 27 30 26h357q27 0 22 -26l-4 -31q-4 -27 -31 -27h-295l-264 -1880h295z" />
    <glyph glyph-name="bracketright.case" horiz-adv-x="628" 
d="M-33 -285h293l264 1880h-293q-27 0 -22 27l4 31q4 27 31 26h354q27 0 23 -26l-281 -1995q-4 -27 -31 -27h-354q-27 0 -23 27l5 31q3 26 30 26z" />
    <glyph glyph-name="braceleft.case" horiz-adv-x="696" 
d="M748 1700q44 0 52 -5t5 -16l-6 -34q-4 -16 -21 -19q-334 -27 -389 -424l-45 -325q-8 -63 -54 -134t-95 -92v-2q106 -84 88 -207l-47 -333q-55 -397 270 -424q18 -4 16 -25l-4 -27q-4 -23 -31 -22q-159 0 -262 105q-53 54 -75 154t-3 236l48 336q6 18 2 36t-3 32
q2 12 -8 26t-12 22q-6 21 -33 37q-26 15 -29 17l-26 13q-18 8 -14 24l4 23q2 14 36 24t84 56t60 125l45 327q49 370 331 470q72 26 116 26z" />
    <glyph glyph-name="bar.case" horiz-adv-x="389" 
d="M381 1800q25 0 18 -26l-297 -2118q-4 -25 -28 -25h-11q-26 0 -22 25l297 2118q6 27 31 26h12z" />
    <glyph glyph-name="braceright.case" horiz-adv-x="704" 
d="M-47 -389q-12 0 -20 6q-7 6 -5 16l4 31q2 20 25 25q156 11 259 119t132 301l47 340q18 139 144 210v3q-43 22 -67 89q-23 68 -15 132l51 319q57 395 -270 422q-14 2 -15 18l6 37q2 20 31 21q168 0 271 -119t65 -377l-49 -327q-11 -80 25 -126t81 -59q16 -6 17 -20l-2 -27
q0 -10 -24 -20q-100 -42 -133 -103q-19 -35 -26 -80l-49 -336q-39 -258 -177 -376t-306 -119z" />
    <glyph glyph-name="guilsinglleft.case" horiz-adv-x="477" 
d="M389 1022h33q12 0 14 -11t-8 -26l-211 -313l121 -322q6 -14 1 -25t-15 -12h-35q-19 1 -29 19l-149 321q-8 18 6 35l237 316q14 18 35 18z" />
    <glyph glyph-name="guilsinglright.case" horiz-adv-x="475" 
d="M90 313q-27 0 -4 37l211 322l-123 313q-6 13 -1 25t17 12h33q18 0 29 -18l149 -316q8 -14 -4 -35l-239 -321q-14 -18 -35 -19h-33z" />
    <glyph glyph-name="guillemotleft.case" horiz-adv-x="772" 
d="M389 1022h33q12 0 14 -11t-8 -26l-211 -313l121 -322q6 -14 1 -25t-15 -12h-35q-19 1 -29 19l-149 321q-8 18 6 35l237 316q14 18 35 18zM684 1022h33q12 0 14 -11t-8 -26l-211 -313l121 -322q6 -14 1 -25t-16 -12h-34q-19 1 -29 19l-149 321q-8 18 6 35l237 316
q14 18 35 18z" />
    <glyph glyph-name="guillemotright.case" horiz-adv-x="770" 
d="M90 313q-27 0 -4 37l211 322l-123 313q-6 13 -1 25t17 12h33q18 0 29 -18l149 -316q8 -14 -4 -35l-239 -321q-14 -18 -35 -19h-33zM385 313q-27 0 -4 37l211 322l-123 313q-6 13 -1 25t17 12h33q18 0 29 -18l149 -316q8 -14 -4 -35l-239 -321q-14 -18 -35 -19h-33z" />
    <glyph glyph-name="endash.case" horiz-adv-x="1234" 
d="M301 662q-27 0 -22 24l2 16q4 27 30 27h703q27 0 22 -27l-2 -16q-4 -25 -30 -24h-703z" />
    <glyph glyph-name="emdash.case" horiz-adv-x="1636" 
d="M301 662q-27 0 -22 24l2 16q4 27 30 27h1104q27 0 23 -27l-2 -16q-4 -25 -29 -24h-1106z" />
    <glyph glyph-name="bullet.case" horiz-adv-x="651" 
d="M352 500q-60 0 -95 37q-36 37 -36 99t50 110q51 50 111 50t96 -38t36 -100t-51 -110t-111 -48z" />
    <glyph glyph-name="periodcentered.case" horiz-adv-x="473" 
d="M277 637q-34 -1 -54 21t-20 56q1 34 29 60t62 27q34 -1 52 -21t18 -55t-26 -61q-27 -26 -61 -27z" />
    </font>
</defs>
</svg>
